<?xml version="1.0" encoding="UTF-8"?>
<svg id="Lager_1" data-name="Lager 1" xmlns="http://www.w3.org/2000/svg" viewBox="0 0 290.6 165.6">
  <defs>
    <style>
      .cls-1 {
        fill: #fff;
        stroke: #002d59;
        stroke-width: 1.1px;
      }

      .cls-2 {
        fill: #ffd500;
      }

      .cls-2, .cls-3 {
        stroke-width: 0px;
      }

      .cls-3 {
        fill: #002d59;
      }
    </style>
  </defs>
  <path class="cls-1" d="M4.2,4.3h36.5l9.7,11.1V4.3h37.1l40.4,45.2,7.2-11.7h20l-11.8-13.4,12.3-20.1h97.2l33.8,38.2v89.4s-23.3.1-23.7,0c-.4-.1-34.3-39.1-34.3-39.1l-24.5,39.1h-21.7l-11.2-12.7-25.4,41-24.8-28.3h-40l-6.7-7.7v7.7h-39.3L4.3,96.9l-.1-92.6h0Z"/>
  <rect class="cls-3" x="55.1" y="9" width="27.8" height="28.9"/>
  <polygon class="cls-3" points="55.1 60.1 72.4 60.1 82.9 75.6 82.9 90.4 55.1 90.4 55.1 60.1"/>
  <polygon class="cls-3" points="8.9 9 36.1 9 36.1 42.5 101.6 42.6 120.4 70.5 137.6 42.5 171.8 42.5 121.5 124.5 74.8 55.5 36.1 55.5 36.1 90.4 8.9 90.4 8.9 9"/>
  <polygon class="cls-3" points="158.2 9 222.6 9 172.7 90.4 157.1 90.4 198 23.6 149.3 23.6 158.2 9"/>
  <rect class="cls-3" x="233.3" y="9" width="14.9" height="81.4"/>
  <g>
    <polygon class="cls-2" points="40.8 11.5 50.4 22.5 50.4 37.9 40.8 37.9 40.8 11.5"/>
    <polygon class="cls-2" points="87.5 10.7 125.3 53.7 120.3 61.9 104 37.9 87.5 37.9 87.5 10.7"/>
    <polygon class="cls-2" points="40.8 60.1 50.4 60.1 50.4 95.1 87.5 95.1 87.5 82.6 117.7 127.3 82.9 127.2 69.7 111.8 69.7 127.2 37.1 127.2 8.9 95.1 40.8 95.1 40.8 60.1"/>
    <polygon class="cls-2" points="152.8 28.2 189.8 28.2 148.7 95.1 175.2 95.1 228.6 8 228.6 83.6 201.6 127.2 184.6 127.2 170.7 111.3 145.2 152.4 124.4 128.6 180.1 37.8 161.3 37.9 152.8 28.2"/>
    <polygon class="cls-2" points="252.8 11.3 282 44.5 282 127.2 265.1 127.2 236.8 95.1 252.8 95.1 252.8 11.3"/>
  </g>
</svg>