<?xml version="1.0" encoding="UTF-8"?>
<svg id="Layer_1" data-name="Layer 1" xmlns="http://www.w3.org/2000/svg" viewBox="0 0 200 200">
  <defs>
    <style>
      .cls-1, .cls-2, .cls-3, .cls-4, .cls-5, .cls-6 {
        stroke-width: 0px;
      }

      .cls-2 {
        fill: #008237;
      }

      .cls-3 {
        fill: none;
      }

      .cls-4 {
        fill: #e2201c;
      }

      .cls-5 {
        fill: #fff;
      }

      .cls-6 {
        fill: #1d1d1b;
      }
    </style>
  </defs>
  <g id="Lager_2" data-name="Lager 2">
    <g id="Skikt_1" data-name="Skikt 1">
      <path class="cls-6" d="M126.6,185.7c0,1.9-1.5,3.4-3.4,3.4s-3.4-1.5-3.4-3.4,1.5-3.4,3.4-3.4h0c1.9.1,3.4,1.6,3.4,3.4h0Z"/>
      <path class="cls-1" d="M152.8,58.8c3.2-7.6,4.2-15.9,2.9-24.1-.3,1.3-.9,2.5-1.8,3.5-.2-1.6-.7-3.2-1.4-4.6-1.7,2.9-4.1,5.3-6.9,7.1,2.9-9.4,3.4-18,.7-25.6-.3,1.7-.8,3.3-1.6,4.7-.5-2.1-1.5-4.1-2.7-5.9-1,3.1-3,5.9-5.5,8,1.3-7.4,1.3-13.7-.9-18.6-.3,1.4-.6,2.8-.9,4.2-.7-2.4-1.8-4.6-3.4-6.6-1.8,11.2-15.3,18.3-26.1,21.2-10.2,2.8-22.4,5.4-29.6,11.3,1.2-3.6,2-7,4.2-10.4-24,13.3-36.2,33.3-42.3,56.5-5.4,20.6-5,40.3.4,58.9.2-1.1.6-2.2,1.1-3.2.4,1.3,1,2.6,1.8,3.7.1-2.6.6-5.3,1.4-7.8,1.4,19.7,8.7,35,21.8,46.2,0-1.9.2-3.8.8-5.6.6,1.2,1.5,2.3,2.5,3.1-.1-3.8.5-7.5,1.7-11.1,3.5,12.4,9.4,20.9,17.2,26.7,0-2,.2-4,.7-6,.8,1.3,1.8,2.5,3,3.5-.4-4.7,0-9.4,1.1-13.9,6.8,12.1,15.3,20.3,25.6,24.9-.4-1.8-.8-3.6-1.1-5.4l2.8,2.1c-.1-10.4-.2-20.7-.4-31.1,1,4.7,1.3,9.6.7,14.4.9-.9,1.8-1.9,2.6-2.9.2,1.6.3,3.2.2,4.7,12.2-13.4,20-30.5,22.2-52.2,1.5,4,3,8,4.5,11.9,12.6-15.9,18.2-33.7,14.7-54,7.3-9.6,3.4-22.7-10-27.6ZM148.9,132.1c-1.8-4.5-4.4-8.6-7.7-12.1.3,11.1-2.2,20.7-5.8,30.3-3.3,8.7-8.8,17.7-14.8,23.7.4-6.4-.7-12.7-3.2-18.6-4,10.9-5.3,23.9-3.8,39.1-12.6-6.7-20.7-16.8-23.4-30.8-3.6,6.5-5.7,13.8-6,21.3-7.9-7.8-13.1-17.8-14.4-30.9-3.6,5-6,10.7-7,16.8-12.7-12.4-20-28.5-18.5-50.7-2.3,3.5-4.3,7.2-5.8,11.1-4.4-23.6-1.6-45.1,6.5-65.6,6-15.4,16.7-27.7,27.8-34.7-1.4,2.9-2.3,6-2.4,9.2,8.4-9.2,19.9-12,31.6-14.8,11.4-2.7,24.6-8.2,29.6-18.8,2.6,7.1,1.5,15.4-2,24.6,5-2.6,9.2-6.6,12.1-11.5,2.8,9.5,1.1,18.4-3.7,26.9,5.3-1.3,10.1-3.5,13.9-7.9.9,7.3-.8,14.5-4.6,21.6,11.6,1.4,19.8,12.4,11.9,25.2,3.8,14.3.4,32.1-10.3,46.6h0Z"/>
      <polygon class="cls-5" points="96.2 91.5 96.1 90.7 95.9 89.9 95.7 89.2 95.4 88.5 95.1 87.8 94.7 87.1 94.3 86.5 93.8 85.9 93.2 85.4 92.7 84.9 92.1 84.4 91.4 84.1 90.8 83.8 90.1 83.6 89.3 83.5 89 83.5 88.5 83.5 87.7 83.6 86.8 83.8 85.9 84 85.1 84.4 84.5 84.8 83.9 85.3 83.3 85.8 82.9 86.4 82.5 87 82.2 87.7 82 88.4 81.8 89.1 81.7 89.9 81.7 90.6 81.7 91.4 81.7 92.2 81.8 93 82 93.7 82.2 94.4 82.5 95.2 82.9 95.9 83.2 96.6 83.7 97.2 84.2 97.8 84.7 98.3 85.3 98.8 85.9 99.2 86.5 99.6 87.2 99.9 87.9 100.1 88.7 100.2 89 100.2 89.4 100.2 90.3 100.1 91.2 99.9 92 99.7 92.8 99.3 93.5 98.9 94.1 98.4 94.6 97.9 95.1 97.3 95.4 96.7 95.7 96 96 95.3 96.2 94.5 96.3 93.8 96.3 93 96.3 92.2 96.2 91.5"/>
      <path class="cls-5" d="M147.1,60.4c3.9-7.1,5.6-14.3,4.6-21.6-3.8,4.3-8.6,6.6-13.9,7.9,4.8-8.5,6.5-17.4,3.7-26.9-2.9,4.9-7.1,8.8-12.1,11.5,3.5-9.1,4.5-17.5,2-24.6-5,10.5-18.3,16.1-29.6,18.8-11.5,2.7-22.9,5.5-31.4,14.8.2-3.2,1-6.3,2.4-9.2-11.1,6.9-21.8,19.2-27.8,34.7-8.1,20.5-10.9,42-6.5,65.6,1.5-3.9,3.5-7.6,5.8-11.1-1.5,22.2,5.8,38.3,18.5,50.7,1-6.1,3.4-11.8,7-16.8,1.3,13.1,6.5,23.1,14.4,30.9.3-7.5,2.4-14.7,6-21.3,2.7,14,10.8,24.1,23.4,30.8-1.5-15.2-.2-28.2,3.8-39.1,2.5,5.9,3.6,12.2,3.2,18.6,6-6,11.5-15,14.8-23.7,3.7-9.6,6.2-19.2,5.8-30.3,3.3,3.5,5.9,7.6,7.7,12.1,10.7-14.5,14.1-32.3,10.1-46.6,7.9-12.9-.2-23.8-11.9-25.2ZM147.7,64.8l.6.2.6.2.6.3.6.3.5.3.5.3.5.4.4.4.4.4.4.4.4.4.4.5.3.5.3.5.6,1,.5,1.1.4,1.1.2.6.3,1.3.2,1.3.1.6v1.8l-.1.6-.1.6-.1.6-.2.6-.2.6-.2.6-.2.6-.3.5-.3.5-.3.5-.4.5-.4.5-.4.4-.4.4-.5.4-.5.4-.5.4-.6.3-.6.3-.6.3-.6.3-.7.3-.7.2-.7.2-2.1.6-.7.2-.7.1h-2.8l-.6-.1-.6-.1-.6-.1-.6-.1-.6-.2-.6-.2-.6-.2-.5-.3-.5-.3-.5-.3-.5-.4-.5-.4-.4-.4-.4-.4-.4-.5-.4-.5-.4-.5-.3-.5-.3-.5-.3-.6-.5-1.2-.4-1.2-.3-1.2-.2-1.2-.1-1.2v-1.8l.1-.6.1-.6.1-.6.1-.6.2-.6.2-.6.2-.6.2-.5.3-.5.3-.5.4-.5.4-.5.4-.5.4-.4.5-.4.5-.4.6-.4.6-.4.6-.3.6-.3c.7-.3,1.5-.6,2.2-.8.9-.3,1.9-.5,2.8-.8l.8-.1.7-.1h2.9l.7.1.6.1.6.1.1.3ZM68.4,36.6c-.5,3-.5,6.1,0,9.1,1.8-2.8,4-5.3,6.6-7.3h0l.1-.1c.3-.2.6-.4.8-.7,1-.8,2-1.5,3-2.2l.1.1c5.8-3.4,12.6-5.5,19.3-7.1,3.1-.7,6.4-1.6,9.7-2.7v-.1c.8-.2,1.6-.5,2.4-.8v-.1l.1.1,1.5-.5c7.6-2.8,14.6-6.5,18.1-10.9.7,9-1.9,16.1-5.6,22.6,6.5-2.3,12.3-6.4,16.6-11.8-.1,10.6-4.1,19.2-10.4,26.8,7.8-1.1,14.5-3.6,19.6-8.2-1.4,7.3-4.9,14-10,19.4l-54,14.6h0l-2.6.7-.1.3v-.2l-2.7.7h0l-40,10.8c4.3-22,12.9-39.8,27.5-52.5ZM102,77.8l-.6-2.1.6-.2,9-2.4.8-.2.8-.2.8-.1.8-.1.7-.1h2.2l.7.1.7.1.6.1.6.2.6.2.6.2.6.3.5.3.5.3.5.4.5.4.4.4.4.4.4.4.3.5.3.5.3.5.3.5.3.6.5,1.2.4,1.2.2.8.1.8.1.8.1.7v1.4l-.1.7-.1.7-.2.7-.2.6-.2.6-.3.6-.3.6-.3.6-.4.5-.4.5-.5.5-.5.5-.5.4-.6.4-.6.4-.6.4-.6.4-1.3.7-1.4.6-1.5.6-1.6.5-.5.1-7.2,2-5.7-21.5ZM102.6,92.2v1.2l-.1.6-.1.6-.1.6-.2.6-.1.2-.1.3-.2.6-.2.5-.3.5-.3.5-.3.5-.4.5-.4.5-.4.4-.4.4-.5.4-.5.4-.5.4-.6.3-.6.3-.6.3-.6.3-.7.3-.7.2-.7.2-2,.5-.7.2-.7.1-.5.1h-.2l-.7.1h-2l-.6-.1-.6-.1-.6-.1-.6-.2-.6-.2-.6-.2-.5-.3-.5-.3-.5-.3-.5-.3-.4-.4-.4-.4-.4-.4-.4-.4-.4-.4-.6-.7-.3-.5-.3-.5-.3-.6-.5-1.2-.5-1.2-.3-1.2-.1-.6-.1-.6-.1-1.2v-1.8l.1-.6.1-.6.1-.6h0l.2-.5.2-.6.2-.6.2-.6.2-.5.3-.5.3-.5.4-.5.2-.5.4-.5.5-.4.5-.4.5-.4.5-.4.6-.4.6-.3.6-.3c.7-.3,1.4-.6,2.2-.8.9-.2,1.8-.5,2.8-.7l.8-.2.7-.1h.6l.7-.1h1.4l.7.1.7.1.6.1.6.2.6.2.6.2.6.3.5.3.5.3.5.3.5.3.4.4.4.4.4.4.4.4.4.5.3.5.3.5.3.5.5,1.1.4,1.1.3,1.1v.1l.3,1.3.2,1.3v.6l.2.6ZM39.4,125c-.3-1.3-.5-2.6-.4-3.9l3.3-1c-1.2,1.5-2.2,3.2-2.9,4.9ZM40.8,92.2l6.5-1.8,12.2,14,3.5-18.2,6.6-1.8,6.1,22.6.3,1.1-.3.1-5.6,1.5-3.5-12.9-2.6,14.6-5.1,1.4-10-11.4,3.5,13.2-5.2,1.4-6.4-23.8ZM158.5,99.7c-.4,9.5-3.6,18.6-9.2,26.3-2-4.6-5.6-8.2-10.1-10.2.1,19.3-5.7,38.1-16.7,53.9.4-6.8-1.4-13.5-5.2-19.2-5.9,11.8-8.1,25-6.3,39.7-9.5-6.7-16.4-16.3-20-29.6-4.9,6-8.2,12.3-8.5,19.4-6.1-8-10.2-17.7-11.4-29.9-4.6,4-7.8,9.3-9.4,15.2-11-11.8-16.9-26.8-15.3-46.5l111.6-30.1c.3,2,.4,4,.5,5.9v5.1Z"/>
      <polygon class="cls-5" points="146.4 70.4 145.8 69.9 145.2 69.6 144.5 69.3 143.8 69.1 143 69 142.7 69 142.3 69 141.4 69.1 140.6 69.2 139.7 69.5 138.9 69.9 138.2 70.3 137.6 70.8 137.1 71.3 136.6 71.9 136.2 72.5 135.9 73.2 135.7 73.9 135.5 74.6 135.4 75.4 135.4 76.2 135.4 76.9 135.4 77.7 135.5 78.5 135.7 79.2 135.9 80 136.2 80.7 136.6 81.4 137 82.1 137.4 82.7 137.9 83.3 138.4 83.8 139 84.3 139.6 84.8 140.2 85.1 140.9 85.4 141.6 85.6 142.4 85.7 142.7 85.7 143.2 85.7 144 85.6 144.9 85.4 145.8 85.1 146.5 84.8 147.2 84.4 147.8 83.9 148.3 83.4 148.8 82.8 149.1 82.2 149.4 81.5 149.7 80.8 149.9 80 150 79.3 150.1 78.5 150.1 77.7 150 76.9 149.9 76.2 149.7 75.4 149.5 74.7 149.2 74 148.9 73.3 148.4 72.6 148 72 147.5 71.4 147 70.8 146.4 70.4"/>
      <path class="cls-5" d="M113.8,93.4l1.2-.4.2-.1.9-.4,1-.5.9-.5.8-.6.7-.6.6-.6.5-.7.4-.7.2-.4.1-.4.1-.4.1-.4v-2.1l-.1-.5-.1-.5-.3-1.1-.4-1-.4-.9-.5-.7-.5-.6-.6-.5-.6-.4-.7-.3-.7-.3-.8-.2-.8-.1h-1.8l-1,.1-1,.2-1,.2-1.7.5,4.2,15.5,1.1-.6Z"/>
      <path class="cls-4" d="M98.8,32.3l-4.3-2.5,6.6-.7,6.2-.6.8-2.8c-3.3,1.1-6.6,2-9.7,2.7-6.6,1.6-13.4,3.7-19.1,7.1l8.4,5.6,11.1-8.8Z"/>
      <path class="cls-4" d="M75.3,38.2c.3-.2.6-.4.8-.7-.3.3-.5.5-.8.7Z"/>
      <polygon class="cls-4" points="100 46.2 101.1 42.2 103.1 34.8 105.1 37.5 105.6 36.4 101.1 33.5 100.9 33.3 96.7 46.5 100 46.2"/>
      <path class="cls-4" d="M114.7,26.3l.6,1.4,12.7-1-8.9,8.5,4,8.9-8.4,8.4-1.6,1.6,1.6,4.4,2.2,6.2-2.2-1.3-8.2-4.8-.8.4,5.6,5.1-10.2.7-10.6.7-4.2,11.2,54.3-14.6c5.1-5.4,8.6-12.1,10-19.4-5.2,4.6-11.9,7.1-19.6,8.2,6.3-7.6,10.4-16.3,10.4-26.8-4.3,5.4-10.1,9.5-16.6,11.8,3.7-6.5,6.3-13.6,5.6-22.6-3.5,4.4-10.6,8.1-18.1,10.9.5-.2,1-.3,1.5-.5l.9,2.6Z"/>
      <polygon class="cls-4" points="114.7 44.8 120.8 44.1 114.7 41.2 112.8 40.3 108.7 44.8 108.9 45.3 114.7 44.8"/>
      <path class="cls-4" d="M78.1,66.8l-24.9,1.9,22.7-19.2-.7-11.3c-2.6,2-4.9,4.5-6.6,7.3-.5-3-.5-6.1,0-9.1-14.8,12.9-23.4,30.7-27.7,52.7l40-10.8-2.8-11.5Z"/>
      <path class="cls-4" d="M39.4,125c.8-1.7,1.7-3.4,2.9-4.8l-3.3,1c-.1,1.3,0,2.5.4,3.8Z"/>
      <path class="cls-4" d="M81.5,130.7h0c.3-.1.6-.3.8-.5.1-.7.2-1.4.2-2.1,0-2.1-.2-5.9-2.1-5.8-.8,1-1.3,2.1-1.5,3.4-.6,2.5.6,5.7,2.6,5Z"/>
      <path class="cls-4" d="M46.4,118.9c-1.6,19.7,4.3,34.7,15.3,46.5,1.6-5.9,4.8-11.2,9.4-15.2,1.2,12.3,5.2,22,11.4,29.9.4-7.1,3.7-13.5,8.5-19.4,3.6,13.3,10.6,22.9,20,29.6-1.8-14.7.5-27.9,6.3-39.7,3.8,5.7,5.6,12.4,5.2,19.2,10.9-15.9,16.7-34.7,16.7-53.9,4.6,2,8.2,5.6,10.2,10.1,5.6-7.7,8.8-16.8,9.2-26.3v-5.1c-.1-1.9-.3-3.8-.5-5.9l-111.7,30.2ZM121.8,99.7c3.4-.8,6.7-1.9,9.9-3.3.5,1.7-.1,3.5-1.4,4.8-.4.7-.9,1.3-1.6,1.7.4-.2.8-.3,1.1-.5,0,1.7-.2,3.8-1.4,4.7-.1.1-.2.2-.3.2-.3.5-.6.9-1.1,1.2-.2.1-.4.3-.6.4,2.1-.9,4.2-1.9,6.2-3.1.4,2,.2,3.3-.4,4.2-.3,1.4-1.1,2.6-2.4,3.3-2.2,1.5-5.8,1.8-8.5,3.1l-.7.3c-.4-3.4-1-6.4-1.3-9.6-.2-1.6.1-3.3.8-4.8.3-.9.7-1.8,1.2-2.6h.5ZM108.6,102.8l.6,4.2c1.2-1.7,1.8-1.7,3-3.4,1.7-2.5,5.3-4,7.6-2.8-.5.6-1,1.2-1.5,1.8.1,0,.3,0,.4.1-1.7,2.2-3.6,4.3-5.2,6.5,1.6,1.3,3.1,2.9,4.3,4.6,1.1,1.7,2.4,3.2,4,4.5.6.5,1.3.9,1.9,1.2-.6.3-1.3.4-1.9.4h-.9c.1.1.2.2.4.3.6.4,1.3.8,1.9,1.2-.6.2-1.3.3-1.9.4-3.2.1-7.2-1.4-9-3.3-.6-.6-1.2-1.2-1.7-1.9.1,2.2-.8,6.1-3.8,7.8,0-.5,0-1.1-.1-1.7-.5.7-1.2,1.3-2,1.8,0-4.2-.4-8.6-.8-13-.1-.9,0-1.8.4-2.7-.1-2.9,1.7-5.3,4.3-6ZM69.8,149.5l-.1-.2c-.3.5-.6,1-.9,1.5l-2.6-10.5-2.3,2.6.8,4.2c.5,2.5-.1,5-1.6,7-.5,1.4-1.3,2.6-2.4,3.6l-4.1-18.8c-.1-.4-.1-.7-.2-1.1v-.8c0-.3.1-.7.1-1-.6-2.8-.1-6.3,3.8-8l1.9,8,2.7-2.5v-.5c-.2-1.5,0-3,.7-4.4.3-2.4,1.6-4.5,3.6-5.7l3,15.2c.8,4.1.5,8.6-2.4,11.4ZM83.1,137.2c-.8.9-1.8,1.6-2.9,2l-.4.1c-3.5.9-6.9-2.3-7-8.9,0-1.3.2-2.7.5-4,.3-7,3.4-9.6,7.4-10.8.3-.1.5-.1.8-.2,3.5-.5,6.4,3.2,7.1,8,.7,5.5-1.2,11.5-5.5,13.8h0ZM89.4,122c0-.9.1-1.9.3-2.8.1-5.8,3.2-10.4,7.6-11.2.5-.1,1.1-.1,1.6,0,1.9.2,3.5,1.8,3.7,3.7h-1.4c.2.2.3.5.5.8-.9,0-1.8.1-2.7.4-.8.3-1.6.7-2.3,1.2-.7,1.1-1.1,2.4-1.1,3.7,0,2.7,1.6,4.3,3.3,3.6.9-.4,1.9-1.4,2.7-3.4,2.2,2.3.7,6.4-2,8.7-.2.3-.4.5-.6.7-.5.6-1.1,1.1-1.8,1.5-3.7,2.2-7.9-1.9-7.8-6.9ZM150.6,94.9c-.3,4.5-2,8.9-4.9,12.4-1.4,1.8-3,3.5-4.7,5.1-6.1,7.2-14.3,12.9-19.8,20.6h0c-5.5,7.6-10.4,15.9-12.8,24.9-2.3,8.5-2.3,17.4-.2,25.8-3.7-2.5-7.1-7.2-9.3-12.5-.5-1.2-1-2.5-1.3-3.8-1.9-5-2.9-10.3-2.3-14.7.5-3.4,1.7-6.6,3.6-9.4,4.1-6.5,10.9-11.9,17.3-16,1.7-1.1,3.6-2.3,5.6-3.6,6.5-4.2,13.4-9.1,16.2-12.9.1-.2.2-.4.3-.6-3-1.8-5-4.9-5.4-8.3-.1-.8.1-1.6.4-2.3-.1-2.2,2.1-5.7,5.3-4.6-.4,4.7-.8,8.3,2.4,11.2,2.5-2.9,2.5-5,2.8-8,0-.3.1-.7.3-1,0-.7,0-1.3.1-1.9.2-2.1,4.7-3.4,6.1-3.6.1.7.2,1.3.2,2l.1,1.2Z"/>
      <polygon class="cls-5" points="100.8 57.3 100.9 54 97.1 51.7 93.6 49.7 93.3 50.8 97.1 54.1 100.8 57.3"/>
      <path class="cls-5" d="M53.2,68.8l24.9-1.9,2.7,11.5h0l2.7-.7-2.8-13.4-20.1,1.5,18.2-14.6-1.6-14.2,9.8,8.2,10.1-8.2,1.4-1.1-1.4,4.1-3.1,9,3.1-.4,5.3-.7,1.4-9.1,4,8.9,1.8-.2,9.3-1.2-8.1,7.5,2.8,7.2-4-2.2-3.8-2.1-3,2.4,3.9,3.6-9.6.7-8.1.3-5.2,13.8,2.6-.7h0l4.3-11.2,10.6-.7,10.2-.7-5.6-5.1.8-.4,8.2,4.8,2.2,1.3-2.2-6.2-1.6-4.4,1.6-1.6,8.4-8.4-4-8.9,9-8.5-12.7,1-.6-1.4-1.1-2.5c-.5.2-1,.4-1.5.5l-1.5.5,3.1,5.1,8.3-.6-6,5.2,4.1,7.7-7.6-4.4-3.1,2.5-2.2,1.7.8-6.8-7.9-4.4,9-.5.2-1.1,1-4.4c-.8.3-1.6.5-2.4.8v.1l-.8,2.8-6.2.6-6.6.7,4.3,2.5-11.2,8.7-8.4-5.6-.1-.1c-1,.7-2,1.4-3,2.2-.3.2-.6.4-.8.7l-.1.1h0l.7,11.3-22.8,19.1ZM112.8,40.3l2,.9,6.1,2.9-6.1.6-5.8.6-.2-.6,4-4.4ZM100.9,33.3l.2.1,4.5,2.9-.5,1-2-2.7-2,7.4-1.1,4.1-3.4.2,4.3-13Z"/>
      <path class="cls-2" d="M88.9,63.7l8.2-.6,9.6-.7-3.9-3.6,3-2.4,3.8,2.1,4,2.2-2.8-7.2,8.1-7.5-9.3,1.2-1.8.2-4-8.9-1.4,9.1-5.4.8-3.1.4,3.1-9,1.4-4.1-1.4,1.2-10,8.2-9.7-8.2,1.6,14.2-18.3,14.6,20.1-1.5,2.8,13.4v.2l.1-.3,5.3-13.8ZM93.6,49.7l3.5,2,3.8,2.2-.1,3.4-3.7-3.3-3.8-3.3.3-1Z"/>
      <polygon class="cls-2" points="109.6 29.2 109.4 30.4 100.3 30.8 108.2 35.3 107.4 42 109.6 40.3 112.7 37.8 120.3 42.3 116.2 34.6 122.2 29.4 113.9 30 110.7 24.8 110.6 24.7 110.6 24.9 109.6 29.2"/>
      <path class="cls-5" d="M96.6,155.8c.4-2.7,1.2-5.4,2.4-7.9,3.5-7.2,10.1-13.4,16.7-18.4,1.7-1.3,3.6-2.7,5.6-4.1,6.8-5,14.5-10.6,16.7-14.5-2.9,3.8-9.8,8.7-16.2,12.9-1.9,1.3-3.8,2.5-5.6,3.6-6.4,4.1-13.2,9.5-17.3,16-1.8,2.8-3.1,6-3.6,9.4-.6,4.4.4,9.7,2.3,14.7-1.1-3.8-1.5-7.8-1-11.7Z"/>
      <path class="cls-5" d="M144.3,95.3c-.1.6-.1,1.2-.1,1.9,1-1.7,2.7-2.9,4.6-3.4,1,5.1-2,10.9-5.1,15.3-.8,1.2-1.7,2.3-2.6,3.4,1.7-1.6,3.2-3.3,4.7-5.1,2.8-3.6,4.5-7.9,4.9-12.4v-1.2c0-.7-.1-1.3-.2-2-1.6.1-6,1.4-6.2,3.5Z"/>
      <path class="cls-5" d="M96.7,110.1c1.7-.5,3.5.1,4.5,1.6h1.4c-.2-1.9-1.7-3.5-3.7-3.7-.5-.1-1.1-.1-1.6,0-4.4.8-7.5,5.4-7.6,11.2.8-4.5,3.3-8,7-9.1Z"/>
      <path class="cls-5" d="M59.7,131.4l2,8.9,3.9-3.8-.6-3.1-2.7,2.6-1.9-8c-3.9,1.7-4.4,5.3-3.8,8,.4-1.9,1.5-3.5,3.1-4.6Z"/>
      <path class="cls-5" d="M69.2,122.9c-2,1.2-3.4,3.3-3.6,5.7.6-1.2,1.4-2.3,2.4-3.3l3.1,14.7c.7,3.2.2,6.5-1.4,9.3l.1.2c3-2.8,3.3-7.3,2.5-11.4l-3.1-15.2Z"/>
      <path class="cls-5" d="M63.4,148.7c.4,1.8.3,3.6-.3,5.3,1.5-2,2.1-4.6,1.6-7l-.8-4.2-1.3,1.5.8,4.4Z"/>
      <path class="cls-5" d="M108.3,114.2c.1,1.2.1,2.4.2,3.7-.1,1.7-.7,3.4-1.8,4.7.1.6.1,1.2.1,1.7,3-1.7,3.9-5.6,3.8-7.8-.8-.8-1.6-1.6-2.3-2.3Z"/>
      <path class="cls-5" d="M123.5,105.2v1.6c1.7-.6,3.4-1.3,5-2.1.1.9-.1,1.8-.5,2.6.1-.1.2-.1.3-.2,1.2-.9,1.4-3.1,1.4-4.7-.3.2-.7.3-1.1.5-.2.1-.3.2-.5.3-1.4.9-3,1.5-4.6,2Z"/>
      <path class="cls-5" d="M107.5,105.1l.4,5.6,3.5-5c1.5-2.3,4.1-3.5,6.8-3.2.5-.6,1-1.2,1.5-1.8-2.2-1.2-5.8.3-7.6,2.8-1.2,1.7-1.8,1.7-3,3.4l-.6-4.2c-2.6.7-4.5,3.1-4.5,5.9.7-1.5,1.9-2.9,3.5-3.5Z"/>
      <path class="cls-5" d="M120.4,101.8c.3,0,.5-.1.8-.2,3.3-.9,6.5-2,9.6-3.5,0,1-.2,2.1-.6,3,1.3-1.2,1.8-3,1.4-4.8-3.2,1.4-6.5,2.5-9.9,3.3l-.4.1c-.6.8-1,1.7-1.2,2.6.1-.1.2-.3.3-.5Z"/>
      <path class="cls-5" d="M93.6,120.4c.4,3.3,3.2,4.6,5.4,2.2.7-.8,1.2-1.7,1.6-2.7.8,2.3.4,4.8-1,6.7,2.7-2.3,4.2-6.4,2-8.7-.7,2-1.7,3-2.7,3.4-1.7.7-3.3-.9-3.3-3.6,0-1.3.4-2.6,1.1-3.7-2,1.5-3.2,3.9-3.1,6.4Z"/>
      <path class="cls-5" d="M136.9,97c-.4,4.9.4,8,3.2,10.3.4-.4.7-.7,1-1.1-3.2-2.9-2.9-6.4-2.4-11.2-3.1-1.2-5.4,2.4-5.3,4.6.5-1.4,1.9-2.4,3.5-2.6Z"/>
      <path class="cls-5" d="M124.2,111.8c2.8-1,5.4-2.3,7.9-3.8.1.7.1,1.4,0,2.1.7-1,.9-2.2.4-4.2-2,1.2-4,2.3-6.2,3.2-.8.4-1.6.7-2.4.9.2.5.2,1.2.3,1.8Z"/>
      <path class="cls-5" d="M79.8,134c.1,0,.2,0,.2-.1,1.2-.4,2-2.1,2.3-3.8-.2.2-.5.4-.8.5h0c-2,.7-3.1-2.5-2.6-5,.2-1.2.7-2.4,1.5-3.4h-.3l-.3.1c-1.9.7-2.8,3.7-2.7,6.2,0,2.6.9,5.9,2.7,5.5Z"/>
      <path class="cls-5" d="M81.5,115.5c-.3,0-.6.1-.8.2-3.9,1.2-7.1,3.8-7.4,10.8.9-3.7,3.2-7.3,6.5-8.8l.2-.1c3.8-1.6,7,2.8,7,8.1,0,3.8-1.2,8.7-3.9,11.6,4.3-2.4,6.1-8.4,5.4-13.7-.5-4.9-3.4-8.6-7-8.1Z"/>
      <path class="cls-5" d="M117.2,115.8c1,1.5,2.2,2.8,3.6,3.9h.9c.7,0,1.3-.2,1.9-.4-.7-.4-1.3-.8-1.9-1.2-1.6-1.3-2.9-2.8-4-4.5-1.3-1.7-2.7-3.2-4.3-4.6-.4.5-.8,1.1-1.1,1.6,1.8,1.6,3.5,3.3,4.9,5.2Z"/>
      <path class="cls-2" d="M99,127.4c.2-.2.4-.5.6-.7,1.4-1.9,1.8-4.5,1-6.7-.3,1-.9,1.9-1.6,2.7-2.2,2.4-5.1,1.1-5.4-2.2-.1-2.5,1.1-4.9,3.1-6.4.7-.5,1.5-1,2.3-1.2.9-.3,1.8-.4,2.7-.4-.1-.3-.3-.5-.5-.8-1-1.5-2.8-2.1-4.5-1.6-3.7,1-6.2,4.6-7,9.1-.2.9-.3,1.9-.3,2.8-.1,5,4.1,9,7.8,6.9.7-.4,1.3-.9,1.8-1.5Z"/>
      <path class="cls-2" d="M103.8,111.4c.4,4.4.8,8.8.8,13,.8-.5,1.5-1.1,2-1.8,1.1-1.3,1.8-3,1.8-4.7,0-1.2-.1-2.4-.2-3.7.8.7,1.5,1.5,2.3,2.3.6.6,1.1,1.2,1.7,1.9,1.8,1.9,5.8,3.4,9,3.3.7,0,1.3-.1,1.9-.4-.7-.4-1.3-.8-1.9-1.2-.1-.1-.3-.2-.4-.3-1.4-1.1-2.6-2.4-3.6-3.9-1.4-1.9-3.1-3.6-5-5.1.4-.5.7-1.1,1.1-1.6,1.6-2.2,3.5-4.3,5.2-6.5-.1,0-.3,0-.4-.1-2.7-.4-5.4.9-6.8,3.2l-3.5,5-.4-5.6c-1.6.7-2.8,2-3.3,3.6-.3.7-.4,1.7-.3,2.6Z"/>
      <path class="cls-2" d="M87,125.7c0-5.3-3.2-9.7-7-8.1l-.2.1c-3.3,1.5-5.6,5.1-6.5,8.8-.3,1.3-.5,2.7-.5,4,.1,6.5,3.5,9.7,7,8.9l.4-.1c1.1-.4,2.1-1.1,2.9-2,2.7-2.9,3.9-7.8,3.9-11.6ZM79.8,122.4l.3-.1h.3c1.9-.1,2,3.7,2.1,5.8,0,.7-.1,1.4-.2,2.1-.3,1.7-1,3.4-2.3,3.8-.1,0-.2.1-.2.1-1.8.3-2.7-2.9-2.7-5.4s.8-5.6,2.7-6.3Z"/>
      <path class="cls-2" d="M121.3,101.7c-.3.1-.5.2-.8.2-.1.2-.2.3-.3.5-.7,1.5-1,3.1-.8,4.8.3,3.2.9,6.2,1.3,9.6l.7-.3c2.8-1.3,6.4-1.6,8.5-3.1,1.2-.7,2.1-1.9,2.4-3.3.1-.7.1-1.4,0-2.1-2.5,1.5-5.2,2.8-7.9,3.8-.1-.6-.1-1.3-.2-1.9.8-.2,1.7-.5,2.4-.9.2-.1.4-.2.6-.4.5-.3.8-.8,1.1-1.2.4-.8.5-1.7.5-2.6-1.6.8-3.3,1.5-5,2.1v-1.6c1.6-.5,3.2-1.2,4.6-2,.2-.1.4-.2.5-.3.7-.4,1.2-1,1.6-1.7.5-.9.7-2,.6-3-3.3,1.3-6.5,2.5-9.8,3.4Z"/>
      <path class="cls-2" d="M71.1,140l-3.1-14.7c-1,1-1.8,2.1-2.4,3.3-.7,1.4-.9,2.9-.6,4.4l.1.4.5,3.1-3.9,3.8-2-8.9c-1.6,1.1-2.7,2.7-3.2,4.6-.1.3-.1.7-.1,1v.8c0,.4.1.7.2,1.1l4.1,18.8c1.1-1,1.9-2.3,2.4-3.7.6-1.7.7-3.6.3-5.3l-.8-4.4,1.3-1.5,2.3-2.6,2.6,10.5c.3-.5.6-1,.9-1.5,1.6-2.8,2.1-6,1.4-9.2Z"/>
      <path class="cls-2" d="M148.8,93.8c-1.9.5-3.6,1.7-4.6,3.4-.2.3-.3.7-.3,1-.3,3-.4,5.1-2.8,8-.3.3-.6.7-1,1.1-2.8-2.3-3.6-5.4-3.2-10.3-2.4.4-4.1,2.6-4,5,.5,3.4,2.5,6.5,5.4,8.3-.1.2-.2.4-.3.6-2.3,3.9-9.9,9.6-16.7,14.5-2,1.4-3.9,2.8-5.6,4.1-6.6,5-13.1,11.1-16.7,18.4-1.2,2.5-2.1,5.1-2.4,7.9-.4,3.9-.1,7.9,1.1,11.7.4,1.3.8,2.6,1.4,3.9,2.2,5.4,5.6,10,9.3,12.5-2.1-8.5-2.1-17.4.2-25.8,2.3-9.1,7.3-17.3,12.8-24.9h0c5.5-7.7,13.7-13.4,19.8-20.6.9-1.1,1.8-2.2,2.6-3.4,3-4.5,6-10.2,5-15.4Z"/>
      <path class="cls-1" d="M102.4,89.6l-.3-1.3v-.1l-.3-1.1-.5-1.1-.5-1-.3-.5-.3-.5-.3-.5-.5-.5-.4-.5-.4-.4-.4-.4-.4-.4-.5-.3-.5-.3-.5-.3-.6-.4-.6-.3-.6-.2-.5-.2-.6-.2-.7-.1-.7-.1-.7-.1h-1.3l-.7.1h-.7l-.7.1-.8.2c-.9.2-1.8.5-2.8.7-.7.2-1.5.5-2.2.9l-.6.3-.6.3-.6.4-.5.4-.5.4-.5.4-.5.4-.3.6-.4.5-.3.5-.3.5-.4.5-.2.5-.2.6-.2.6-.2.6-.2.5h0l-.1.6-.1.6-.1.6v1.8l.1,1.2.1.6.1.6.3,1.3.5,1.2.5,1.2.3.6.3.5.5.4.4.5.4.4.4.4.4.4.4.4.4.4.5.3.5.3.5.3.5.3.6.2.6.2.6.2.6.1.6.1.6.1h2l.7-.1h.3l.5-.1.7-.1.7-.2,2-.5.7-.2.7-.2.7-.3.6-.3.6-.3.6-.3.6-.3.5-.4.5-.4.5-.4.4-.4.4-.4.4-.5.4-.5.3-.5.3-.5.3-.5.2-.5.2-.6.2-.1.1-.2.2-.6.1-.6.1-.6.1-.6v-2.4l-.2-1.4ZM96.3,93.8l-.1.8-.2.7-.3.7-.3.7-.4.6-.4.6-.5.5-.6.5-.7.4-.8.4-.9.3-.9.2-.8.1h-.7l-.8-.1-.7-.2-.7-.3-.7-.3-.6-.4-.6-.5-.5-.6-.5-.6-.4-.6-.4-.7-.3-.7-.3-.7-.2-.9-.2-.7-.1-.8-.1-.8v-1.6l.1-.8.2-.8.2-.7.3-.7.4-.6.4-.6.5-.5.6-.5.7-.4.8-.4.9-.3.9-.2.8-.1h.9l.8.1.7.2.7.3.7.3.6.4.6.5.5.5.5.6.4.6.4.7.3.7.3.7.2,1.2.2.7.1.8.1.8v.7l-.1.8Z"/>
      <path class="cls-1" d="M146.5,64.6l-.6-.1-.7-.1h-2.9l-.7.1-.8.1c-.9.2-1.9.5-2.8.8-.7.2-1.5.5-2.2.8l-.6.3-.6.3-.6.4-.6.4-.5.4-.5.4-.4.4-.4.5-.4.5-.4.5-.3.5-.3.5-.2.5-.2.6-.2.6-.2.6-.1.6-.1.6-.1.6-.1.6v1.8l.1,1.2.2,1.2.3,1.2.4,1.2.5,1.2.3.6.3.5.3.5.4.5.4.5.4.5.4.4.4.4.5.4.5.4.5.3.5.3.5.3.6.2.6.2.6.2.6.1.6.1.6.1.6.1h2.8l.7-.1.7-.2,2.1-.6.7-.2.7-.2.7-.3.6-.3.6-.3.6-.3.6-.3.5-.4.5-.4.5-.4.4-.4.4-.4.8-.6.4-.5.3-.5.3-.5.3-.5.2-.6.2-.6.2-.6.2-.6.1-.6.1-.6.1-.6v-1.8l-.1-.6-.2-1.3-.3-1.3-.2-.6-.4-1.1-.5-1.1-.6-1-.3-.5-.3-.5-.4-.5-.4-.4-.4-.4-.4-.4-.4-.4-.5-.4-.5-.3-.5-.3-.6-.3-.6-.3-.6-.2-.6-.2-.6-.2-.5-.1ZM148,72l.4.6.4.7.3.7.3.7.2.7.2.8.2.8.1.8v.8l-.1.8-.1.8-.2.7-.3.7-.3.7-.4.6-.5.6-.5.5-.6.5-.7.4-.8.3-.9.3-.9.2-.9.1h-.8l-.8-.1-.7-.2-.7-.3-.6-.3-.6-.4-.6-.5-.5-.6-.5-.6-.4-.6-.4-.7-.3-.7-.3-.7-.2-.8-.2-.8-.1-.8-.1-.8v-.8l.1-.8.1-.8.2-.7.2-.7.3-.7.4-.6.4-.6.5-.5.6-.5.7-.4.8-.3.9-.3.9-.2.8-.1h.7l.8.1.7.2.7.3.6.3.6.4.6.5.5.5.8.8Z"/>
      <path class="cls-1" d="M115.1,97.5l.5-.1,1.6-.5,1.5-.6,1.4-.6,1.3-.7.6-.4.6-.4.6-.4.6-.4.5-.4.5-.5.5-.5.4-.5.4-.5.3-.6.3-.6.3-.6.2-.6.2-.6.2-.7.1-.7.1-.7v-1.4l-.1-.7-.1-.8-.1-.8-.2-.8-.4-1.2-.5-1.2-.3-.6-.3-.5-.3-.5-.3-.5-.3-.5-.4-.4-.4-.5-.4-.4-.5-.4-.5-.4-.5-.3-.5-.3-.6-.3-.6-.2-.6-.2-.6-.2-.6-.1-.7-.1-.7-.1h-2.3l-.7.1-.8.1-.8.1-.8.2-.8.2-9,2.4-.6.2.6,2.1,5.8,21.6,7.2-2ZM110.4,77.8l1-.2,1-.2,1-.1h1.8l.8.1.8.2.7.3.7.3.6.4.6.5.5.6.5.7.4.9.4,1,.3,1.1.1.5.1.5v2.4l-.1.4-.1.4-.1.4-.2.4-.4.7-.5.7-.6.6-.7.6-.8.6-.9.5-1,.5-.9.4h-.4l-1.2.4-.9.3-4.2-15.5,1.7-.4Z"/>
      <polygon class="cls-1" points="52.4 114.4 48.8 101.3 58.8 112.7 63.8 111.3 66.4 96.8 69.9 109.7 75.6 108.1 75.9 108.1 75.6 107 69.5 84.4 63 86.2 59.5 104.4 47.3 90.4 40.8 92.2 47.2 115.8 52.4 114.4"/>
      <path class="cls-5" d="M120.5,185.7c0-1.5,1.2-2.7,2.7-2.7s2.7,1.2,2.7,2.7-1.2,2.7-2.7,2.7h0c-1.5,0-2.7-1.1-2.7-2.7q0,.1,0,0ZM125.5,185.7c0-1.3-1-2.3-2.3-2.3s-2.3,1-2.3,2.3,1,2.3,2.3,2.3h0c1.2,0,2.3-1,2.3-2.3h0ZM124.5,187.2h-.5l-.9-1.4h-.5v1.4h-.4v-2.9h1.3c.5,0,1,.1,1,.8s-.4.8-.9.8l.9,1.3ZM123.1,185.4c.4,0,1,.1,1-.4,0-.3-.4-.4-.7-.4h-.8v.8h.5Z"/>
      <rect class="cls-3" width="200" height="200"/>
    </g>
  </g>
</svg>