<?xml version="1.0" encoding="UTF-8"?>
<svg id="Lager_1" data-name="Lager 1" xmlns="http://www.w3.org/2000/svg" viewBox="0 0 198.6 175.4">
  <defs>
    <style>
      .cls-1 {
        fill: #008e52;
      }

      .cls-1, .cls-2, .cls-3, .cls-4 {
        stroke-width: 0px;
      }

      .cls-2 {
        fill: #e9b646;
      }

      .cls-3, .cls-4 {
        fill: #fff;
      }

      .cls-4 {
        fill-rule: evenodd;
      }
    </style>
  </defs>
  <path class="cls-2" d="M126.4,153c-1.1.9-2.8,1.2-4.3,1.8-1-.2-16.5-9.1-23.2-11.3-7.7,3.1-15.3,6.5-22,11.5h1.9c-1.6.3-6.9-1.3-8.5-1.4,7.1-5.3,15.7-8.8,24-12-3-1-6-2.4-9.2-2.9-7.7,3.9-17.9,7.9-26.5,3.5-2.2-.9-4.3-1.7-6.5-2.5,6.5-2,13-5.3,20.5-5.6-3.5-1.4-8.2-.9-12.1.2-4.9,1.4-9.2,4.6-15,3.2-4.9-.9-9.1-3.1-13.1-6.1v-.4c7.5,1.5,14.9-1.1,22.6-1.1-6.6-4.9-15,.9-22.7-.8-6-1.4-8.6-5.3-12.5-10,6.1,3.3,14.8.6,21,3.3-5.5-7.7-16.8-1.1-23-8.2-3.2-3.1-5.9-7-7.5-11.5,1.7,1.3,3.9,2.8,6.2,3.4,4,.9,8,2.1,11.6,3.8-3.6-6.6-12.1-5.5-16.9-10.2-4.4-3.8-6-8.9-6.7-14.5,3.3,5.4,11.1,5.5,15,10.7-1.7-8.4-13.2-7.2-14.8-16-.5-2.9-.7-6.4-.2-9.2.6.7.6,2.1,1.3,3.1,2.6,4.2,7.4,6.6,9.8,11,.6-7-8.2-8.3-9.1-14.7-1.1-4.4-.5-8.8,0-13.1,1.3,6.3,4.9,11.1,8.4,16.3.7-7.2-7.4-10.4-6.8-17.6,0-3.8.7-7.2,2.1-10.4.6.9.3,2.5.7,3.6,2.4,5,3.2,10.5,4.5,15.9,2.2-6.4-1.3-12.1-2.9-17.9-.8-4.1.2-8.2,1.9-11.4,0,5.7,3,10.1,3.6,15.6h.3c.8-4.3-1.4-7.7-1.7-11.8-.9-5.2,1.1-9.9,3.2-13.8l.3.4c1.2,5.6.5,12.2,1,17.8l.4-.3c2.4-5.9-1.1-12.4,1-18.5.6-2.3,1.8-4.7,3.3-6.6-.3,5.6.2,12.1-.8,17.9,3.8-3.8,1.1-10.6,3.2-15.5.8-2.6,2.1-5.4,3.7-7.4.2,4.6.4,8.6-1,12.6,4.1-3.6.6-10.5,4.9-14.4l3.7-3.8c0,3-.8,6.1-2,8.8,3.2-3.8,4.8-11.2,11.5-11.6.2,2.4-1.3,4.1-2.4,6-2.6,3.1-6.6,4.3-9.3,7.9,3.1-1.9,6.4-4.6,10.2-4.8-1.6,5.9-8.2,8.2-13.5,10.5-1.2.8-1.8,1.8-2.4,2.8,2.5-2.3,6.2-3.3,9.7-3.8-2.4,4-6.8,7-11.6,8.3-1.7,1.2-2.3,2.3-3.2,4.1,3.4-2.5,7.7-4.6,11.9-5.9-2.1,4.2-5.4,9.2-10.5,9.8-3.1,0-4.8,2.2-5.9,4.7v.4c2.7-2.4,6.5-4.4,10.3-5,.3-.1.6-.1.8-.3-2.5,5.4-7.8,8.8-13,11-1.1,1-1.5,2.8-2,4.2,2.9-3,6.2-5.7,10.5-7.2l1.5-1.3c-.3,2-1.6,3.8-2.6,5.4-3,5.6-10.9,5.3-10.8,12.4,2.2-4.3,6.4-5.7,9.6-8.6-2,5.7-4.1,11.2-9.2,15-.8,1.8-1.6,3.7-1.1,5.9,1.4-4.8,5.3-8.5,8.7-12.2,1.1,6-1.2,11.7-5,15.9-1.7,1.7-2.6,3.9-2.5,6.4.6-.7,1.1-2,1.8-3.1,2.3-3.1,6.1-5.7,6.2-10,.9.5.2,1.5.6,2.3,2,7.1-4.7,12-5.4,18.5.1,1.8,1.1,3.2,1.9,4.7.2-6,2.2-11.2,4.5-16.2,2.6,5,3.7,12.2,1.3,17.8-.5,1.6-1.3,3.3-.7,5.1.8,1.9,1.9,3.7,3.1,5.3-1.5-5.9-.2-12.3.2-17.9,2.1,4.1,5.1,8.3,6.5,12.7h.5c-.8.2-.1.8-.1,1.2,1.3,4.3-.7,9.5,2.4,13.1,1.5,1.1,2.4,2.2,4.1,3-1.4-2.7-3.8-5.7-4.1-9.1-.1-3.3-.7-6.8-1.3-9.8,5.5,4.3,9.4,10.5,11.2,17.2,2.1,4.1,5.4,7.9,10.1,8.8-4.9-4.7-9.4-10.1-11.1-16.8l-1.4-2.1c6.2,2.7,13.2,7.2,16.2,14.1,2,4,5.6,7.8,10.7,7.8-5.7-4.4-10.5-10-13.5-16.6,6.6,4,16.7,4.4,20,12.6,1.7,2.5,2.2,6.3,5.4,7.2,4.6.8,8.9,2.6,13.3,3.6l11.3-3.4c3.5-3.9,5.5-9.1,10.1-12.8,4.3-3.8,9.7-5.7,15.1-6.8-3,6.3-8.6,11.3-12.8,16.8,6.7-1.2,9.1-7.2,11.8-12.5,3.6-4.7,8.3-8.3,13.5-10.5-2.1,7-4.9,13.6-10.8,18.9,3.4-.7,6.7-2.8,8.6-6,1.8-6.1,3.1-13.2,8.2-17.2l4.3-3.2c-.2,1-.6,2.3-1,3.5-.9,4.7-.8,9.8-2.8,14,7.3-2.5,2.9-10.7,4.6-16.4.5-5,3.5-9,6.9-12.5-.7,6,.9,12.7-.5,18.7,1.6-2.2,4.1-4.3,4.4-7.6-1.9-6.7-3.2-15.3.6-21.7,1,1.9,1.4,4.4,2.4,6.5,1.1,2.3,1.7,4.9,2.3,7.4,3.7-8.6-7.4-14.9-3.2-24.3,1.7,4.9,7.2,8.7,6.9,14.9,2.8-8.7-8.5-12.8-6-22l.5-1.7c3,3.9,6.6,7.4,7.7,12.4.5-9.2-9.4-12.6-9.6-21.9,4.6,2.1,7.8,6,10.3,10.4.1-5-4-8.1-7.7-10.4v-.3c-1-.3-2.2-2-3-3.1l-2.5-5.2.3-.1c4.6.9,8.2,4.9,11.5,7.9-2.3-8-12.6-7.3-14.3-15.8,2.7,2.7,7.1,3.4,10.4,4.9-1.7-5.6-8.9-3.5-11.8-8.1-.9-1.3-1.9-2.6-2.4-4,4.2.9,7.9,2.6,11.6,5.1-2.7-4.4-9.5-5.1-13.2-8.9-.6-1.2-1.7-2.1-2.2-3.4,4.2,0,7.6,2.3,10.7,4.6,0-.6-.7-1.5-1.1-2.2-3.6-3.8-11.4-2.8-13.2-8.7l-.8-2.9c2.6,3,5.9,3.6,9.1,5.1-2.9-4.4-8.7-5.3-10.4-10.6-.5-1.4-.9-3.2-1.3-4.4,6.4,2.5,10,8.5,12.7,14.4-.6-3.6-2.7-6.8-2.4-10.8,4.7,3.1,5.1,9.5,6.1,15,.6,1.2,1.2,2.6,1.9,3.7-1.5-4-1.7-8.6-.7-13.1.9.7,1.6,1.8,2.2,2.9,3.4,5.8-1,13.2,3.3,18.5-.2-3.1-1.4-6.9-.1-10.1.7-1.5,1-3.1,1.3-4.7h.5c2.7,5.6,2.5,13,.6,19,.2,1.3.4,2.8,1.1,3.9.5-5.6,1.8-11,2.5-16.4,4.2,5.6,2.9,14,.2,20.2-.2,1.4-.1,3,.4,4.3.6-6,3.9-10.8,5-16.6h.4c1.1,4.4,2.6,9.7.1,13.9-2.3,4.2-4.4,8.4-4.2,13.7,1.2-1.6,1.5-4.3,2.5-6.3,1.7-3.2,3-6.5,4.2-9.9,1.5,4,3,9.8.2,13.7-3.3,4.5-6.5,9.4-7,15.4h.2c2.4-6,6.2-11,10.1-15.8.1-.2,0-.7.4-.6-.3,5.6-.4,11.5-4.1,15.4-3.2,3-6.8,6.6-8,11.3,3.2-5.9,9.8-8.6,12.6-14.3.3,6.6-1.4,14-7.8,16.8-4,1.9-8.2,4.7-9.2,9.4,3.4-4.7,7.9-7,12.9-9.2l3.5-2.5c-.9,6.2-4.3,12.9-9.6,16.9-5.1,2.9-11.6,3.2-14.8,9,5.4-3.6,12.7-3.6,17.5-8.5h.3c-2.1,6-6.2,12.3-12.4,15.1-5.5,2.1-12.4.6-17,4.6,6.1-1.2,13.8-.3,19.5-3.1-3.9,5.3-10.2,11.4-18.3,10.4-5,.6-10.6-1.2-15,1.1,6.6-.4,13.1,2.3,19.6.8v.5c-4.3,6-12.5,7.8-20,6.1-5.5-2-11.9-4.2-17.9-1.8,7.4.3,14.1,2,20.2,5.2-5.9,2-11.8,4.2-18.3,3.6-4.4-.2-8.6-1.2-12.2-3.4-3.6-1.3-7,.8-10.3,1.5,4.1,2.1,9.2,3.9,13.5,6.3,2.6,1.6,5.6,3,8.1,5.1h0Z"/>
  <path class="cls-1" d="M106.9,14.4c16.1.6,31.2,4.2,45.3,9.8-4.8,40.9-22.6,78.4-50.7,106.8-1.1,1-2,2.4-3.1,2.8-23.7-23.3-39.2-54.9-47.3-87.4-1.5-7-2.6-14.1-3.3-21.5,14.6-6,31.5-9.8,47-10.6,3.8.1,8-.2,12.1.1h0Z"/>
  <path class="cls-3" d="M142.7,25.5l-17.3,14.6-51.8,43.2-3.3,2.6c-8.6-18.1-15.4-37.2-17.7-58.1,26.3-10.4,62.5-12.1,90.1-2.3h0Z"/>
  <path class="cls-1" d="M105,36.5h-22.2l-.1,7.5h16.3l.3,7.9h-16.8l-.3,16.8c-2.1,2.4-5.2,4.5-7.7,6.6h.2v.4h-.2l-.1-46.2-.1-.1c9.5-.5,20.5-.2,30.7-.3v7.4h0Z"/>
  <path class="cls-3" d="M124.7,75.5l-5.2,4.6c-2.7-1.1-5.5-2-8.2-3-.5,3.4.3,6.9.2,10.4l-3.8,3.3-1.4-23.3,4-3.6c.2,2.7,0,5.6.6,8.1,4.3-6.5,5-15.7,12.4-19.9l-9.3,19.5,10.7,3.9h0Z"/>
  <path class="cls-3" d="M100.7,78.1c.3,2.3-.2,4.5-1.1,6.5,1.2-.3,2.9-.2,3.4,1.3,1.4,9.2-6.7,15.4-12.7,20.6l-1.4-23.5c2.9-2.2,5.7-5.7,9.2-6.7,1.3-.4,2.4.7,2.6,1.8h0Z"/>
  <path class="cls-1" d="M97,83c.2,2.6-1.7,4.3-3.4,6-.3-1.7-.4-3.8-.3-5.7.9-.7,3.8-3.6,3.7-.3h0Z"/>
  <path class="cls-1" d="M99.3,90.2c.3,4-2.7,6.5-5.2,8.8l-.4-6.1c1.7-1.2,3-3.3,5.2-3l.4.3h0Z"/>
  <path class="cls-1" d="M47.9,154.7h26.4c.7,0,1.4.1,2.1.1,3.6,0,45.7-.1,45.7-.1h26.3v3c8.1.2,16.8-.1,25,.2-4.2,2.5-8.7,4.6-13.1,7.2l12,7.3-.4.3h-40.3l-.2-.3,14-3.7-12.5-.2H52.2l.5.4c3.8,1.2,7.6,2.5,11.4,3.9l-.4.2H23.8c3.6-2.6,7.2-4.4,10.9-6.9l-1.5-1.5c-3.2-2.1-6.8-4-10.3-6.1,7.9-.5,16.9-.1,24.9-.4.3-1,.2-2.4.1-3.4h0Z"/>
  <polygon class="cls-3" points="54.1 164.9 56.7 164.9 56.7 163.1 57.4 162.4 59.4 164.9 62.6 164.9 59.1 161 62.1 158.5 59 158.5 56.7 160.7 56.7 160.7 56.7 158.5 54.1 158.5 54.1 164.9"/>
  <path class="cls-4" d="M69.7,162.7l.8-2h0l.7,2h-1.5ZM66.2,164.9h2.6l.4-.9h2.6l.3.9h2.6l-3-6.4h-2.5l-3,6.4h0Z"/>
  <path class="cls-4" d="M79.8,164.9h2.5v-2.2h1.4c1,0,1.1.6,1.1,1.2,0,.3.1.7.2,1h2.5c-.2-.3-.2-1.1-.3-1.4-.1-.8-.5-1.4-1.2-1.6.8-.2,1.2-.9,1.2-1.6,0-1.2-1.2-1.8-2.7-1.8h-4.8v6.4h.1ZM82.3,160.1h1.2c1,0,1.3.2,1.3.6,0,.6-.6.6-1.1.6h-1.3l-.1-1.2h0Z"/>
  <polygon class="cls-3" points="91.6 164.9 97.8 164.9 97.8 163.3 94.1 163.3 94.1 158.5 91.6 158.5 91.6 164.9"/>
  <path class="cls-3" d="M100.8,162.8c0,2,2.7,2.3,3.6,2.3,1.8,0,3.8-.5,3.8-2.2,0-1.2-1.2-1.6-2.3-1.8-1.2-.3-2.3-.3-2.4-.8,0-.4.6-.4.9-.4s.5,0,.8.2c.2.1.3.3.3.5h2.4c-.1-1.6-1.7-2.1-3.4-2.1s-3.3.6-3.3,2.1c0,1.3,1.5,1.6,2.8,1.9,1.4.3,1.8.4,1.8.7,0,.5-.6.6-1.1.6s-1-.1-1.2-.5c-.1-.1-.1-.3-.1-.4h-2.6v-.1h0Z"/>
  <polygon class="cls-3" points="112.7 164.9 115.2 164.9 115.2 160.2 117.5 160.2 117.5 158.5 110.4 158.5 110.4 160.2 112.7 160.2 112.7 164.9"/>
  <path class="cls-4" d="M125,162.7l.8-2h0l.7,2h-1.5ZM121.5,164.9h2.6l.4-.9h2.6l.3.9h2.6l-3-6.4h-2.5l-3,6.4h0Z"/>
  <path class="cls-4" d="M135,164.9h3.7c2.9,0,4.2-1.2,4.2-3.2,0-1.6-1-3.2-3.7-3.2h-4.2v6.4h0ZM137.6,160.2h.8c1.8,0,2,1.1,2,1.5,0,.6-.2,1.6-1.8,1.6h-1v-3.1h0Z"/>
</svg>