<?xml version="1.0" encoding="UTF-8"?>
<svg id="Layer_1" data-name="Layer 1" xmlns="http://www.w3.org/2000/svg" viewBox="0 0 299 299">
  <defs>
    <style>
      .cls-1 {
        fill: #00573f;
      }

      .cls-1, .cls-2, .cls-3 {
        stroke-width: 0px;
      }

      .cls-2 {
        fill: #fff;
      }

      .cls-3 {
        fill: #c8102e;
      }
    </style>
  </defs>
  <g id="b">
    <g id="c">
      <g>
        <circle id="d" class="cls-2" cx="149.5" cy="149.5" r="145.4"/>
        <circle id="e" class="cls-1" cx="149.5" cy="149.5" r="99.4"/>
        <path id="f" class="cls-2" d="M217.7,87.6c6.2,6.8,11.3,14.4,15.2,22.7v39.5c-5-1.1-10.1-2.1-15.2-3.1v-59.1ZM187.4,142.4c5.1.5,10.1,1.1,15.2,1.8v-70.1c-4.8-3.4-9.8-6.3-15.2-8.7v77ZM157.1,140.6c5.1.1,10.1.3,15.2.6V60.2c-5-1.3-10-2.1-15.2-2.5v82.9ZM126.8,141.2c5.1-.3,10.1-.5,15.2-.6V57.6c-5.1.4-10.2,1.2-15.2,2.5v81.1ZM96.4,144.2c5-.7,10.1-1.3,15.2-1.8v-76.9c-5.3,2.4-10.4,5.3-15.2,8.7v70h0ZM66.1,149.7c5-1.1,10.1-2.1,15.2-3.1v-59.1c-6.2,6.8-11.3,14.4-15.2,22.7v39.5Z"/>
        <path id="g" class="cls-3" d="M232.9,163.5l-.8-.2c-27.1-6.2-54.9-9.4-82.6-9.4s-55.6,3.1-82.7,9.4l-.8.2v-6.9c27.3-6.2,55.4-9.4,83.4-9.4s56.1,3.2,83.4,9.4v6.9h.1Z"/>
        <g id="h">
          <g>
            <g>
              <path class="cls-1" d="M93.9,244.9l2.4-.8,6.7,3.5.8,2.4-2.1,4-3.2-1.7,1.1-2.1-.2-.6-2.7-1.4-.6.2-6.3,12.3.2.6,2.7,1.4.6-.2,2-3.9-1.6-.8,1.6-3.2,4.8,2.5-4.6,9-2.4.8-6.7-3.5-.8-2.4,8.3-16.1h0Z"/>
              <path class="cls-1" d="M93,267h0l-6.8-3.5-.8-2.4h0l8.3-16.1,2.4-.8h0l6.7,3.5.8,2.4h0l-2.1,4h-.1l-3.3-1.7,1.1-2.1-.2-.5-2.6-1.4-.5.2-6.3,12.2.2.5,2.6,1.4.5-.2,1.9-3.8-1.6-.8h0l1.6-3.2,4.9,2.5h0l-4.6,9-2.1.8h0ZM86.4,263.4l6.7,3.5,2.3-.8,4.6-8.9-4.7-2.4-1.6,3.1,1.6.8-2,3.9-.6.2h0l-2.7-1.4-.2-.6h0l6.4-12.3.6-.2h0l2.7,1.4.2.6h0l-1.1,2.1,3.1,1.6,2-3.9-.8-2.3-6.7-3.4-2.3.8-8.3,16.1.8,2.1h0Z"/>
            </g>
            <g>
              <path class="cls-1" d="M111.8,272.4l-2.2,1.1-6.9-2.4-1.1-2.2,6-17.1,2.2-1.1,6.9,2.4,1.1,2.2-6,17.1ZM110.8,254.7l-.5.2-4.6,13.1.2.5,2.6.9.5-.2,4.6-13.1-.3-.5-2.5-.9h0ZM114.5,246.8l-.6,1.8-1.1.5-1.8-.6-.5-1.1.6-1.8,1.1-.5,1.8.6.5,1.1h0ZM119,248.3l-.6,1.8-1.1.5-1.8-.6-.5-1.1.6-1.8,1.1-.5,1.8.6.5,1.1h0Z"/>
              <path class="cls-1" d="M109.6,273.5h0l-6.9-2.4h0l-1.1-2.3,6-17.2,2.3-1.1h0l6.9,2.4,1.1,2.3-6,17.2-2.3,1.1ZM102.8,271l6.8,2.4,2.2-1.1,6-17.1-1.1-2.2-6.8-2.4-2.2,1.1-6,17.1,1.1,2.2h0ZM108.6,269.5h0l-2.6-.9-.3-.5,4.6-13.1.6-.3h0l2.6.9.3.6h0l-4.6,13.1-.6.2h0ZM106,268.4l2.5.9.5-.2,4.6-13-.2-.5-2.5-.9-.5.2-4.6,13,.2.5h0ZM117.3,250.7h0l-1.9-.7-.6-1.1.7-1.9,1.1-.6h0l1.8.7h0l.5,1.1-.7,1.9-.9.6h0ZM115.5,250l1.8.6,1-.5.6-1.8-.5-1-1.8-.6-1.1.5-.5,1.8.5,1h0ZM112.8,249.2h0l-1.9-.7-.5-1.1.7-1.9,1.1-.6,1.9.7h0l.5,1.1-.7,1.9-1.1.6h0ZM111,248.4l1.8.6,1-.5.6-1.8-.5-1-1.8-.6-1,.5-.6,1.8.5,1h0Z"/>
            </g>
            <g>
              <path class="cls-1" d="M128.4,259.5l-3.7,17.8-3.6-.7,3.7-17.8-3.8-.8.7-3.4,11.2,2.3-.7,3.4-3.8-.8h0Z"/>
              <path class="cls-1" d="M124.8,277.3h0l-3.7-.8v-.1l3.7-17.7-3.8-.8v-.1l.7-3.5h.1l11.3,2.3v.1l-.7,3.5h-.1l-3.8-.8c-.1.1-3.7,17.9-3.7,17.9ZM121.2,276.5l3.4.7,3.7-17.8h.1l3.8.8.7-3.3-11.1-2.3-.7,3.3,3.8.8v.1l-3.7,17.7Z"/>
            </g>
            <g>
              <path class="cls-1" d="M136.3,257.2l10.4.7-.2,3.5-6.7-.5-.4,5.4,5,.4-.2,3.5-5-.4-.4,5.8,6.7.5-.2,3.5-10.4-.7,1.4-21.7Z"/>
              <path class="cls-1" d="M145.1,279.6h0l-10.5-.8v-.1l1.6-21.7h.1l10.4.8v.1l-.3,3.6h-.1l-6.7-.5-.4,5.3,5,.4v.1l-.3,3.6-5-.4-.4,5.6,6.7.5v.1l-.1,3.4h0ZM134.8,278.8l10.2.7.2-3.4-6.7-.5v-.1l.4-5.8,5,.4.2-3.4-5-.4v-.1l.4-5.4h.1l6.7.5.2-3.4-10.2-.7-1.5,21.6h0Z"/>
            </g>
            <g>
              <path class="cls-1" d="M161.5,259.1l.4,7.1-1.7,1.9,1.9,1.7.5,7.5-1.7,1.9-9.2.6-1.3-21.6,9.2-.6,1.9,1.5h0ZM158.3,266l-.3-4.6-.4-.4-3.3.2.3,5.4,3.3-.2.4-.4h0ZM154.9,270.1l.4,5.7,3.3-.2.4-.5-.3-4.9-.4-.4-3.4.3Z"/>
              <path class="cls-1" d="M151.7,279.7h0l-1.3-21.8h.1l9.2-.6h0l1.9,1.7h0l.4,7.1h0l-1.6,1.8,1.9,1.6h0l.5,7.5h0l-1.7,1.9h0l-9.4.8h0ZM150.5,258l1.3,21.5,9.1-.6,1.6-1.8-.5-7.5-1.9-1.7,1.7-1.9-.4-7-1.8-1.6-9.1.6h0ZM155.2,275.9h0l-.4-5.8,3.4-.2.5.4h0l.3,4.9-.4.5h0l-3.4.2h0ZM154.9,270.2l.3,5.6,3.2-.2.3-.4-.3-4.9-.4-.3-3.1.2h0ZM154.6,266.7l-.3-5.6,3.4-.2.5.4.3,4.6-.4.5h0l-3.5.3h0ZM154.4,261.3l.3,5.3,3.2-.2.3-.4-.3-4.5-.4-.4-3.1.2Z"/>
            </g>
            <g>
              <path class="cls-1" d="M180,274.2l-1.4,2.1-7.2,1.5-2.1-1.4-3.6-17.8,1.4-2.1,7.2-1.4,2.1,1.4,3.6,17.7ZM170,259.5l-.3.5,2.7,13.6.5.3,2.7-.5.3-.5-2.7-13.6-.5-.3-2.7.5h0Z"/>
              <path class="cls-1" d="M171.4,277.8h0l-2.1-1.4h0l-3.6-17.8h0l1.4-2.1h0l7.2-1.5h0l2.1,1.4h0l3.6,17.8h0l-1.4,2.1h0l-7.2,1.5h0ZM169.4,276.3l2,1.4,7.1-1.4,1.4-2-3.6-17.7-2-1.4-7.1,1.4-1.4,2,3.6,17.7h0ZM172.9,273.9l-.5-.3h0l-2.8-13.6.3-.5h0l2.7-.5.5.3h0l2.8,13.6-.4.5-2.6.5h0ZM172.5,273.5l.4.3,2.6-.5.3-.4-2.7-13.5-.5-.3-2.6.5-.3.4,2.8,13.5h0Z"/>
            </g>
            <g>
              <path class="cls-1" d="M180,253.5l8.8-3.1,2.3,1.1,3.2,9.2-1.1,2.3,4.5,7.4-3.4,1.2-4.5-7.4-2.1.7,2.8,8-3.4,1.2-7.1-20.6h0ZM190.2,259.8l-1.8-5.1-.5-.2-3.3,1.2,2.1,5.8,3.3-1.2.2-.5Z"/>
              <path class="cls-1" d="M187.2,274.1h0l-7.2-20.6h.1l8.9-3.1,2.3,1.1h0l3.2,9.2-1.1,2.2,4.5,7.4h-.1l-3.4,1.2-4.5-7.4-1.9.7,2.8,8h-.1l-3.5,1.3h0ZM180.1,253.6l7.2,20.3,3.3-1.2-2.8-8h.1l2.1-.7,4.5,7.4,3.2-1.1-4.5-7.3h0l1.1-2.2-3.2-9.1-2.2-1.1-8.8,3h0ZM186.6,261.6h0l-2.1-6h.1l3.3-1.2.6.3h0l1.8,5.1-.2.6h0l-3.5,1.2h0ZM184.7,255.7l2,5.7,3.2-1.1.2-.5-1.8-5-.5-.2-3.1,1.1h0Z"/>
            </g>
            <g>
              <path class="cls-1" d="M194.9,249.8l.8-2.4,6.7-3.5,2.4.8,2.1,4-3.2,1.7-1.1-2.1-.6-.2-2.7,1.4-.2.6,6.4,12.3.6.2,2.7-1.4.2-.6-2-3.9-1.5.8-1.7-3.1,4.8-2.5,4.6,9-.8,2.4-6.7,3.5-2.4-.8-8.4-16.2h0Z"/>
              <path class="cls-1" d="M205.6,266.8l-2.4-.8h0l-8.4-16.1.8-2.4h0l6.7-3.5,2.4.8h0l2.1,4-3.3,1.7-1.1-2.1-.5-.2-2.6,1.4-.2.5,6.4,12.2.5.2,2.6-1.4.1-.5-2-3.8-1.5.8-1.7-3.3h.1l4.8-2.5v.1l4.7,9-.8,2.4h0l-6.7,3.5h0ZM203.3,265.9l2.3.7,6.7-3.5.7-2.3-4.6-8.9-4.7,2.4,1.6,3.1,1.6-.8,2,3.9-.2.6h0l-2.7,1.4-.6-.2h0l-6.4-12.3.2-.6h0l2.7-1.4h0l.6.2h0l1.1,2.1,3.1-1.6-2-3.9-2.3-.7-6.7,3.5-.7,2.3,8.3,16h0Z"/>
            </g>
          </g>
          <g>
            <g>
              <path class="cls-1" d="M30.5,105.4l-2.1,6.4,5.3,1.7,1.5-4.8,3.3,1.1-1.5,4.8,8.7,2.8-1.1,3.4-20.6-6.6,3.2-9.9,3.3,1.1h0Z"/>
              <path class="cls-1" d="M44.6,120.9h0l-20.7-6.7v-.1l3.2-9.9h.1l3.4,1.1v.1l-2.1,6.4,5.2,1.7,1.5-4.8h.1l3.4,1.1v.1l-1.5,4.7,8.7,2.8v.1l-1.3,3.4h0ZM24,114.1l20.5,6.6,1.1-3.3-8.7-2.8v-.1l1.5-4.7-3.2-1-1.5,4.8h-.1l-5.4-1.7v-.1l2.1-6.4-3.2-1-3.1,9.7h0Z"/>
            </g>
            <g>
              <path class="cls-1" d="M29.6,98.2l4-8.4,2.4-.8,8.7,4.2.8,2.4,8.4,2.1-1.5,3.2-8.4-2.1-.9,1.9,7.6,3.7-1.6,3.3c0-.1-19.5-9.5-19.5-9.5ZM41.2,95.5l-4.8-2.3-.5.2-1.5,3.1,5.6,2.7,1.5-3.1-.3-.6h0Z"/>
              <path class="cls-1" d="M49.2,107.7l-19.6-9.4,4.1-8.5h0l2.4-.8h0l8.8,4.2h0l.8,2.3,8.4,2.1-1.6,3.3h0l-8.3-2.1-.9,1.9,7.6,3.7-1.7,3.3h0ZM29.7,98.2l19.4,9.3,1.5-3.2-7.6-3.7,1-2.1h0l8.3,2.1,1.5-3.1-8.3-2.1-.8-2.4-8.7-4-2.3.8-4,8.4h0ZM40,99.3l-5.7-2.7,1.5-3.2.6-.2,4.9,2.3.2.6s-1.5,3.2-1.5,3.2ZM34.4,96.5l5.5,2.6,1.5-3.1-.2-.5-4.8-2.3-.5.2s-1.5,3.1-1.5,3.1Z"/>
            </g>
            <g>
              <path class="cls-1" d="M36.2,75.3l1.6,1.1.2,1.2-1,1.6-1.2.2-1.6-1.1-.2-1.1,1.1-1.6,1.1-.3h0ZM38.9,71.4l1.6,1.1.2,1.2-1.1,1.6-1.2.2-1.6-1.1-.2-1.2,1.1-1.6,1.2-.2ZM60.4,84.2l.5,2.4-4,6.1-2.5.5-15.1-10-.5-2.4,4-6.1,2.5-.5,15.1,10ZM43,80.8l.1.6,11.6,7.6.5-.1,1.5-2.3-.1-.6-11.5-7.7-.6.1-1.5,2.4h0Z"/>
              <path class="cls-1" d="M54.4,93.3h0l-15.1-10.1-.5-2.5h0l4.1-6.1,2.5-.5h0l15.1,10.1.5,2.5h0l-4.1,6.1-2.5.5ZM39.4,83.1l15.1,10,2.4-.5,4-6-.5-2.4-15.1-10-2.4.5-4,6,.5,2.4ZM54.6,89.1h0l-11.6-7.7v-.6l1.5-2.3.6-.2h0l11.6,7.7.1.6-1.6,2.4-.6.1ZM43.2,81.3l11.5,7.7.5-.1,1.5-2.2-.1-.5-11.5-7.6-.5.1-1.5,2.2c0-.1.1.4.1.4ZM35.9,79.5l-1.7-1.1-.3-1.2h0l1.1-1.6,1.2-.2,1.7,1.1.2,1.2-1.1,1.7-1.1.1h0ZM34.3,78.3l1.6,1.1,1.1-.2,1-1.6-.2-1.1-1.6-1.1-1.1.2-1,1.6.2,1.1ZM38.5,75.5h0l-1.7-1.1-.2-1.2,1.1-1.7,1.2-.2,1.7,1.1.2,1.2-1.1,1.7-1.2.2ZM36.9,74.4l1.6,1.1,1.1-.2,1-1.6-.2-1.1-1.6-1.1-1.1.2-1,1.6.2,1.1h0Z"/>
            </g>
            <g>
              <path class="cls-1" d="M64.5,81.8l-16.3-14.2,2.4-2.8,13.7,11.9,4.2-4.8,2.6,2.3-6.6,7.6h0Z"/>
              <path class="cls-1" d="M64.5,81.9h0l-16.4-14.3,2.5-2.8h0l13.7,11.9,4.2-4.8,2.7,2.4v.1l-6.7,7.5h0ZM48.3,67.6l16.2,14.2,6.5-7.4-2.6-2.2-4.2,4.8h-.1l-13.5-12.1-2.3,2.7Z"/>
            </g>
            <g>
              <path class="cls-1" d="M80.3,65.9l-5.5,4.8-2.5-.2-13.2-14.9,2.7-2.4,11.8,13.3h.6l2.1-1.8v-.6l-11.7-13.2,2.7-2.4,13.2,14.9c-.1,0-.2,2.5-.2,2.5Z"/>
              <path class="cls-1" d="M74.8,70.8h0l-2.5-.2h0l-13.2-15,2.8-2.5h0l11.7,13.3h.5l2.1-1.8v-.5l-11.7-13.3,2.8-2.5h0l13.2,15h0l-.2,2.5h0l-5.5,5h0ZM72.3,70.5l2.4.2,5.4-4.8.2-2.5-13-14.8-2.6,2.3,11.7,13.3v.6h0l-2.1,1.9h-.6l-11.9-13.4-2.6,2.3,13.1,14.9h0Z"/>
            </g>
            <g>
              <path class="cls-1" d="M73,44.1l3.3-2.1,11.2,8.5-7.3-11.1,3-2,11.9,18.2-3.3,2.1-11.2-8.5,7.3,11.1-3,2c0-.1-11.9-18.2-11.9-18.2Z"/>
              <path class="cls-1" d="M84.8,62.3l-11.9-18.3,3.4-2.2h0l10.9,8.3-7.1-10.9,3.1-2,11.9,18.2-3.4,2.2h0l-10.9-8.3,7.2,10.9-3.2,2.1ZM73.1,44.1l11.8,18,2.9-1.9-7.4-11.4,11.5,8.7,3.2-2.1-11.8-18-2.9,1.9,7.4,11.4-11.5-8.7-3.2,2.1Z"/>
            </g>
            <g>
              <path class="cls-1" d="M100.3,30.9l7.6,16.5-.9,2.3-8.3,3.9-9.1-19.7,8.3-3.9s2.4.9,2.4.9ZM103.6,46.9l-5.8-12.5-.5-.2-2.9,1.4,6.2,13.3,2.9-1.4.1-.6Z"/>
              <path class="cls-1" d="M98.7,53.7h0l-9.2-19.8h.1l8.4-3.9h0l2.4.9h0l7.7,16.5h0l-.9,2.4h0l-8.5,3.9h0ZM89.7,33.9l9.1,19.6,8.3-3.8.8-2.3-7.6-16.4-2.3-.8c-.1-.1-8.4,3.7-8.3,3.7ZM100.5,48.9h0l-6.2-13.4,3-1.4.6.2h0l5.8,12.6-.2.6-3,1.4h0ZM94.4,35.5l6.1,13.2,2.8-1.3.2-.5-5.8-12.5-.5-.2c.1,0-2.8,1.3-2.8,1.3Z"/>
            </g>
            <g>
              <path class="cls-1" d="M114.3,42.1l.4,4.8-3.6,1.1-1.4-22.2,3.4-1,11.2,19.3-3.6,1.1-2.3-4.2-4.1,1.1h0ZM113.3,31.1l.7,7.4,2.9-.9-3.6-6.5h0Z"/>
              <path class="cls-1" d="M111.1,48h0l-1.4-22.4,3.5-1h0l11.2,19.3-3.7,1.1h0l-2.3-4.2-4.2,1.3.4,4.8h-.1l-3.4,1.1h0ZM109.8,25.7l1.3,22.1,3.4-1-.4-4.8h.1l4.3-1.3h0l2.3,4.2,3.4-1-11.1-19.2-3.3,1h0ZM113.9,38.6l-.7-7.8,3.7,6.9-3,.9ZM113.4,31.4l.6,7.1,2.8-.8-3.4-6.3h0Z"/>
            </g>
            <g>
              <path class="cls-1" d="M139.2,28.9l4.1-.3-.6-8.9,3.6-.2,1.4,21.6-3.6.2-.6-9.2-4.1.3.6,9.2-3.6.2-1.4-21.6,3.6-.2c.1,0,.6,8.9.6,8.9Z"/>
              <path class="cls-1" d="M136.4,41.9h0l-1.4-21.7,3.7-.2h0l.6,8.9,3.9-.2-.6-8.9,3.7-.2v.1l1.4,21.7-3.7.2v-.1l-.6-9.1-3.9.2.6,9.2c0-.1-3.7.1-3.7.1ZM135.1,20.3l1.4,21.5,3.5-.2-.6-9.2,4.2-.3v.1l.6,9.1,3.5-.2-1.4-21.5-3.5.2.6,8.9-4.2.3v-.1l-.6-8.9c0,.1-3.5.3-3.5.3Z"/>
            </g>
            <g>
              <path class="cls-1" d="M162.9,40.2l-1.9,1.6-7.3-.5-1.6-1.9,1.4-18.1,1.9-1.6,7.3.5,1.6,1.9-1.4,18.1ZM157.3,23.4l-.4.4-1,13.8.4.4,2.7.2.5-.4,1-13.8-.4-.4-2.8-.2h0Z"/>
              <path class="cls-1" d="M161,41.9l-7.3-.5h0l-1.6-1.9h0l1.4-18.1,1.9-1.7,7.3.5h0l1.6,1.9h0l-1.4,18.1-1.9,1.7ZM153.7,41.3l7.2.5,1.9-1.6,1.4-18-1.6-1.9-7.2-.5-1.9,1.6-1.4,18.1c0-.1,1.6,1.8,1.6,1.8ZM158.9,38.2h0l-2.8-.2-.4-.5h0l1-13.8.5-.4,2.8.2.4.5h0l-1,13.8-.5.4h0ZM156.2,37.9l2.7.2.4-.3,1-13.8-.4-.4-2.7-.2-.4.3-1,13.8.4.4Z"/>
            </g>
            <g>
              <path class="cls-1" d="M171,23.1l2.1-1.4,7.1,1.5,1.4,2.1-.9,4.4-3.5-.8.5-2.2-.3-.5-2.7-.6-.5.3-2.9,13.5.3.5,2.7.6.5-.3.5-2.2,3.5.8-.9,4.4-2.1,1.4-7.1-1.5-1.4-2.1,3.7-17.9h0Z"/>
              <path class="cls-1" d="M175.7,44.6h0l-7.2-1.5h0l-1.4-2.1h0l3.8-17.8h0l2.1-1.4h0l7.2,1.5h0l1.4,2.1h0l-1,4.4-3.7-.8.5-2.3-.3-.5-2.6-.6-.5.3-2.9,13.4.3.5,2.6.6.5-.3.5-2.3,3.7.8-1,4.5-2,1.5h0ZM168.6,42.9l7.1,1.5,2.1-1.3.9-4.3-3.4-.7-.5,2.2-.6.4h0l-2.7-.6-.4-.5h0l2.9-13.5.6-.4h0l2.7.6.4.5-.5,2.2,3.4.7.9-4.3-1.3-2.1-7.1-1.5-2.1,1.3-3.8,17.7,1.4,2.1h0Z"/>
            </g>
            <g>
              <path class="cls-1" d="M193,50.3l-3.7-1.4-.4-8.7-2.7,2.3-1.7,4.5-3.4-1.2,7.5-20.3,3.4,1.2-3.4,9.3,8.2-7.5,3.8,1.4-8.2,7.2.6,13.2h0Z"/>
              <path class="cls-1" d="M193.1,50.4h0l-3.8-1.4h0l-.4-8.6-2.6,2.3-1.7,4.6-3.5-1.3v-.1l7.5-20.4,3.5,1.3v.1l-3.3,9.1,8.1-7.4,3.9,1.4-.1.1-8.2,7.2.6,13.1h0ZM189.4,48.9l3.6,1.3-.7-13.1h0l8.1-7.1-3.6-1.3-8.4,7.7.1-.2,3.4-9.2-3.2-1.2-7.5,20.2,3.2,1.2,1.7-4.5h0l2.8-2.4v.1l.5,8.5h0Z"/>
            </g>
            <g>
              <path class="cls-1" d="M206.1,32.6l9.1,4.9-1.7,3.1-6-3.2-2.6,4.8,4.4,2.4-1.7,3.1-4.4-2.4-2.7,5.1,6,3.2-1.7,3.1-9.1-4.9,10.4-19.2h0Z"/>
              <path class="cls-1" d="M205,56.7h0l-9.3-5h0l10.3-19.2h.1l9.2,4.9h0l-1.7,3.2h-.1l-5.9-3.2-2.5,4.7,4.4,2.4h0l-1.7,3.2h-.1l-4.4-2.3-2.7,5,6,3.2h0l-1.6,3.1h0ZM195.9,51.7l9.1,4.8,1.6-3-6-3.2h0l2.8-5.1h.1l4.4,2.3,1.6-3-4.4-2.4h0l2.6-4.8h.1l5.9,3.2,1.6-3-9.1-4.8-10.3,19h0Z"/>
            </g>
            <g>
              <path class="cls-1" d="M210.9,60.6l4.4-6.1,4.2-14.4,3.2,2.3-3,9,7.6-5.7,3.2,2.3-12.3,8.6-4.4,6.1-2.9-2.1h0Z"/>
              <path class="cls-1" d="M213.8,62.8h0l-3-2.2,4.4-6.2,4.2-14.4h.1l3.2,2.3h0l-3,8.8,7.5-5.6h0l3.3,2.3-12.4,8.6-4.3,6.4h0ZM211,60.6l2.8,2,4.4-6.1,12.2-8.5-3.1-2.2-7.7,5.8,3.1-9.2-3.1-2.2-4.2,14.3-4.4,6.1h0Z"/>
            </g>
            <g>
              <path class="cls-1" d="M241.8,60.8l2.5.2,4.8,5.5-.1,2.5-3.4,3-2.4-2.7,1.7-1.5v-.6l-1.8-2.1h-.6l-10.3,9.1v.6l1.8,2.1h.6l1.7-1.5,2.4,2.7-3.4,3-2.5-.2-4.8-5.5.2-2.5,13.6-12.1h0Z"/>
              <path class="cls-1" d="M235.4,81h0l-2.5-.2h0l-4.9-5.5h0l.2-2.5h0l13.6-12h0l2.5.2h0l4.9,5.5h0l-.2,2.5h0l-3.4,3-2.5-2.8,1.7-1.5v-.6l-1.8-2h-.6l-10.3,9.1v.6l1.8,2h.6l1.7-1.5,2.5,2.8-3.3,2.9h0ZM232.9,80.7l2.4.2,3.3-2.9-2.3-2.6-1.7,1.5h-.6l-1.8-2.1v-.7h0l10.3-9.1h.6l1.8,2.1v.7h0l-1.7,1.5,2.3,2.6,3.3-2.9.1-2.4-4.8-5.4-2.4-.2-13.6,12-.1,2.4,4.9,5.3h0Z"/>
            </g>
            <g>
              <path class="cls-1" d="M236.4,85.3l18-12.1,2,3-15.1,10.2,3.5,5.2-2.9,2-5.5-8.3h0Z"/>
              <path class="cls-1" d="M242,93.7h0l-5.6-8.4,18.1-12.2v.1l2.1,3.1-15.1,10.2,3.5,5.2-3,2h0ZM236.5,85.3l5.5,8.2,2.8-1.9-3.5-5.2,15.1-10.2-2-2.9-17.9,12h0Z"/>
            </g>
            <g>
              <path class="cls-1" d="M247.8,104.6l-3.3-6.5.8-2.4,17.8-8.9,1.6,3.2-15.9,8-.2.5,1.2,2.5.5.2,15.9-7.9,1.6,3.2-17.8,8.9-2.2-.8h0Z"/>
              <path class="cls-1" d="M250.1,105.5h0l-2.4-.8h0l-3.3-6.6h0l.8-2.4h0l17.9-8.9v.1l1.6,3.3h0l-15.9,7.9-.2.5,1.2,2.5.5.2,15.9-7.9v.1l1.6,3.3h0l-17.7,8.7h0ZM247.8,104.6l2.3.8,17.8-8.8-1.6-3.1-15.9,7.9-.6-.2h0l-1.3-2.5.2-.6h0l15.9-7.9-1.6-3.1-17.8,8.8-.8,2.3,3.4,6.4h0Z"/>
            </g>
            <g>
              <path class="cls-1" d="M272.5,114.1l-6.7,2.2-2.2-1.1-1.1,2.2-7.1,2.4-2.2-1.1-2.9-8.7,20.6-6.9,2.9,8.7-1.3,2.3h0ZM260.1,110.6l-5.4,1.8,1.1,3.1.5.2,4.6-1.6.2-.5-1-3h0ZM265,112.8l4.4-1.5.3-.5-1-3.1-5.2,1.7,1,3.1.5.3h0Z"/>
              <path class="cls-1" d="M255.3,120l-2.3-1.1h0l-2.9-8.8h.1l20.6-6.9v.1l2.9,8.8h0l-1.1,2.3h0l-6.7,2.3-2.2-1.1-1.1,2.2h0l-7.3,2.2h0ZM253.1,118.8l2.2,1.1,7.1-2.4,1.1-2.3,2.3,1.1,6.7-2.2,1.1-2.2-2.9-8.7-20.4,6.8,2.8,8.8h0ZM256.2,115.8l-.6-.3h0l-1.1-3.2h.1l5.5-1.8v.1l1.1,3.2-.3.6h0l-4.7,1.4h0ZM255.8,115.5l.5.2,4.6-1.5.2-.5-1-3.1-5.3,1.8,1,3.1h0ZM265,112.9l-.6-.3h0l-1.1-3.2h.1l5.2-1.8v.1l1.1,3.2-.3.6-4.4,1.4h0ZM264.5,112.6l.5.2,4.3-1.4.3-.5-1-3.1-5,1.7.9,3.1h0Z"/>
            </g>
          </g>
        </g>
        <polygon id="i" class="cls-2" points="205.8 165.1 177.4 165.1 149.5 219.5 121.6 165.1 93.2 165.1 97.9 174.3 116.2 174.3 119.9 181.6 101.6 181.6 106.4 191.1 124.9 191.1 147.4 234.5 151.6 234.5 174.1 191.1 192.6 191.1 197.4 181.6 179.1 181.6 182.8 174.3 201.1 174.3 205.8 165.1"/>
        <path id="j" class="cls-3" d="M149.5,10.8c76.6,0,138.7,62.1,138.7,138.7s-62.1,138.7-138.7,138.7S10.8,226.1,10.8,149.5,72.9,10.8,149.5,10.8M149.5,5.5c-19.4,0-38.3,3.8-56.1,11.3-17.2,7.2-32.5,17.6-45.8,30.9-13.1,13.2-23.5,28.6-30.8,45.8-7.5,17.8-11.3,36.6-11.3,56.1s3.8,38.3,11.3,56.1c7.2,17.1,17.6,32.5,30.9,45.8,13.2,13.2,28.6,23.6,45.8,30.9,17.8,7.5,36.6,11.3,56.1,11.3s38.3-3.8,56.1-11.3c17.1-7.2,32.5-17.6,45.8-30.9,13.2-13.2,23.6-28.6,30.9-45.8,7.5-17.8,11.3-36.6,11.3-56.1s-3.8-38.3-11.3-56.1c-7.2-17.2-17.6-32.5-30.9-45.8-13.2-13.2-28.6-23.6-45.8-30.9-17.9-7.5-36.8-11.3-56.2-11.3h0Z"/>
        <path id="k" class="cls-1" d="M149.5,7.2c19.2,0,37.9,3.8,55.4,11.2,16.9,7.2,32.2,17.4,45.2,30.5,13.1,13.1,23.3,28.3,30.5,45.2,7.4,17.5,11.2,36.2,11.2,55.4s-3.8,37.9-11.2,55.4c-7.2,16.9-17.4,32.2-30.5,45.2-13.1,13.1-28.3,23.3-45.2,30.5-17.5,7.4-36.2,11.2-55.4,11.2s-37.8-3.8-55.4-11.2c-16.9-7.2-32.2-17.4-45.2-30.5-13.1-13.1-23.3-28.3-30.5-45.2-7.4-17.5-11.2-36.2-11.2-55.4s3.8-37.8,11.2-55.4c7.1-16.9,17.4-32.1,30.5-45.2,13.1-13.1,28.3-23.3,45.2-30.5,17.6-7.5,36.2-11.2,55.4-11.2M149.5,0C66.9,0,0,66.9,0,149.5s66.9,149.5,149.5,149.5,149.5-66.9,149.5-149.5S232.1,0,149.5,0h0Z"/>
      </g>
    </g>
  </g>
</svg>