<?xml version="1.0" encoding="UTF-8"?>
<svg id="Lager_1" data-name="Lager 1" xmlns="http://www.w3.org/2000/svg" viewBox="0 0 200 200.4">
  <defs>
    <style>
      .cls-1 {
        fill: #124a97;
      }

      .cls-1, .cls-2 {
        stroke: #ccdce5;
        stroke-linecap: round;
        stroke-linejoin: round;
        stroke-width: 1.77px;
      }

      .cls-1, .cls-2, .cls-3, .cls-4 {
        fill-rule: evenodd;
      }

      .cls-2, .cls-4 {
        fill: #fff;
      }

      .cls-5 {
        fill: none;
      }

      .cls-5, .cls-3, .cls-4 {
        stroke-width: 0px;
      }

      .cls-3 {
        fill: #e33125;
      }
    </style>
  </defs>
  <rect class="cls-5" y=".2" width="200" height="200"/>
  <g>
    <path class="cls-2" d="M18.5,1.2c-5.8,0-7.6,1.1-7.6,7.4l3.2,105.7c2.5,67.9,60.5,84.9,85.9,84.9s83.4-17,85.9-84.9l3.2-105.7c0-6.4-1.8-7.4-7.6-7.4H18.5Z"/>
    <path class="cls-1" d="M21.2,148.6c16.8,39.6,58.3,50.6,78.8,50.6s62.1-10.9,78.8-50.6c-5.3-3.1-7.8-6.6-14.3-6.6-10.4,0-13.8,8-27.8,8-16.8,0-17.9-11.1-36.8-11.1s-20,11.1-36.8,11.1c-14,0-17.3-8-27.8-8-6.3-.1-8.8,3.6-14.1,6.6h0Z"/>
    <polygon class="cls-4" points="55.5 160.7 51.4 160.7 51.4 157.5 63.1 157.5 63.1 160.7 59 160.7 59 181.1 55.5 181.1 55.5 160.7"/>
    <polygon class="cls-4" points="64.8 157.5 68.3 157.5 68.3 181.1 64.8 181.1 64.8 157.5"/>
    <polygon class="cls-4" points="71.7 157.5 75.1 157.5 79.6 170 79.7 170 84.2 157.5 87.6 157.5 87.6 181.1 84.1 181.1 84.1 166.7 84 166.7 80.5 176.9 78.8 176.9 75.3 166.7 75.3 166.7 75.3 181.1 71.7 181.1 71.7 157.5"/>
    <path class="cls-4" d="M90.8,157.5h5.7c4.2,0,6.2,2.3,6.2,6.9,0,2.7-.8,4.7-3,5.9l3.8,10.7h-3.7l-3.4-10h-2.1v10.1h-3.5v-23.6h0ZM94.3,168h2c2.5,0,2.8-1.3,2.8-3.7s-.4-3.7-3-3.7h-1.8v7.4h0Z"/>
    <path class="cls-4" d="M110.4,150.1c1.9,0,3.5,1.6,3.5,3.4,0,1.9-1.6,3.4-3.5,3.4s-3.5-1.6-3.5-3.4c0-1.9,1.6-3.4,3.5-3.4h0ZM110.4,155.5c1.2,0,2.1-.9,2.1-2s-.9-2-2.1-2-2.1.9-2.1,2,.9,2,2.1,2h0ZM110.4,164.3h0l-1.8,8.5h3.5l-1.7-8.5h0ZM108.9,157.5h2.9l5.5,23.6h-3.5l-1-5.1h-4.8l-1,5.1h-3.5l5.4-23.6h0Z"/>
    <polygon class="cls-4" points="124 157.5 127.6 157.5 127.6 181.1 124 181.1 124 157.5"/>
    <polygon class="cls-4" points="131 157.5 134.5 157.5 134.5 168.3 134.6 168.3 139.8 157.5 143.3 157.5 138.5 166.9 144.2 181.1 140.4 181.1 136.4 170.6 134.5 174 134.5 181.1 131 181.1 131 157.5"/>
    <path class="cls-3" d="M64.7,14.4c.8.1,1.4.4,2.1.2.1.1.2.1.4.2.3.6.6,1.1,1.2,1.2.2-.2.4-.5.7-.5.3.4.8.4,1.2.4.8.3,1.5.7,1.6,1.6.3.1.4-.2.7-.2.8,1.4,2.6,1.4,4.1,1.6.4.3.5.7.7,1.1.3-.1.6.2.9.2.3.2.4.5.4.9.1.1.2.1.4.2,2-.6,3.3,1.9,3.7,3.5v.7c.9,1.3.6,2.9-.4,4.1v.9c-.2.2-.4.4-.5.5-1.8.4-3.7.3-4.9-1.2-.5,0-1.1,0-1.6-.2-.6.3-1.3.2-1.9.5-1.2-.6-2.6-1.1-3.9-.4-.5.8-1.1,1.5-1.4,2.5v2.8c.3.6.8,1.1,1.2,1.6,1.2.3,2.3.8,3.4,1.4h1.2c.6.6,1.4.9,2.1,1.2.7-.1,1.3.3,1.9.2,1.6.7,3.1,1.8,4.8,2.3.6.5,1,1.1,1.6,1.6.2.1.5.2.7.4,1.2.1,2.4.3,3.2,1.2,0,.7.1,1.5-.4,2.1,1.3,1,.2,2.4-.2,3.5v.5c-.5.5-.5,1.5-1.4,1.8-.2.8-.9,1.4-1.2,2.1-.3.1-.5.3-.7.5-.1.7-.5,1.1-1.1,1.6-1-.1-2,.3-3,.4-.5.4-1.1.4-1.8.4-.2.1-.5.2-.7.4-.7,0-1.5,0-2.1-.4h-.7c-.2-.1-.5-.2-.7-.4q-.1.1-.2.2c-.6-.5-1.2.1-1.8,0-1.3-.8-2.7-.3-4.1,0-.7.5-.8,1.5-1.6,1.9-.4,1.8-.2,3.6,0,5.5-.3.4,0,.9-.4,1.2.3.8.8,1.2,1.4,1.8.4.1.3-.4.5-.5.7,0,1.5,0,2.1-.4.7,0,1.4-.1,1.9.4h1.6c1.7.7,3.4,1.6,5.3,1.6,1.1.9,2.5.9,3.9.7.7.6,1.4,1,2.3.7.1.1.2.1.4.2.5-.5,1.2-1,1.9-.9.9,1,2.2,1.7,3.5,1.6.8.4,1.1,1.3,1.8,1.8.2.5.5.9.9,1.2.2,1.5.7,3,0,4.4-.5.5-.9,1.1-1.6,1.4-.4,1.4-1.2,2.8-1.1,4.2-.6.9-.7,2-.9,3-.6.6-1.5.5-1.9,1.2-.7.2-1.4-.1-2.1,0-.2.4-1-.1-1.1.5-.9,0-1.8.2-2.7-.2-.2.3-.6.1-.9.2-1.5-.4-2.4-1.6-2.7-3,.1-.1.1-.2.2-.4-.3-.7-.7-1.5-1.6-1.4-.2.1-.5.2-.7.4-2.1,2.5-4.9,4.1-7.4,6-1.5,2-2.8,4.2-3.4,6.7,0,1.6-.1,3.2,0,4.8-.2.2-.1.6-.4.9.4,1.4,0,2.8.2,4.2-.1.2-.2.3-.2.5.3,1.4-.2,2.9,0,4.4.2.2.2.5.2.7-.2.3-.2.6-.2.9.8,2.5.2,5.1.4,7.6.1.2.2.5.4.7-.2,1.1.5,2,.5,3,.2.5.5.9.9,1.2,0,.4.3.6.4.9,3,2.8,7.2,2.1,11,2.5.2.2.6.1.9.4h1.2c1,.8,2.9.8,3.2,2.3-.2.2-.4.4-.5.5-1-.1-2.1.5-3-.2-.2.3-.5.1-.7.2-.5-.4-1-.7-1.6-.9-1.7.7-3.5.7-5.3.7-1.1.2-1.2,1.2-.9,2.1.8.7,1.7,1.1,2.7,1.6.9,0,1.6.7,2.5,1.1,0,.6-.6,1.3-1.2,1.2-.8.3-1.7.2-2.5.7h-2.7c-1-.6-2.2-.7-3-1.6-.9-.5-1.8-1-2.8-1.2-.8.4-1.6.8-1.8,1.8.2.8.4,1.6.7,2.3-.3.6-.5,1.2-1.1,1.6-.8.5-1.5,0-1.8-.9-.3-.1-.8-.2-.7-.7.7-1.1-.1-2.2,0-3.4-.5-.6-1.1-1.3-1.9-1.1-1.8.6-3.3,1.7-5.1,2.3h-3.7c-.3-.1-.5-.3-.7-.5.1-.7.6-1.1,1.1-1.6,1.2-.3,2.2-1.1,3.2-1.8.1-.6.5-1,.7-1.6,0-.7-.8-.9-1.2-1.2-1.3-.1-2.5-.3-3.7-.5-.8-.5-1.6-.4-2.5-.7q-.1.1-.2.2c-.9-.1-1.6-.4-2.5-.9-.3-.3-.4-.7-.4-1.1,3.5-2.1,7.7-.7,11.5-1.4.4-.1.4-.6.9-.5,2.4-1.5,2.5-4.6,3-7.1-.1-.2-.2-.3-.2-.5.4-.7,0-1.6.4-2.3-.3-.4-.1-.8-.2-1.2.2-.2.1-.6.4-.9-.4-.4-.1-.9-.2-1.4.1-.1.1-.2.2-.4-.3-.2-.2-.5-.2-.7.3-1.8.3-3.5.4-5.3.2-.1.3-.3.4-.5-.1-.2-.2-.5-.4-.7-.1-1.4.2-2.8-.2-4.2.1-.7-.2-1.4.2-2.1.1-.4-.1-.7-.2-1.1.4-.9.1-1.8.2-2.7-.2-.2-.2-.5-.2-.7.1-.1.1-.2.2-.4-.3-3-2.5-5.2-4.6-7.1-1.4-.6-2.8-1.6-4.5-1.6-.9.2-1.5,1-2.3,1.4h-1.1c-.8.4-1.6.7-2.5.9-1.5-.6-2.9.4-4.4.2-.2-.2-.6-.1-.9-.4-.7-1.1-1.9-.9-3-1.2-.3-.5-.4-1-.4-1.6-.2-.5-.6-.7-.9-1.1v-1.8c-.4-.6-.4-1.3-.4-1.9-.1-.2-.2-.5-.4-.7-.7-.2-1.2-.8-1.6-1.4.1-.1.1-.2.2-.4-.5-.7.1-1.4,0-2.1-.3-.4-.1-.9-.2-1.4.5-.2.9-.5,1.4-.7v-.4c.4-.6.9-1,1.4-1.4h1.4c1-.4,1.9-1.2,3-1.1.6-.4,1.3-.7,1.9-1.1h1.4c1.9-1,4-1.7,6.2-1.6.4-.2.7-.4,1.1-.5.8.1,1.6-.2,2.3.2.5-.3,1.1-.1,1.6-.5h1.2c1.1-.6,2.3-.6,3.5-.9.8-.4,1.4-1.1,1.6-1.9-.4-.8,0-1.6,0-2.5-.4-.7-.4-1.5-.4-2.3-.1-.3-.5-.5-.4-.9.1-.1.1-.2.2-.4-.6-.7-.7-1.5-1.1-2.3-.6-.5-1.4-.8-2.1-1.1-1.6.7-3.3,1.4-5.1,1.2-.5.2-.9.5-1.2.9-1,.1-2.2-.4-3,.5-.7.1-1.2-.2-1.8-.5-.6,0-1.2.4-1.8,0-.1-.2-.2-.5-.4-.7-1-.6-2.3-.7-2.8-1.9-.6-.1-1.1-.6-1.8-.5-.2-.3-.7-.3-.7-.7.1-.2.2-.5.4-.7-.3-.8-.6-1.6,0-2.3.1-1.3.3-2.6.4-3.9.9-.8,1-2.1,1.1-3.2.1-.2.3-.3.5-.4,1.3.3,2.3-.5,2.5-1.8,1.1-.6,2.4-.4,3.5-1.1h.9c.6-.3,1.2-.6,1.8-.9.8.2,1.7-.5,2.5,0,1.1-.8,2.5-.4,3.7-.4.5-.2.9-.6,1.4-.5.3.2.6.2.9.2.6-.3,1.1-.7,1.8-.5,1.6-.3,2-2,2.8-3.2.1-1.2-.1-2.4-.5-3.5-.9-.6-1.4-1.7-2.3-2.3-.4-.3-1-.3-1.4-.5-.2.2-.3.3-.7,0-.1.1-.2.1-.4.2-.1-.1-.2-.1-.4-.2-1.3.7-2,2.2-3.5,2.5-.7,0-1.4-.2-2.1-.4-.9.4-1.7.9-2.7,1.2h-.7c-.9-.6-1.8-1.5-3-1.4-.1-.1-.2-.2-.4-.4v-.9c-.8-1.2-1-2.7,0-3.9.5-.1,1-.4,1.6-.4.5-.3.7-.8,1.2-1.1.2-.4.2-.9.5-1.2v-.7c.6-.7,1.3-1.9,2.3-1.4.6-.4,1-1.1,1.8-1.2,0-.2.1-.3.2-.4.5.1.6-.4.7-.7.4-.4,1-.6,1.4-.9.1.1.2.1.4.2.1-.2.3-.3.5-.4v-.4c.4-.5.9-.9,1.6-1.1.1-.2.2-.4.4-.5.6-.1,1.2.2,1.8.4.1-.1.2-.1.4-.2.1-.5.4-.7.7-1.1,1.8.7,3.3.4,4.8.4h0ZM60.1,81.4c-.9-.7-2-.3-2.7.5-.8-.1-1.6.5-1.9,1.2,0,.4-.1.9.2,1.2-.1.1-.1.2-.2.4,1.9.2,2.9,2,4.2,3.2.6.1,1.1.4,1.8.2.3-.5.2-1.1.5-1.6-.4-.4,0-1-.5-1.2v-.5c-.5-1.2-.6-2.4-1.4-3.4h0ZM66,80.3c-.3.8-.5,1.5-.7,2.3.1,1.2.1,2.3,0,3.5.7.7,1.8.9,2.7.4,0-.4.3-.6.5-.9.1-.2.2-.3.2-.5,1.4-1.2,1.1-3.1.4-4.6-.9-.9-2.2-.9-3.1-.2h0ZM72.5,80.1c-.9,1-1.1,2.4-1.1,3.7.3,1,1.5.9,2.3.7.4-.5,1-.7,1.4-1.1.4-.7.6-1.4.9-2.1,0-.4-.1-.7-.4-.9-.9-.2-1.9-1.1-3.1-.3h0Z"/>
    <path class="cls-3" d="M136.7,14.7c.8.1,1.7-.2,2.3.4.2-.3.6-.1.9-.2,1,.4,1.9.3,2.8.9.3-.1.5-.5.9-.4.8.5,1.5,1,2.3,1.4,1.8.2,2.7,2,4.1,3v.4c.1.3.3.5.5.7.4.2.9.4,1.1.9,1.1-.1,2.1.7,2.5,1.6.7.2,1.3.6,1.9,1.1.1.8.4,1.5,0,2.3,0,.3,0,.5.2.7.1.8-.1,1.7-.2,2.5-.9.4-1.7.9-2.7.7-.4-.1-.5-.5-.9-.5-.8-.2-1.5-.2-2.3-.2-.4-.3-.8-.7-1.2-1.1-.3-.2-.6-.2-.9-.2-1.4-1.3-3.6-2.1-5.3-1.1-.7.5-.9,1.2-1.2,1.9-.1.1-.2.1-.4.2.1.7-.2,1.4-.5,1.9-.4,3-.4,7,2.8,8.3,2.4,0,4.7.7,7.1.5,1.4,1.1,3,1,4.6,1.2.7.6,1.5.9,2.1,1.6.4-.1.6.3.9.4.4.7.5,1.6.9,2.3,2,.8,2,3.3,1.9,5.1-.6.7-1.3,1.5-2.1,1.9-.1.2-.2.4-.5.5-.1.8-1,1.1-1.6,1.6h-.7c-.6.2-1.2.5-1.8.9h-4.4c-.8-.3-1.5-.8-2.3-1.2-.3-.8-1.2-.8-1.8-1.2-1.4.6-3.1,1.6-3.2,3.2-.6.7-.7,1.7-1.2,2.5v.5c-.7,1-.1,2.2-.2,3.4.4.5.5,1.4,1.2,1.6.5,0,1.1-.1,1.6.4.1.6.5,1.1.7,1.6.6.3,1.4.1,1.9.5.4-.5.8.1,1.2,0,.6.9,1.5,1.2,2.5,1.6.5.8.6,1.7,1.6,1.9,1.2-.4,2.5-.5,3.7,0,.9-.5,1.9-.8,2.8-1.2.4.3.9.1,1.4.2,1.3-.4,2.8-1,4.1-.4h.5c.6.1.5.8,1.1.9-.1,1.2,0,2.5.9,3.5.2,1.3,0,2.6-.4,3.9.1.1.1.2.2.4-.2.4-.6.8-.9,1.2-.7,2.1-1.6,4.1-3,5.8-.4,0-.6.3-.9.5h-.7c-1.1.4-2.1,1.1-3.4.9-.1-.2-.3-.3-.5-.4-.8.1-1.2-.6-1.9-.7-.4-.7-.6-1.5-1.2-1.9-.5-.9-.3-2.3-1.4-2.7-1.9,0-3.8,1-5.1,2.3-.2.1-.5.2-.7.4-1.1,1.4-2.7,2.3-3.5,3.9-.4.4-.7.7-1.1,1.1-.2.3-.2.7-.5.9-.4,1-.9,1.9-1.1,3-.1.1-.2.1-.4.2.2,1-.3,1.9,0,2.8-.5.6-.1,1.4-.2,2.1-.1.1-.1.2-.2.4.3.4.1.9.2,1.4-.2.2-.3.3,0,.7.1.3-.2.6-.2.9.2.2.3.3,0,.7q.1.1.2.2c-.2.6-.3,1.1-.2,1.8-.1.1-.1.2-.2.4.5.6-.1,1.3,0,1.9.2.2.2.5.2.7-.2.2-.2.5-.2.7.3,1.3.2,2.6.2,3.9.3.7.2,1.5.4,2.3-.1.2-.2.3-.2.5.4,1.1.1,2.2.2,3.4.2.2.1.6.4.9.2,2.8,1.3,5.6,3.4,7.6,1.1,1.1,2.6,1.6,4.1,1.9,2,.1,4-.4,6,.2.4.1.7-.3,1.1-.2.8.7,1.8.8,2.8.7.2.2.4.5.7.5h.4c.6.6,1.5.8,2.3,1.2.9.4,1.1,1.4.4,2.1-1.2,0-2.3-.2-3.4-.7l-.2.2c-.7-.4-1.5-.2-2.1-.5-.6.5-1.3-.1-1.9,0-.2.2-.3.3-.7,0l-.2.2c-.3,0-.6-.3-.9-.2-1.1.6-2.5,0-3.7.2-.1.1-.2.1-.4.2-.9-.2-2,0-2.8.5-.4.8-1.1,1.7-.5,2.7.2.1.5.2.7.4,1.2-.1,2.4.2,3.5-.2.7-.1,1.4,0,2.1.2,1,.7,2.4.9,2.8,2.1.1.7-.2,1.2-.7,1.6-.6.4-1.3.1-1.8-.2-1.8-.2-3.6.7-5.3,0-2.4.9-4.9-.6-7.1-1.4-1.1.2-.9,1.4-.9,2.3.2.4.5.6.4,1.1.2.6.5,1.1.9,1.6,0,.5-.6.5-.9.7,0,.2-.1.3-.2.4h-1.2c-.7-.3-1.1-1-1.8-1.4.1-.1.1-.2.2-.4-.7-.9-1.2-1.9-1.6-3-.4.1-.2-.5-.5-.5-.5-.3-1.1-.1-1.6-.2-.4.1-.5.5-.9.5-1-.1-1.8.7-2.8.7-.4.2-.9.3-1.2.5-.4,0-.7.1-1.1-.2-.6.4-1.2.1-1.8.2-.7-.2-1.2-.8-1.1-1.6,1.2-1.5,3-2.4,4.6-3.4,1,.2,1.3-.9,1.8-1.6-.1-.5-.7-.6-1.1-.9-1,.3-1.8-.5-2.8-.2-.4-.2-.9-.3-1.2-.5q-.1.1-.2.2c-.3-.3-.8,0-1.1-.4-.8.3-1.6-.1-2.5-.2-.2.2-.3.3-.7,0-.4.3-1,.2-1.2.7-1.2-.4-2.6-.5-3.7.2-.2-.2-.3-.3-.7,0-.9,0-1.5-.5-2.1-1.1v-.4c.4-.3,1-.3,1.4-.5.1-.2.2-.5.4-.7.5-.2.9-.5,1.2-.9.5-.2,1.1-.3,1.6-.7,2.3-.1,4.6-.6,6.9,0,.3-.3.7-.2,1.1-.2,1.2.5,2.5-.1,3.7-.2.4-.1.6-.5.9-.7h.4c1.6-.9,2.5-2.8,2.1-4.6.8-.9.6-2.1.5-3.2.3-1.3.3-2.6.5-3.9-.1-.2-.2-.3-.2-.5.1-.1.1-.2.2-.4-.5-1.2-.1-2.6.4-3.7-.3-.1-.1-.5-.4-.7.3-2.7.5-5.4.7-8.1-.2-.3-.2-.6-.2-.9.3-.3.2-.7.2-1.1-.3-.4-.1-.8-.2-1.2.4-1.9,0-3.9.2-5.8-.1-.7-.7-1.4-.7-2.1-1.1-1.9-2.9-3.3-4.6-4.6-2.1-.9-4.3-1.6-6.4-2.5-1.4-.3-1.9,1.1-2.3,2.1l-.5.5c-1,0-1.7.7-2.3,1.4-.3.7-.6,1.5-1.4,1.8-1.7.3-3-.8-3.9-2.1-.4-.2-.8-.4-1.2-.4-.4-.3-.8-.5-1.1-.9-.1-.7-.8-.9-1.1-1.4.1-.5-.1-1-.4-1.4,0-1.6.1-3.2-.2-4.8.6-1.5,0-3.2.2-4.8.2-.2.5-.4.5-.7-.1-.7.4-1.5,1.1-1.8.5.1,1-.1,1.4-.4.6.3,1.4,0,1.9.5.9,0,1.5-.6,2.1-1.1,0-.4.3-.8.7-.9.7-.1,1.4.3,2.1.2.8-.3,1.4-.9,2.1-1.4.6.1,1.1-.1,1.6-.4l1.1-1.1c1.3-.4,2.4-1.4,3.7-1.8.4.3.9.1,1.4.2.9-.3,1.4-1.1,2.1-1.6,1.4.3,3,.2,4.1-.9,1.8-3.4-.7-7.2-4.1-8.3-.5-.1-1,.1-1.4.4-.3.6-1,1-.5,1.8-.2.4-.3.8-.7,1.1-1.3.1-1.8,1.4-2.8,1.9h-1.1c-.9-1.5-2.7-.6-4.1-.7-1.5-.6-2.3-2.3-2.7-3.9.1-.1.1-.2.2-.4-.4-.9-.9-1.7-1.4-2.5-.7-1.9-.5-4-.7-6,.1-.2.2-.3.2-.5.8-.3,2,0,2.3-1.1-.2-1.2.8-2,1.4-2.8,1-.3,2-.1,3-.4.9-.5,1.8-1.1,2.7-1.8.9-.1,2.1-.5,2.7.5.7.3,1.7-.1,2.3-.7.6.1,1.2-.2,1.8.2.4.1.7-.2,1.1-.4,1.7.3,3.3-.5,3.9-2.1.2-.7,0-1.4.4-2.1.1-1-.5-1.9-.4-2.8-.5-.7-.8-1.8-1.8-1.9-.1-.1-.1-.2-.2-.4-.5.1-1-.2-1.4-.4-.6-.1-1.2.3-1.6.9h-.9c-1,.6-2.2,1-3.4.9-.4.2-.7.4-1.1.7h-.9c-.9-.8-2.1-.9-3.2-.4-.5-.3-.6-.9-.5-1.4-.5-.8-1.2-1.4-1.9-1.9-.9-1.5.4-2.6,1.8-3,.2-.4.4-.8.4-1.2.6-.7,1.2-2,2.5-1.4.4-.1.4-.5.7-.7,1-.6,2.2-.9,3.2-1.4.7-1,2-1.3,3-1.9.4-.3.4-.9.7-1.2.9-.6,1.8-1,2.8-1.4.9.7,1.7-.2,2.3-.9.3.3.6.3.9.3h0ZM134.6,80.8c-.7-1.2-2-2.5-3.5-2.5-.9.6-1,1.8-1.6,2.7,0,1.7,1.6,2.5,2.8,3.4h.4c.2.8,1.1.4,1.6.2.1-1.3,1-2.6.3-3.8h0ZM142.9,78c-.8-.6-1.7-.6-2.5,0,0,.6-.3,1-.5,1.4,0,1.4-.5,3.9,1.6,4.1.8-.4,1.6-.7,2.3-1.2,0-.6.5-.9.7-1.4.2-1.3-.7-2.2-1.6-2.9h0Z"/>
  </g>
</svg>