<?xml version="1.0" encoding="UTF-8"?><svg id="Lager_2" xmlns="http://www.w3.org/2000/svg" viewBox="0 0 250 250"><defs><style>.cls-1{fill:#f2f2f2;}.cls-2{fill:#eaeaea;}.cls-3{fill:#929292;}.cls-4{fill:#c2c1c1;}.cls-5{fill:#ddd;}.cls-6{fill:#afafaf;}</style></defs><g id="Lager_1-2"><g><polygon class="cls-3" points="250 42.53 209.69 38.86 219.01 51.41 250 42.53"/><polygon class="cls-3" points="0 156.36 28.58 156.36 31.29 130.05 0 156.36"/><path class="cls-6" d="M129.06,250s.9-8.87,36.1-23.26c35.2-14.38,51.44-31.21,64.68-49.57,13.24-18.36-5.42-66.1-8.42-89.05-3.01-22.95,10.83-35.5,10.83-35.5L183.51,0s-14.37,13.46-49.9,13.46h-9.1c-35.54,0-49.9-13.46-49.9-13.46L25.87,52.63s13.84,12.55,10.83,35.5-21.66,70.69-8.42,89.05c13.24,18.36,29.48,35.19,64.68,49.57,35.2,14.38,36.1,23.26,36.1,23.26Z"/><path class="cls-4" d="M129.06,243.34c-4.38-4.68-13.94-11.54-34.74-20.04-33.25-13.59-49.27-29.14-63.1-48.33-8.53-11.84-1.65-39.73,3.88-62.15,2.24-9.06,4.35-17.61,5.21-24.22,2.43-18.51-5.24-30.78-9.46-35.96L75.03,4.95c5.97,4.06,21.44,12.22,49.48,12.22h9.1c28.04,0,43.51-8.16,49.48-12.22l44.17,47.71c-4.21,5.18-11.88,17.45-9.46,35.96,.87,6.61,2.98,15.16,5.21,24.22,5.53,22.42,12.42,50.31,3.88,62.15-13.83,19.18-29.85,34.74-63.1,48.33-20.8,8.5-30.37,15.36-34.74,20.04Z"/><path class="cls-5" d="M129.06,238.2c-5.87-5.12-16.1-11.27-33.39-18.33-32.45-13.26-48.06-28.41-61.52-47.08-7.52-10.43-.58-38.53,4.48-59.05,2.26-9.16,4.4-17.81,5.29-24.63,2.26-17.21-3.68-29.5-8.31-36.18L75.66,9.67c7.79,4.57,23.45,11.2,48.85,11.2h9.1c25.4,0,41.07-6.63,48.85-11.2l40.05,43.25c-4.64,6.69-10.57,18.98-8.31,36.18,.89,6.82,3.03,15.47,5.29,24.63,5.07,20.52,12,48.62,4.48,59.05-13.46,18.67-29.07,33.82-61.52,47.08-17.29,7.06-27.51,13.21-33.38,18.33Z"/><path class="cls-2" d="M129.06,215.64c-7.15-4.33-15.96-8.62-26.6-12.97-28.13-11.5-41.3-23.92-53.11-40.14-2.08-7.72,4.46-34.2,6.95-44.29,2.39-9.68,4.65-18.83,5.68-26.69,1.62-12.34,.14-24.56-4.17-35.58l22.15-23.92c10.8,4.05,25.47,7.35,44.55,7.35h9.1c19.08,0,33.74-3.3,44.55-7.35l22.15,23.92c-4.32,11.02-5.79,23.24-4.17,35.58,1.03,7.86,3.29,17.01,5.68,26.69,2.49,10.09,9.03,36.57,6.95,44.29-11.81,16.22-24.98,28.64-53.11,40.14-10.63,4.34-19.45,8.64-26.59,12.97Z"/><path class="cls-1" d="M129.06,184.18c-5-2.44-10.45-4.87-16.41-7.3-18.23-7.45-27.85-14.59-35.83-23.88,.72-4.83,2.36-13.28,5.98-27.96,2.59-10.49,5.03-20.37,6.27-29.81,1.39-10.61,1.11-21.31-.78-31.62l.16-.17c11.26,2.51,23.33,3.77,36.06,3.77h9.1c12.73,0,24.8-1.26,36.06-3.77l.16,.17c-1.9,10.32-2.17,21.01-.78,31.63,1.23,9.42,3.67,19.3,6.25,29.76,3.63,14.71,5.27,23.18,6,28.01-7.99,9.29-17.61,16.43-35.83,23.88-5.96,2.44-11.41,4.86-16.41,7.3Z"/><path class="cls-6" d="M7.22,108.63L0,156.36s67.69-40.7,239.17-59.36l10.83-54.47S87.55,59.06,7.22,108.63Z"/><path class="cls-4" d="M10.56,110.91C81.88,67.79,217.89,50.01,245.44,46.77l-9.31,46.83C95.04,109.24,25.25,139.33,4.7,149.65l5.86-38.74Z"/><path class="cls-5" d="M13.9,113.21c67.45-39.95,191.29-57.72,226.97-62.15l-7.79,39.16c-127.88,14.43-197.05,40.77-223.74,53.11l4.56-30.12Z"/><path class="cls-2" d="M20.57,117.88c61.39-34.89,167.09-52.19,211.15-58.16l-4.72,23.74c-108.37,12.66-174.03,33.59-208.45,47.8l2.02-13.38Z"/></g></g></svg>