<?xml version="1.0" encoding="UTF-8"?>
<svg id="Lager_1" data-name="Lager 1" xmlns="http://www.w3.org/2000/svg" viewBox="0 0 151.8 158">
  <defs>
    <style>
      .cls-1 {
        fill: #fff;
      }

      .cls-1, .cls-2, .cls-3, .cls-4 {
        stroke-width: 0px;
      }

      .cls-2 {
        fill: #f6be00;
      }

      .cls-3 {
        fill: #007a33;
      }

      .cls-4 {
        fill: #ab2328;
      }
    </style>
  </defs>
  <path class="cls-1" d="M102.3,14.2c.9-1.3.9-3,0-4.3-.9-1.4-3.5-2.1-5.2-1.9-1.6.2-4.6.5-10.4,2,0,0-.2.1-.4.1-.5,0-.8-.3-1-.7-1.3-2.3-3.1-5.5-3.9-6.9-.9-1.5-2.1-2.3-3.7-2.4-1.5.1-2.7.9-3.7,2.4-.9,1.4-2.7,4.7-3.9,6.9-.2.4-.5.7-1,.7-.1,0-.4-.1-.4-.1-5.8-1.5-8.7-1.9-10.4-2-1.7-.2-4.3.5-5.2,1.9-.8,1.3-.8,3,0,4.3C24.5,24.3,3.9,51.7,3.9,84c0,40.9,33.1,74,74,74s74-33.1,74-74c-.1-32.3-20.8-59.7-49.6-69.8"/>
  <path class="cls-3" d="M41.2,84.6c0,2.7-1.1,3.5-4.5,4.5-.9.3-1.2-.4-1.2-.8v-4.7c0-2.3,2.3-2.3,2.3-2.3h1c2.3,0,2.3,2.3,2.3,2.3,0,0,.1.7.1,1M39.7,128.8c2.8,2.3,5.7,4.4,8.9,6.2v-.1c-.9-1.8-1.6-3.3-1.6-6v-32.2c0-3.6-3.7-6-4-6.1,3.5-2.2,4-4,4-6.6,0-.3,0,.8,0-1.8s-1-6-5.6-6h-13.5v4.9c1.9.3,1.9,2.3,1.9,2.3v19.8c0,1.7-1.2,2.2-1.9,2.3v3c0,5.6,2,9.6,3.9,12.1.2.2,1.8,2.1,2.4,2.8,0,0,1.3,1.3,1.9,2,0,0,.9.9,1.4,1.3v-21.2c-.7-.1-1.9-.6-1.9-2.3v-9h3.1c2.3,0,2.3,2.9,2.3,2.9v6c0,1.3-.7,1.8-1.3,2.1v23.6ZM57.6,71.8c0-1.4-1.2-2.6-2.6-2.6s-2.6,1.2-2.6,2.6,1.2,2.6,2.6,2.6,2.6-1.2,2.6-2.6M64.6,71.8c0-1.4-1.2-2.6-2.6-2.6s-2.6,1.2-2.6,2.6,1.2,2.6,2.6,2.6,2.6-1.2,2.6-2.6M58.9,105.7h-1c-2.3,0-2.3-2.3-2.3-2.3v-19.9c0-2.3,2.3-2.3,2.3-2.3h1c2.3,0,2.3,2.3,2.3,2.3v19.8c.1,2.4-2.3,2.4-2.3,2.4M58.4,139.4c3.6,1.3,7.4,2.2,11.3,2.7-.6-.7-1-1.4-1.3-2-1.3-2.6-1.3-4.5-1.3-4.6v-53.8c-.1-2-.8-3.7-2.3-4.7-1.5-.9-4.7-1-6.3-1s-4.8.1-6.3,1c-1.6,1-2.2,2.9-2.3,5.1v46.9c0,6.5,4.5,8.7,6.7,9.7.3.1.6.3.8.3,0,0,.6.3,1,.4M87,86.5v-4.6c0-.5-.1-1.6-.2-1.9-.3-1.3-1-2.4-2-3-1.5-.9-4.7-1-6.3-1s-4.8.1-6.3,1c-1.6.9-2.2,2.7-2.3,4.7v53.6s0,1.6,1.1,3.6c1.3,2.5,3.6,3.8,6.8,3.8h1.7c.7-.1,2.2-.3,3.7-1,2.4-1.3,3.7-2.9,3.8-6v-43.8h-8.5v4.9h2.8v6.6c0,2.3-2.3,2.3-2.3,2.3h-1c-2.3,0-2.3-2.3-2.3-2.3v-19.9c0-2.3,2.3-2.3,2.3-2.3h1c2.3,0,2.3,2.3,2.3,2.6v2.7h5.7ZM107.5,127.6v-27.2h-4.3v2.9c0,2.3-2.3,2.3-2.3,2.3h-1c-2.3,0-2.3-2.3-2.3-2.3v-20.1c.1-1.5,1.3-1.9,2-2v-4.9h-9.7v4.9c1.9.3,1.9,2.3,1.9,2.3v19.8c0,1.7-1.3,2.2-1.9,2.3v29.1c0,3.3-1,5.6-2.4,7.1,4.3-.7,8.4-1.8,12.4-3.4h0c1.2-.4,7.6-3.1,7.6-10.8M123.8,100.4v2.9c0,2.3-2.3,2.3-2.3,2.3h-1c-2.3,0-2.3-2.3-2.3-2.3v-8.5h5.9v-4.8h-5.9v-6.4c0-2.3,2.3-2.3,2.3-2.3h1c2.3,0,2.3,2.3,2.3,2.3v2.1h4.1v-9.3h-17.4v4.9c1.9.3,1.9,2.3,1.9,2.3v19.8c0,1.7-1.3,2.2-1.9,2.3v21.5c0,2.5-.5,5-1.3,6.6,4.3-2.6,8.2-5.8,11.7-9.5,1.1-1.2,2.2-2.4,3.2-3.6,1.9-2.5,3.9-6.6,3.9-12.3v-8h-4.2ZM142.5,83.5c0,17.3-6.7,33.5-18.9,45.7s-28.3,18.9-45.5,18.9h-.4c-17.2,0-33.4-6.8-45.5-18.9-12.2-12.2-18.9-28.4-18.9-45.7,0-11.4,3-22.5,8.6-32.3,5.5-9.5,13.3-17.5,22.7-23.1.3-.2,1.8-1,2.9-1.4-1.4,1-2.5,2.4-3,4-3,.7-5.4,2.8-6.6,5.6-3.3.9-5.9,3.6-6.7,6.8-3.4,1.6-5.8,5-5.8,9,0,3.6,2,6.7,5,8.4,1.4,3.8,5,6.5,9.3,6.5,1.8,0,3.5-.6,5-1.4h.5c1.7,0,3.2-.6,4.4-1.5.1-.1.2-.1.3-.2,4.6,1,8.9-.4,12.9-2.6h.4c3,3.7,5.5,3.9,5.5,3.9,0,0,2.9-4.5,6.4-4.6,1.4,1.7,6.2,2.6,6.2,2.6,0,0,3.2-1.2,4-1.7,2.2,2.2,5,2.7,5,2.7,0,0,1.8-2.1,3-2.5.5.2,1.2.5,2.1.6,3.3,1.5,6.9,2.3,10.7,1.5.1.1.2.1.3.2,1.2.9,2.8,1.5,4.4,1.5h.5c1.5.9,3.2,1.4,5,1.4,4.3.1,8-2.7,9.3-6.5,2.9-1.7,4.9-4.8,5-8.4,0-4-2.3-7.5-5.8-9-.9-3.3-3.5-5.9-6.7-6.8-1.2-2.8-3.7-4.9-6.6-5.6-.5-1.6-1.6-3-3-4,1.1.4,2.5,1.2,2.9,1.4,9.4,5.6,17.3,13.6,22.7,23.1,5.4,9.9,8.4,21.1,8.4,32.4M109.1,33c0,.5-.1,1-.2,1.5-1.1-1.9-2.3-3.9-3.7-5.7-.3-.3-.5-.6-.6-.9,2.5.3,4.5,2.5,4.5,5.1M117.7,46.7c1.5,1.4,2.5,3.4,2.4,5.5,0,1.9-.8,3.6-2,4.9-.3-2.4-1.7-4.5-3.7-5.7,1.7-1.1,2.9-2.7,3.3-4.7M115.4,45.2c0,1.6-.8,3-1.9,3.9-.2-2.8-1-5.9-2.1-8.9,2.3.4,4,2.5,4,5M110.4,37.5s-.1,0,0,0c-.1-.1-.1-.2-.1-.2.8-1.1,1.3-2.5,1.3-4,2.8,1.1,4.8,3.8,4.7,7v.2c-1.4-1.8-3.5-3-5.9-3M118.7,40.3c0-.4,0-.8-.1-1.1,2.4,1.3,4,3.7,3.9,6.6,0,1-.2,2-.6,2.9-.8-2-2.2-3.7-4-4.8.5-1.2.8-2.4.8-3.6M123.5,50.8c.9-1.4,1.4-3,1.4-4.7,1.9,1.4,3.1,3.6,3,6,0,1.9-.8,3.7-2,5,0-2.5-.9-4.7-2.4-6.3M123.5,57.3c-.1,4.1-3.4,7.3-7.5,7.3-.5,0-1-.1-1.4-.2,1.4-.9,2.6-2.3,3.2-3.9,2.5-1.5,4.3-4.1,4.7-7.1.7,1.1,1.1,2.5,1,3.9M112.7,57.1c.4-1.1.6-2.2.8-3.4,1.4.9,2.3,2.5,2.3,4.3,0,2.8-2.4,5.1-5.2,5.1-.7,0-1.4-.2-2-.4,1.7-1.2,3.2-3.1,4.1-5.6M39.4,40.2c0-3.2,1.9-5.9,4.7-7,.1,1.5.5,2.8,1.3,4,0,.1-.1.2-.1.2h0c-2.4,0-4.5,1.2-5.9,2.9,0,.1,0,0,0-.1M40.3,45.2c0-2.5,1.7-4.5,4-5.1-1.1,3.1-1.9,6.1-2.1,8.9-1.2-.9-1.9-2.3-1.9-3.8M38,46.7c.4,2,1.6,3.6,3.2,4.7-2,1.2-3.4,3.3-3.7,5.7-1.2-1.3-1.9-3-2-4.9,0-2.2,1-4.1,2.5-5.5M29.8,57c-1.2-1.3-2-3-2-5,0-2.5,1.2-4.7,3-6,.1,1.7.6,3.3,1.4,4.7-1.5,1.7-2.4,3.9-2.4,6.3M33.2,53.4c.4,3,2.2,5.6,4.7,7.1.6,1.6,1.7,3,3.2,3.9-.5.1-.9.2-1.4.2-4.1,0-7.4-3.2-7.5-7.3-.1-1.4.3-2.8,1-3.9M37,40.3c0,1.3.3,2.5.7,3.6-1.8,1.1-3.2,2.8-4,4.8-.4-.9-.6-1.9-.6-2.9,0-2.9,1.6-5.3,3.9-6.6,0,.3,0,.7,0,1.1M47.1,62.6c-.6.3-1.3.4-2,.4-2.8,0-5.1-2.2-5.2-5.1,0-1.8.9-3.4,2.3-4.3.1,1.2.4,2.3.8,3.4.8,2.6,2.4,4.5,4.1,5.6M46.6,33c0-2.6,1.9-4.8,4.5-5.1-.2.3-.4.6-.6.9-1.4,1.8-2.6,3.7-3.7,5.7-.1-.5-.2-1-.2-1.5M147.2,83.5c0-12.2-3.2-24.2-9.3-34.6-5.9-10.2-14.3-18.7-24.4-24.8-.6-.3-2.5-1.4-3.9-1.9-4-1.6-7.7-1.2-9.4,1.1-.9,1.2-1.3,3.9,2,8.3,6.1,8.1,8.9,18.1,6.8,24.1-.8,2.4-2.3,4.1-4.7,4.7-.7.2-1.4.2-2.2.2,2-1.6,2.9-3.7,3-4.1l1-2.4s-5.4-.7-4.8-1.1c.6-.5,3.7-.2,3.7-.2-.7-1.1-4.4-5.1-5.8-5.8l1.9-.9s-.5-1.6-1.6-2.8c0,0-.7-3.8-2-5.9.8-1.4,3.7-2.2,3.7-2.2,0,0-1.6-3-5.1-3.8,2.3-1.2,1.3-14,1.3-14,0,0-1.4,2.3-2.9,3.8-1.3,1.4-2.5,1.3-2.5,1.3,1.5-3.2,6.3-9.6,6.3-9.6l-4.4.5c-2.4.3-3.7.8-4.3,1.3-1.5,0-2.7,1-3.2,2.3-.6-.6-1.5-1-2.4-1-.4,0-.7.1-1.1.2v-.6c0-1.6-.9-3-2.1-3.8,0-.2-1-4.4-2.9-7.1-1.8,2.8-3.1,6.8-3.1,7.1-1.3.7-2.1,2.1-2.1,3.8v.6c-.3-.1-.7-.2-1.1-.2-.9,0-1.8.4-2.4,1-.5-1.3-1.8-2.3-3.2-2.3-.7-.5-1.9-1-4.3-1.3l-4.4-.5s5.6,8,8.2,13.5c0,0-1.3,1-1.4,1.1-.7.4-1.6,1.4-2,2.3-1.6.2-4.7,1.4-5.9,2.6-2.3,2.3-2,5.4.1,8.4-1.4.1-2.9-.4-2.9-.4,0,0-.2,6.8,8.6,5.7h0s2.1,2.1,5.1,2.3c1.8,0,2.8-1.1,2.8-1.1,0,0,.4.5.9.7-.6.5-2.9,1.8-6.6,1.4,0,.8.1,1.8.4,2.9-.8.4-2.9,1.1-4.9,1.2-2.2.2-4.7-.1-4.7-.1,0,0-.8,3.9,2.5,6.3-2.1.8-4.2,1.2-6.2.7-2.4-.5-3.8-2.2-4.7-4.7-2.1-6,.8-16,6.8-24.1,3.3-4.4,2.9-7,2-8.3-1.7-2.3-5.4-2.7-9.4-1.1-1.4.5-3.4,1.6-3.9,1.9-10.1,6.1-18.5,14.6-24.4,24.8-6.1,10.5-9.3,22.5-9.3,34.6,0,18.5,7.2,35.9,20.3,49,13,13,30.3,20.2,48.7,20.3h.7c18.4-.1,35.6-7.3,48.6-20.3,13.2-13,20.5-30.4,20.5-49"/>
  <path class="cls-4" d="M81,31.4c-.7-.5-2.2-.8-3.3-.8-.1,0,0,0,0,.1.1.1.2.4.2.7,0,.2-.1.5-.1.6-.2-.8-.9-1.5-1.8-1.6h0c.5.3.9.8.8,1.4,0,.9-.7,1.6-1.7,1.6-.1,0-.2,0-.4-.1.1-.3.2-.7.1-1.2-.2-.7-.8-1.1-1.5-1.3-1.4.9-3.2.2-3.5,0,1.6-.2,3.4-1,4-1.7.1-.1.6-.3,1.8-.2,2.6.2,4.9,1.7,5.4,2.5,0,0,0,.1,0,0M100.9,50.9c-1.1-1.7-5.6-3.2-5.6-3.2,0,0,1-1.7,2.7-2.6-1.1-2.1-4.6-1.8-4.6-1.8,0,0,.5-1.9,3.4-1.5-.6-2.5-1.9-4.4-1.9-4.4,0,0,.2-2.1,2.5-2.9-2.3-2.3-5.1-1.1-6.5-.3-.5.3-.3-.1,0-.3.9-.7,3.2-2.9,3.9-4.7.9-2.4.9-6.8.9-6.8,0,0-1.6,1.5-3.3,2-1.7.5-2.4.9-3.3,2s-.9,1.7-.9,1.7l-.7-1.1c-3.2-.2-6.4-.4-9.7-.4-3.5,0-6.4,0-9.7.3-1.2.4-2.6,1.6-2.6,1.6,3.2,1.3,2,1.7,3.6,3,3.5,2.8,8.2,6.8,6.4,12-.5,1.4-1.5,2.4-3.8,2.5.6,1,2.1.7,1.9,1.6-.8,2.6-7.3,3.4-7.3,3.4,0,0,.3,1.4,1.5,1.8-2.5,1.9-5.7,3-10.2,2.8.4,3.8,7.2,4,7.2,4,0,0,1.3,2.4,3,3.1,3.3-4.3,8-4.2,8-4.2,0,0,1,1.9,5,2.7,2.4-.9,3.2-1.1,4.8-2.8.1,1.7,2.1,2.8,3.8,3.5,1.9-2.1,3.9-2.3,3.9-2.3,0,0,1.8,1.5,5,.6s4.7-4.5,4.7-4.5c0,0-6.4-1.5-6.4-3.3.1-1.6,1.2-2,4.3-1.5"/>
  <path class="cls-2" d="M77.8,23.4c3.8,0,7.6.1,11.1.4,1.5-2.9,3.2-5.7,5-8.3l.1-.1s-3.1.2-3.3.9c-.1.2-.1.9-.1,1.2-.6-.6-1.5-.6-2-.1-.6.5-.5,1.5.1,2.1.3.3.7.5,1.1.5-.4.4-1,.7-1.7,1-.9.3-1.8.4-2.6.3-.3,0-.5-.1-.7-.2h0c-.1-.1-.2-.1-.2-.2.5-.2.9-.7.9-1.3.1-.9-.6-1.7-1.4-1.7-.9-.1-1.7.6-1.7,1.4,0,.4.1.9.4,1.2-1.1.3-2.7-.4-3.6-2.9.9-.2,1.6-1,1.6-2.1,0-1.2-.9-2.1-1.9-2.1h0c-.1-.7-.1-1.5-.1-1.6-.1-.5-.8-2.7-.8-2.7,0,0-.7,2.2-.8,2.7,0,.1-.1,1-.1,1.6h0c-1.1,0-1.9.9-1.9,2.1,0,1,.7,1.9,1.6,2.1-.9,2.6-2.5,3.2-3.6,2.9.3-.3.4-.7.4-1.2-.1-.9-.8-1.5-1.7-1.4-.9.1-1.5.9-1.4,1.7.1.6.4,1.1.9,1.3,0,.1-.1.1-.2.2h0c-.2.1-.4.2-.7.2-.8.1-1.7.1-2.6-.3-.7-.3-1.3-.6-1.7-1,.4,0,.8-.2,1.1-.5.6-.6.6-1.6.1-2.1s-1.4-.5-2,.1c0-.3,0-1-.1-1.2-.3-.7-3.3-.9-3.3-.9l.1.1c1.9,2.6,3.6,5.4,5,8.3,3.2-.2,6.9-.4,10.7-.4ZM67.9,26.2c3.1-.2,6.5-.4,10-.4s6.8.2,10,.4c.2-.5.4-1,.7-1.5-3.4-.2-7-.3-10.7-.3h0c-3.7,0-7.2.1-10.7.3.2.5.4,1,.7,1.5M55.4,42s1.1,2.6,4.7,2.4c4.1-.2,5.2-2.6,8-2.9,2.8-.3,4,.8,4.5,1.3-1,1.4-2.4.7-4.1.8s-2.8,1.2-4.6,1.2c.1.1,2.2,1.5,3.1,1.5,1.6-.1,1.7-1.8,3.7-1.7.6,0,1,.1,1.6.3,0,0,1.3-.4,1.8-1.2,1.9-2.8-.2-7.3-5.4-11.2-1.5-1.1-1.2-1.9-2.8-2.8-.5-.3-1-.5-1.1-.5-.6.1-1.2,1.1-1.5,2.4-1.6-.3-4.4.7-5.6,1.9-2.1,2-1.1,4.6.9,6.5.2.2.5.4.7.6.7-1.5,2.3-2.4,4.2-2.4.9,0,1.8.5,2.3.5s1.1-1,2.8-.9c2.8.2,4.3,2.1,4.6,3.8,0,.2,0,.4,0,.3-.4-.5-2.2-2.3-5.6-2.1-2.9.2-3.6,1.3-7.6,2.5-2.4.8-4.6-.3-4.6-.3"/>
</svg>