<?xml version="1.0" encoding="UTF-8"?>
<svg id="Lager_2" data-name="Lager 2" xmlns="http://www.w3.org/2000/svg" viewBox="0 0 200 200">
  <defs>
    <style>
      .cls-1 {
        fill: #e30613;
      }

      .cls-1, .cls-2, .cls-3, .cls-4, .cls-5, .cls-6 {
        stroke-width: 0px;
      }

      .cls-2 {
        fill: #ffed00;
      }

      .cls-3 {
        fill: none;
      }

      .cls-4 {
        fill: #fff;
      }

      .cls-5 {
        fill: #d4d4d4;
      }

      .cls-6 {
        fill: #1d1d1b;
      }
    </style>
  </defs>
  <g id="Lager_6" data-name="Lager 6">
    <polygon class="cls-6" points="64.7 16.7 69.5 16.7 69.5 14.7 68.3 14.7 68.3 9.4 71.8 16.7 75.3 9.4 75.3 14.7 74.2 14.7 74.2 16.7 78.7 16.7 78.7 14.6 77.8 14.6 77.8 5.5 78.6 5.5 78.6 3.3 75.7 3.3 71.9 11.4 68.1 3.3 64.7 3.3 64.7 5.4 66 5.4 66 14.7 64.7 14.7 64.7 16.7"/>
    <polygon class="cls-6" points="101.6 16.7 106.4 16.7 106.4 14.7 105.2 14.7 105.2 9.4 108.7 16.7 112.2 9.4 112.2 14.7 111.1 14.7 111.1 16.7 115.6 16.7 115.6 14.6 114.7 14.6 114.7 5.5 115.5 5.5 115.5 3.3 112.6 3.3 108.8 11.4 104.9 3.3 101.6 3.3 101.6 5.4 102.9 5.4 102.9 14.7 101.6 14.7 101.6 16.7"/>
    <path class="cls-6" d="M79.9,14.6h.9l3.6-11.3h1.6l3.6,11.3h.9v2h-4.5v-2.1h1.4l-.3-1h-3.8l-.3,1h1.4v2.1h-4.5v-2h0ZM83.9,11.6h2.5l-1.3-4s-1.2,4-1.2,4Z"/>
    <polygon class="cls-6" points="91.7 16.7 100.4 16.7 100.4 11.6 98.1 11.6 98.1 14.7 95.1 14.7 95.1 5.5 96.2 5.5 96.2 3.3 91.7 3.3 91.7 5.4 92.8 5.4 92.8 14.7 91.7 14.7 91.7 16.7"/>
    <rect class="cls-6" x="118.1" y=".5" width="1.8" height="1.8"/>
    <rect class="cls-6" x="121.5" y=".5" width="1.8" height="1.8"/>
    <path class="cls-6" d="M116.8,15.5V4.6l1.6-1.3h4.7l1.6,1.4v10.8l-1.6,1.2h-4.7l-1.6-1.2h0ZM122.2,5.5h-2.9v9.2h2.9V5.5h0Z"/>
    <path class="cls-4" d="M166.2,70.2c-1.1-7.7.8-13.5,5.9-17.6l8.4-6.8-48.8-30-4.1,2.7c-7,4.6-21.8,6.6-32.7,6.6h-.4c-10.8,0-25.7-2.1-32.7-6.6l-4.1-2.7-.7.4L9,45.7l8.4,6.8c5.1,4.2,7.1,9.9,6,17.6-.8,5.2-2.9,11.2-6.2,17.2-5,9.1-7.7,19.2-7.7,28.4,0,14.6,5.1,28.2,14.7,39.4,8.6,10,20.3,17.4,32.9,20.8,23.8,6.4,28.9,10.9,32.7,14.2l5,4.4,5-4.4c3.8-3.3,9-7.8,32.7-14.1,12.6-3.4,24.3-10.8,32.9-20.8,9.6-11.2,14.7-24.8,14.7-39.4,0-9.2-2.7-19.3-7.7-28.4-3.3-6.1-5.5-12-6.2-17.2h0Z"/>
    <path class="cls-6" d="M128.3,19.4c-7.2,4.7-22.3,6.8-33.3,6.8h-.4c-11,0-26.1-2.1-33.3-6.8l-3.4-2.2L11.2,45.9l7,5.7c5.5,4.5,7.6,10.6,6.4,18.8-.8,5.3-3,11.4-6.4,17.7-4.9,8.9-7.6,18.8-7.6,27.8,0,14.3,5,27.6,14.4,38.6,8.4,9.8,19.9,17.1,32.3,20.4,24,6.4,29.4,11.1,33.2,14.4l4.2,3.7,4.2-3.7c3.9-3.4,9.2-8,33.2-14.4,12.4-3.3,23.9-10.6,32.3-20.4,9.4-11,14.4-24.3,14.4-38.6,0-9-2.7-18.9-7.6-27.8-3.4-6.2-5.6-12.3-6.4-17.7-1.2-8.2.9-14.3,6.4-18.8l7-5.7-46.6-28.7-3.3,2.2h0Z"/>
    <path class="cls-6" d="M156.1,66.1c0-7.7,2.6-14.1,7.8-19.2-3.9-2.4-30.2-18.6-32.1-19.7-9.5,5.5-25.6,7.5-36.8,7.5h-.4c-11.2,0-27.3-2-36.8-7.5-1.8,1.1-28.1,17.3-32.1,19.7,5.1,5.1,7.8,11.5,7.8,19.2,0,1.8-.1,3.6-.4,5.5-.8,5.5-2.7,11.4-5.8,17.5h135.1c-3-6.1-5-12-5.8-17.5-.3-1.9-.5-3.8-.5-5.5h0Z"/>
    <path class="cls-1" d="M169,93.2H20.5c-2.5,5.3-5.5,13.5-5.5,22.7,0,13.2,4.6,25.6,13.3,35.8,7.8,9.2,18.5,15.9,30.1,19,25,6.7,30.8,11.7,35,15.4l1.3,1.2,1.3-1.2c4.2-3.6,10-8.7,35-15.4,11.6-3.1,22.2-9.8,30.1-19,8.7-10.2,13.3-22.5,13.3-35.8.1-9.2-2.9-17.4-5.4-22.7h0Z"/>
    <path class="cls-4" d="M167.5,90.2c-5.8-10.6-13.4-30.2,1.1-42l2.2-1.8-39-24-1.1.7c-8,5.2-23.7,7.5-35.7,7.5h-.4c-12,0-27.7-2.3-35.7-7.5l-1.1-.7-39,24,2.2,1.8c14.5,11.8,6.9,31.3,1.1,41.9-.5.9-1,1.9-1.5,3h148.4c-.5-1.1-1.1-2.1-1.5-2.9h0ZM27.2,89.1c3-6.1,5-12,5.8-17.5.3-1.9.4-3.7.4-5.5,0-7.7-2.6-14.1-7.8-19.2,3.9-2.4,30.2-18.6,32.1-19.7,9.5,5.5,25.6,7.5,36.8,7.5h.5c11.2,0,27.3-2,36.8-7.5,1.9,1.1,28.1,17.3,32.1,19.7-5.1,5.1-7.8,11.5-7.8,19.2,0,1.8.1,3.6.4,5.5.8,5.5,2.7,11.4,5.8,17.5H27.2Z"/>
    <path class="cls-3" d="M45.3,47.8l-1.9.2v9.2l1.6-.6c1.8-.8,2-2.9,2-4.9,0-.5,0-2.8-.9-3.6-.3-.2-.5-.3-.8-.3h0Z"/>
    <path class="cls-1" d="M147.3,58.2l-1.1-1.6c-1.5-2.1-2.7-3.8-2.7-6.2,0-1.2.3-2.1.9-2.5.3-.2.6-.3.9-.2,1.4.3,2.3,2.8,2.6,6.4.2,0,2.6.9,3,1,0-.4.1-12.8.1-13.1h-3c0,.3-.1,4.2-.1,4.2h0c-.6-3-2-4.4-3.3-4.6-.7-.1-1.4.1-2.1.7-.9.8-2.5,2.9-2.5,8,0,5.7,2,8.5,4,11.3,1.8,2.5,3.6,4.9,3.6,9.3,0,1.6-.4,2.8-1.1,3.2-.3.2-.7.2-1.1-.1-1.5-.9-2.5-4.2-2.5-7.9v-.3c-.1-.1-2-1.1-2.3-1.3,0,.5-.1,11.4-.1,11.5.1.1,1.9,1.5,2.3,1.7v-3.4h0s1.3,4.5,3.5,6.5c.4.3,1.5,1,2.7.4,1.1-.6,2.5-2.5,2.6-8.7,0-7.1-2.2-11.2-4.3-14.3h0Z"/>
    <path class="cls-1" d="M49.8,61.2c0-2.4-1.9-2.7-2-2.7h-.4l.3-.2c2-1.3,2.4-3.7,2.4-7.2,0-5.5-1.6-9-4-9h-8.1v6.6c.3,0,2.1-.3,2.1-.3v26.7s-1.2.9-1.3,1v6.9c1.8-1.9,3.8-3.7,6-5.3v-5.7c-.3.2-1.3.8-1.3.8v-10.6l1.2-.5s1-.3,1.6.1c.3.2.5.7.5,1.3.1.3.1,1.9.1,3.9,0,3.1,0,7.2-.1,9.1,1.4-1,2.8-1.9,4.3-2.8v-4.9c-.3.2-1.3.6-1.3.6v-7.8h0ZM45,56.5l-1.6.6v-9.1l1.9-.2c.3,0,.5.1.8.3.9.8.9,3.1.9,3.6,0,1.9-.2,4-2,4.8h0Z"/>
    <path class="cls-1" d="M52.2,47.1c.3,0,1.9-.2,1.9-.2v20.1s-1.5.7-1.7.8v4.8c3.5-1.9,7.3-3.7,11.3-5.1v-8c-.3.1-2.1.5-2.3.5,0,.2-.3,4.2-.3,4.2l-3.7,1.4v-7.7s3-.7,3.2-.8v-4.1c-.3,0-3.2.5-3.2.5v-6.8l3.8-.3s.2,3.6.2,3.9c.3,0,2-.3,2.2-.3v-8h-11.4s0,5.1,0,5.1Z"/>
    <path class="cls-1" d="M77.2,44.9c-1.1-2.1-2.6-2.9-5-2.9h-7.2v4.1c.3,0,1.5-.1,1.5-.1v16.5s-1.3.4-1.5.5v4c2.6-.9,5.3-1.7,8.1-2.3,4.3-1,5.8-7.1,5.8-12-.1-3.1-.6-5.8-1.7-7.8ZM72,61.3h0l-2.3.5v-15.9h2.1c.8,0,1.4.2,2,.8,1.2,1.1,1.8,3.5,1.8,6.8.1,4.5-1.2,7.3-3.6,7.8h0Z"/>
    <path class="cls-1" d="M86.4,45.2h1.4v4.8l-4.1.2v-4.9h1.4v-3.3h-6.4v3.4h1.7v14.5s-1.4.2-1.7.2v3.6c2.1-.3,4.3-.6,6.4-.8v-3.5c-.2,0-1.4.1-1.4.1v-6.2l4.1-.2v6.1s-1.2.1-1.4.1v3.5c2-.2,4.1-.2,6.2-.3v-3.5h-1.4v-13.8h1.7v-3.2h-6.4v3.2h-.1Z"/>
    <path class="cls-1" d="M103.3,45.3s1.2,0,1.5.1v-3.4h-8.8v3.2h1.6l-2.6,13.9h-1.1v3.4c1.9,0,3.8.1,5.7.2v-3.5c-.2,0-1.9-.1-1.9-.1l.8-3.8h3.9l.8,4.2s-1.6-.1-1.9-.2v3.5c2.2.2,4.4.5,6.6.8v-3.6c-.2,0-1.2-.2-1.2-.2l-3.4-14.5h0ZM99.4,52c.1-.3.7-4.3.9-5.3.2,1,1.1,5,1.2,5.3h-2.1Z"/>
    <path class="cls-1" d="M133.1,56.4l4.4-9.1s1.2.1,1.5.2v-5.5h-5.6v5c.2,0,1.5.1,1.5.1l-4.4,8.9v-9.3s1.2.1,1.5.1v-4.8h-5.6v4.4c.2,0,1.2.1,1.2.1v18.3s-1.3-.5-1.6-.6v4.2c2.1.8,4.1,1.7,6,2.7v-4.6c-.2-.1-1.5-.6-1.5-.6v-8.8h0l4.3,10.6s-1.3-.6-1.6-.7v4.7c2.1,1.1,4.2,2.3,6.2,3.6v-5.3c-.1-.1-1.1-.6-1.1-.6l-5.2-13h0Z"/>
    <path class="cls-1" d="M120,46c.2,0,1.3.1,1.3.1l-2.3,12.3-.2-.8-2.1-11.8s1,0,1.2.1v-3.9h-4.5v3.6c.2,0,1.2.1,1.2.1l-2.2,11.5-.2-.8-2.2-10.9h1.3v-3.5h-5.5v3.3h1.2s3.8,18.5,3.8,18.7c.2,0,2.1.4,2.3.5.1-.3,2.2-10.9,2.2-10.9h0s2.1,11.8,2.2,12c.2.1,2.4.7,2.7.8.1-.3,3.4-20.3,3.4-20.3,0,0,.9.1,1.2.1v-4.2h-5l.2,4h0Z"/>
    <path class="cls-4" d="M96.7,70.8c7-2.2,12.2-1.5,15.8-.8,5.8,1.1,8.4,3.5,8.4,3.5l-.1.6s2.5.5,3.9,1.1c1.6.7,4.2,2.1,5.8,3,1.6.9,4.5,3.1,4.5,3.1l.3,1.4s1.4.5,6.6,3.9c6.8,4.4,11.8,12.2,11.8,12.2l-.4.6s3.1,3.8,6.4,7.9c4.6,5.6,4.7,7.9,4.7,7.9,0,0,1.3.4,2.3,1.5,1.2,1.3,1.7,3.1,1.7,3.1,0,0,.9.7,1.6,1.7.7.9.7,2.1.7,2.1,0,0,.6-.1.5-.1,0,0,.4.7.7,1.1.4.4,1.1.8,1.3,1.2.7,1.3,0,1.1.8,3.1.8,2.2,4.1,6.6,4.1,6.6l-8.9,23.8s-20.8,8.4-25.6,6.6c-2.4-.9-3.4-3.4-3.4-3.4-1.1.9-5.2,1.8-5.2,1.8,0,0-.6,1.4-3.6,1.4-2,0-6.1.5-8.7,1.3-4,1.1-5.8,1.7-8.4,2.9s-8.7,3.9-8.9,4.4c-1,2.7-4.1,2.7-4.1,2.7h-13.2s-2.6-.5-3.6-2.3c0,0-4.2-2.3-6.5-3.3-8.2-3.8-13.3-4.7-17.9-5.1s-5.4-1.6-5.4-1.6c-4.8-.8-10.7-4.4-10.7-4.4-1-.6-2.2-1.8-2.3-1.9l-1-1h0c-.3-.1-.6-.1-.6-.1v-1.4c-1.2-.5-4.8-2.4-4.8-2.4l.7-1.4h0c-1-.5-3.1-2.3-3.1-2.3l.8-1.4q.1-.1.2-.2c-2.2-1.5-5.3-5.6-6.5-14.2h1.3c-.6-1.7-1.4-3.6-1.5-6.5-.1-1.3-.5-3.4.7-8.1l1.1.4c.1-1.6.5-4.2,1.1-6.1,1.8-5.5,5.4-10.5,8.4-11.7l.2-.1h.4c-.2-.9-.6-2.6-.6-2.6l8.8-10.6.2-.1c.2-.2,5.6-3.6,11-5.5l.4-.1s.7.1,1,.1c.4-1.3,1.3-4,1.3-4l12.9-5.8s1.9.4,3.1.6c.2-.9.7-2.7.7-2.7l4.2-1,4,2.4c-1,0,7.6-.8,10.6-1.8h0Z"/>
    <path class="cls-6" d="M145.4,107.4s0,.1,0,0c0,.1.1.1,0,0h0Z"/>
    <path class="cls-6" d="M151.9,119s-.1-.1,0,0l-.1-.1.1.1Z"/>
    <path class="cls-6" d="M91.5,81.7l-.1-2.2-.8-.1h-.3c0,.3.1.6.1.9h.2v.6h-.2c0,.1.1.4.2.9.4-.1.9-.1.9-.1h0Z"/>
    <path class="cls-4" d="M174.5,181.5c-.1-1-.3-2.1-.5-3.1-.1-.8-.3-1.6-.4-2.3h0c-1.8-11-4.1-19.3-6.9-25.3v-.1s-.1-.2-.2-.4c0-.2-.1-.3-.1-.3-.4-1.5-1-3.2-1.9-5.2l-1.7-3.5s-.6-1.3-.7-1.4v-.1l-.2-1.3c-.1-.6-.3-1.2-.5-1.7-.5-1.2-1.2-2.2-2.1-2.8h0c-.1-.2-.3-.4-.3-.4l-.5-.5h0l-.2-.2h0c0-.2.1-.4.1-.6,0-.8-.3-1.9-1.2-2.9l-.1-.1-.2-.2v-.1c.1-.3.1-.6.1-.9,0-.4-.1-.8-.3-1.3l-.5-.9s-.3-.4-.5-.6c0-.1-.1-.5-.1-.5-.2-.7-.5-1.4-1-2.2h0s-.4-.6-.5-.7-.2-.4-.2-.4c0,0-.1-.2-.2-.3,0-.1-.1-.2-.1-.2l-.2-.4c-.2-.4-.6-.8-.9-1.1,0-.1-.3-.3-.3-.4,0,0,0,.1.1.1l-.1-.1h0c-.6-.9-1.3-1.6-2.1-2.1-.3-1.4-1.2-2.7-2.6-3.6v-.5c0-.4-.1-.9-.3-1.7-.1-1.4-.6-2.6-1.5-3.6-.4-.6-1-1-1.6-1.5.1-.3.2-.7.3-1.1l.1-1.1-.6-.9c-.9-1.5-2.8-3.5-5.2-4.5-.1-.1-.1-.3-.1-.3l-.3-.5-.2-.3-.1-.2-.5-.4c-.2-.2-.5-.4-.7-.8l-.6-.8-.4-.6c-.8-1.2-1.9-2.5-3.9-3.5-.2-.2-.5-.4-.8-1l-.3-.4-.5-.8c-.4-.5-.7-1-1.1-1.4-.6-.7-1.3-1.3-2.2-1.8v-.2c0-.8-.4-1.6-1.1-2.2,0-.1-.1-.3-.1-.3l-.8-.7c-1.1-.9-2.1-1.8-3.2-2.9-1.1-1-2.3-2.1-3.5-3.1-1.5-1.3-3.7-3-6.2-4.4-.7-.6-1.5-.4-2.3-.7h0c-.8-.5.2.9-.8.6-2.6-1.2-5.8-.9-9.3,0h0l-1.7.8s-2.3-3.6-2.4-3.6c-3.8-4.6-7.7-8.8-11.7-13h0l-7.1-5.6.6,1.5,3.7,9.8.3.3,2.7,2.7c2.6,2.6,4.6,5.6,7,7.9-.4.3-1.1.8-1.4,1.1-.3.3-.7.7-.9,1.1-.8,1.1-.9,2.2-.9,2.9v.5h0v.1-.1l.2,3.1.9,3.3.1.2c.3.6,1.1,2.1,1.9,3.7l1,2c1.1,2.2,2.3,4.6,3.2,5.8.4.8.9,2,1.6,3.1,1,1.7,2.2,2.9,3.4,3.5h0s1.2.7,1.7.9c.4.9,1.2,2.9,1.8,3.6.5.6,1,1.1,1.4,1.6l.2.2c1,1.1,1.4,1.6,1.5,2.1v.2l.1.2c.2.3,1.7,2.8,2.5,3.7.9,1.1,1.8,2,2.8,2.7,0,0,.1.1.1.3.1.3.2.7.3,1.2l.1.3c.2.6.4,1.5.9,2.4s2.1,2.3,2.6,2.7l1,.8s.3-.4.5-.7c.3,1.3.6,2.7.6,2.7l.1.1c.5,1.1,1.3,1.5,1.6,1.6,0,0,.6.3.8.4.6.5,1.1,1.1,1.4,1.4-.1.2-.2,1-.2,1l.9,1.2c.1.1,1.1,1.4,2,1.9h.2c.1.1.3.1.4.1.3,1.3,1,3.8,1.8,5,.5.8,1.2,1.5,1.7,2.2,0,0,1.2,1.4,1.2,1.5.3.6.7,1.1,1,1.4l.7.7.4.4c.6.6.7.9.7.9v.7l.2.3s1.7,2.4,1.9,2.6c.1.2,1,2.4,1,2.4l.1.1.4.7.5,1.1.1.2.4.9c.5,1,1.6,1.7,2.2,2.1.2.4.5,1.1.5,1.1,1,2.2,2,4.4,3.2,6.7l1.5,3,8.3,13.1c3.7,5.8,7,10.3,10.3,14.1,1.1,1.2,2.8,2.8,5.4,2.7h.4l.4-.1c1.4-.5,2.4-1.6,2.9-3.1l.2-.9.2-.9s.5-3.3.5-3.4c.4-1.6.5-3.1.5-4.4l.1-1.7c0-.8.1-1.5.1-2.3.2-.5.2-.7.2-1.1h0ZM144.8,108h0Z"/>
    <path class="cls-6" d="M174.5,181.5c-.1-1-.3-2.1-.5-3.1-.1-.8-.3-1.6-.4-2.3h0c-1.8-11-4.1-19.3-6.9-25.3v-.1s-.1-.2-.2-.4c0-.2-.1-.3-.1-.3-.4-1.5-1-3.2-1.9-5.2l-1.7-3.5s-.6-1.3-.7-1.4v-.1l-.2-1.3c-.1-.6-.3-1.2-.5-1.7-.5-1.2-1.2-2.2-2.1-2.8h0c-.1-.2-.3-.4-.3-.4l-.5-.5h0l-.2-.2h0c0-.2.1-.4.1-.6,0-.8-.3-1.9-1.2-2.9l-.1-.1-.2-.2v-.1c.1-.3.1-.6.1-.9,0-.4-.1-.8-.3-1.3l-.5-.9s-.3-.4-.5-.6c0-.1-.1-.5-.1-.5-.2-.7-.5-1.4-1-2.2h0s-.4-.6-.5-.7-.2-.4-.2-.4c0,0-.1-.2-.2-.3,0-.1-.1-.2-.1-.2l-.2-.4c-.2-.4-.6-.8-.9-1.1,0-.1-.3-.3-.3-.4,0,0,0,.1.1.1l-.1-.1h0c-.6-.9-1.3-1.6-2.1-2.1-.3-1.4-1.2-2.7-2.6-3.6v-.5c0-.4-.1-.9-.3-1.7-.1-1.4-.6-2.6-1.5-3.6-.4-.6-1-1-1.6-1.5.1-.3.2-.7.3-1.1l.1-1.1-.6-.9c-.9-1.5-2.8-3.5-5.2-4.5-.1-.1-.1-.3-.1-.3l-.3-.5-.2-.3-.1-.2-.5-.4c-.2-.2-.5-.4-.7-.8l-.6-.8-.4-.6c-.8-1.2-1.9-2.5-3.9-3.5-.2-.2-.5-.4-.8-1l-.3-.4-.5-.8c-.4-.5-.7-1-1.1-1.4-.6-.7-1.7.3-2.5-.2,0-.1.3-1.8.3-1.8,0-.8-.4-1.6-1.1-2.2,0-.1-.1-.3-.1-.3l-.8-.7c-1.1-.9-2.1-1.8-3.2-2.9-1.1-1-2.3-2.1-3.5-3.1-1.5-1.3-3.7-3-6.2-4.4-.7-.6-.7.1-1.6-.2l-1.5-.3c-.8-.5-2.2,0-3.2-.3-3.2-.2-2.7-.3-6.2.6l-1.3.5-2.5-3.2h0c-3.8-4.6-7.8-8.8-11.8-13h0l-7.1-5.6.6,1.5,3.7,9.8.3.3,2.7,2.7c2.6,2.6,4.6,5.6,7,7.9-.4.3-1.1.8-1.4,1.1-.3.3-.7.7-.9,1.1-.8,1.1-.9,2.2-.9,2.9v.5h0v.1-.1l.2,3.1.9,3.3.1.2c.3.6,1.1,2.1,1.9,3.7l1,2c1.1,2.2,2.3,4.6,3.2,5.8.4.8.9,2,1.6,3.1,1,1.7,2.2,2.9,3.4,3.5h0s1.2.7,1.7.9c.4.9,1.2,2.9,1.8,3.6.5.6,1,1.1,1.4,1.6l.2.2c1,1.1,1.4,1.6,1.5,2.1v.2l.1.2c.2.3,1.7,2.8,2.5,3.7.9,1.1,1.8,2,2.8,2.7,0,0,.1.1.1.3.1.3.2.7.3,1.2l.1.3c.2.6.4,1.5.9,2.4s2.1,2.3,2.6,2.7l1,.8s.3-.4.5-.7c.3,1.3.6,2.7.6,2.7l.1.1c.5,1.1,1.3,1.5,1.6,1.6,0,0,.6.3.8.4.6.5,1.1,1.1,1.4,1.4-.1.2-.2,1-.2,1l.9,1.2c.1.1,1.1,1.4,2,1.9h.2c.1.1.3.1.4.1.3,1.3,1,3.8,1.8,5,.5.8,1.2,1.5,1.7,2.2,0,0,1.2,1.4,1.2,1.5.3.6.7,1.1,1,1.4l.7.7.4.4c.6.6.7.9.7.9v.7l.2.3s1.7,2.4,1.9,2.6c.1.2,1,2.4,1,2.4l.1.1.4.7.5,1.1.1.2.4.9c.5,1,1.6,1.7,2.2,2.1.2.4.5,1.1.5,1.1,1.1,2.4,2,4.4,3.2,6.7l1.5,3,8.3,13.1c3.7,5.8,7,10.3,10.3,14.1,1.1,1.2,2.8,2.8,5.4,2.7h.4l.4-.1c1.4-.5,2.4-1.6,2.9-3.1l.2-.9.2-.9s.5-3.3.5-3.4c.4-1.6.5-3.1.5-4.4l.1-1.7c0-.8.1-1.5.1-2.3.2-.5.1-.8.1-1.1h0ZM172.3,184.6l-.1,1.8c0,1.3-.1,2.6-.4,4h0v.1l-.6,3.4-.4,1.6c-.3.9-.8,1.5-1.6,1.7h.1l-.2.1h-.1c-1.4,0-2.5-.6-3.8-2-3.2-3.8-6.4-8.2-10.1-13.9l-8.3-13.1v.1c-.1-.2-.4-.8-1.5-2.9-1.1-2.2-2.1-4.4-3.1-6.6l-.7-1.6-.2-.5h-.7c-.3,0-.7-.4-1.1-1.1l-.4-.8-.1-.2v.1c-.1-.1-.2-.4-.6-1.2l-.3-.5h0s-.1-.2-.2-.3c0-.1-.1-.2-.1-.2,0,0-.3-.6-.5-1.1h.2v-.4c-.2-.4-.4-.8-.4-.8l-.1-.1-1-1.4-.2-.2c-.2-.3-.4-.6-.5-.8-.2.2-.3.4-.4.4v-.1c-.1-.6-.4-1.2-1.2-2.1l-.4-.5-.6-.7c-.2-.3-.6-.7-.8-1.1l-.1-.1-1.4-1.7c-.6-.7-1.1-1.4-1.6-2.1-1.1-1.6-1.6-3-1.7-4.6v-1.2h-1.1c-.1,0-.3,0-.4-.1-.5-.3-.8-.6-.8-.7v.1l-.4-.6s-.2-.2-.3-.4c.1-.2.2-.7.2-.7l-.1-.2c-.1-.6-.4-.9-.7-1.4l-.5-.6-.8-.5-.5-.3-1-.5c-.2-.1-.4-.3-.6-.6l-.2-.4h0s0-.1-.1-.1c0-.1-1.2-6.4-1.2-6.4,0,0-1.7,2.2-2.1,2.7-.5-.4-1-.9-1.3-1.5-.4-.7-.6-1.4-.7-2l-.1-.3c-.1-.5-.2-.9-.4-1.4-.2-.4-.4-.8-.6-1h0l-.1-.1h0c-.9-.7-1.7-1.4-2.6-2.5-.6-.7-1.1-1.5-1.7-2.3,0,0-.4-.5-.5-.7v-.2c-.2-1-.9-1.9-2-3.1l-.2-.2c-.5-.5-.9-1-1.3-1.5-.6-.8-1.1-1.4-1.3-2.2,0,0,0-.1-.1-.1v-.1s0-.1-.2-.9l-.1-.3-.1-.2-2.4-1.2c-.9-.4-1.7-1.3-2.5-2.7-.6-1.1-1.2-2.2-1.5-3v-.1l-.1-.1c-.8-1.1-2-3.5-3.1-5.7l-1-2c-.9-1.7-1.6-3.2-2-3.9l.1.2-.1-.3v-.3s-.2-.9-.3-1.5c.1,0-.5-4.2-.5-4.2,0-.5.2-1.1.6-1.7.2-.3,2.8-2.4,2.8-2.4l-1.3-2h0c-2.2-2.5-10.1-10.5-10.1-10.6l-1.3-3.5-1.7-4.5c1.5,1.2,4.5,3.5,4.5,3.6.5.5,6.5,6.5,11.4,12.7.1.1,1.5,1.8,1.5,1.8l1.8,2.7s.7-1.4.8-1.4,1.3-.7,1.3-.7c3.9-1,8.2-.6,11.2,1.2l-2.2-1.6h0c1.9.8,3.5,2.5,5,4.1.9.9,1.7,1.8,2.5,2.5,1.2,1,2.3,2,3.4,3s2.2,2,3.3,2.9l.2.2c0,.1.1.3.1.3l.2.2c.4.3.6.7.6,1v.2-.1l-.3,1,.3.2.5.3c.8.5,1.5,1,2.1,1.8.4.4.7.8,1,1.2l.5.7.3.4c.4.7.9,1.2,1.4,1.6h.1c1.6.7,2.5,1.8,3.2,2.8l.4.6.6.9c.4.5.7.9,1.1,1.2l.1.1c0,.1.1.2.1.2l.2.5.3.7.2.4.4.2c1.9.7,3.6,2.4,4.5,3.8,0,0,.1.2.2.3v.3c0,.3-.1.6-.3.8l-1,1.1,1.3.7c.7.4,1.3.9,1.8,1.5h0c.6.7.9,1.5.9,2.4v.2c.1.2.2.9.2,1.3v.2h0c0,.1-.1.2-.4.7l-.2.4,1.1.6c1.1.6,1.9,1.5,2.1,2.6l.2,1,.6.2c.7.3,1.2.8,1.6,1.5h0l.1.1.5.6.1.1c.3.3.5.5.7.8l.2.3.2.3h0l.2.3.2.4h0l.6.8c.4.6.6,1,.7,1.6l.1.2.1.6.1.1.1.1h0l.1.1s.4.6.5.6c0,.1.3.5.3.6.1.2.1.4.1.5,0,.2,0,.3-.1.5h0c0,.1-.1.1-.1.1l-.2.4.6,1.2.4.4.1.1c.2.2.7.7.7,1.5v.5l.1-.2-.2.7.1.1.5.9.5.4.3.3.3.3.1.1.1.1h0l.1.1c.6.4,1.1,1.1,1.4,1.9.1.4.3.9.4,1.4l.2,1.2.1.4v.1l.9,1.7,1.6,3.4c.9,1.9,1.4,3.4,1.8,4.9l.2.7s.3.5.4.5c2.8,5.8,4.9,13.9,6.7,24.7.1.7.2,1.6.4,2.4.2,1,.4,2,.4,2.9v.7c.2.4.1,1.1.1,1.9h0Z"/>
    <path class="cls-1" d="M82.6,60.6c3.5,3.5,6.9,7,9.9,10.4,17.4,21,35.1,40.6,49,63.6,3.9,6.7,7.8,13.2,11.2,20.1,4,8.6,7.9,17.2,11.6,26.1.1.2.4.2.5,0l-.1-.7c-6.2-15.7-13.1-29.6-20.9-44.2-.2-.5-.3-.9-.7-1.4-5.4-10.4-13.2-18.4-19.9-28.1-12.8-16.4-25.4-33.3-40.6-49l-2-1.7,2,4.9h0Z"/>
    <path class="cls-1" d="M165.3,181.9c.2-.1.5-.4.5-1v-.2c-1-3.1-2.1-5.9-3.4-8.9l-1.3-3.1c-3.1-6.9-8-17.5-9.8-20.8.5.1,1.3.4,1.3.4,1.1.3,2.1.6,3,1.1h0c1.1.3,2.2.9,3.3,1.4,1.5.7,3.1,1.4,4.7,1.7,2.7,5.7,4.8,13.6,6.6,24.2.1.7.2,1.5.4,2.3.2.9.4,1.9.4,2.9v.7c0,.7,0,1.4-.1,2.1l-.1,1.8c0,1.2-.1,2.5-.4,3.6l-.2.6h.1c-.1.8-.5,2.9-.5,2.9h0l-.2.7c-.1.7-.3,1.5-.9,1.7-1,0-1.8-.4-2.8-1.5-6.1-7.1-11.3-15.7-16.3-23.9,0,0-2.4-3.9-2.6-4.3.9-1,1-2.3.9-3.5,0-.9,0-1.7.4-2.4v-.4c.1-1.3.1-2.7.1-4,0-2.1,0-4.2.3-6.1,3.8,6.8,6.6,13.3,9.6,20.1,1.6,3.7,3.3,7.5,5.1,11.5v.1l.1.1c.7.2,1.3.4,1.8.2h0Z"/>
    <path class="cls-6" d="M142.5,143.7c.4,1.8,1.1,3.6.4,5.4.6,1-1.2,3.1-.6,4.3.4,1.3-.6,1.7,0,2.8,1.3,2.9,2.5,5.7,4,8.6l.3-1.2v.1c.3-1.1,0-2.7.6-4,0-2.7.3-5.8.2-8.6.5-1.2-.1-2.6.7-3.8l-4.7-8.3c-.1,1.7.2,3.2-.9,4.7h0Z"/>
    <path class="cls-4" d="M194.7,173.8h0l-.2-1.7c-.1-1-.2-2-.5-3.1-.3-1-.6-2.1-.9-3.1l-.6-2v-.1c-3.3-8.8-6.7-17.3-11.2-23.7,0,0-.3-.4-.4-.6,0-.1-.1-.1-.1-.1-.6-1.4-1.5-3-2.8-4.8l-2.2-3.1s-.8-1-.8-1.1c0,0-.1-.1-.1-.2-.3-1-.7-2-1.2-2.9s-1.1-1.4-1.6-1.8l-.5-.4-.9-.7-.1-.1-.3-.1c0-.1-.2-.2-.2-.2-1.1-.8,0-.4-1.1-1.3,0-.1-.9-.9-.9-1,0-.6-.6-.9-.9-1.4l-.3-.6-.8-.9-.8-1.2-2.1-1.6-.1-.9c-.7-.9-1.3-1.9-1.9-2.5-1.3-1.4-1.8-2.4-1.8-2.4l-1-1.6-1.2-1.4s-1.2-1.1-1.2-1.2l-1.1-1.2-1.3-1.8c-.3-.6-3-3-3.7-3.6-.4-.4,1.4-.4.6-.7.1-.4-1.4-2-3.4-4.3-1.1-1-2.4-2.2-3.2-3.1-1.5-1.8-2.5-2.9-4.4-3.6-.1,0-1.5-.9-2.3-1.7l-2.6-2c-.3-.3-1-1.2-1.4-1.5-.6-.5-1-1.1-1.7-1.3-.1-1.1-1.5-1.2-2.5-1.8-2.9-1.5-3.2-2.2-6.2-3-4.1-1.1-3.3-1.3-6.3-2.7-4.5-2-11.5-3.4-16.4-1.4l-.7-.2-1.4.4-.6-.3c-4.9-3.5-9.8-6.7-14.8-9.8h0l-9.7-4.2.9,1.3,7,10,.4.2,3.3,1.9c3.1,1.8,6,3.5,8.6,5.3-.3.3-.6.7-.8,1-.3.4-.5.8-.7,1.3-.4.9-.5,1.7-.5,2.3,0,.4.1.8.2,1.1,0,.1.1.6.1.7v.2c0,.4.1.8.2,1.1h-.1l.8,1.6c.1.3.3.8.8,1.9l.2.5.4.4c.3.3.9,1.1,1.5,1.9l2.4,3.2c1.4,1.9,3.1,4.1,4.2,5.2.5.8,1.2,1.8,2.1,2.8,1.3,1.5,2.6,2.5,3.9,2.9,0,0,1,.3,1.6.5,0,.1.1.2.1.2l.1.4.2.4c.5.8,1.2,1.6,2.1,2.4.6.5,1.2.9,1.7,1.3l.2.2c1.2.9,1.6,1.3,1.8,1.8l.2.6.5.5.4.4c.7.7,1.4,1.4,2.2,2.1,1.1.9,2.1,1.6,3.2,2.2l.2.2c.2.3.4.7.5,1.1l.1.3c.3.6.7,1.4,1.3,2.2.7,1,1.7,1.7,2.7,2.1h0l1.8.6s.1-.1.1-.2c.2.6.6,1.5.6,1.5l.2.3.3.3v-.1c.7,1,1.6,1.3,1.9,1.3l1.1.3s.4.1.9.3l.2.2.3.3c0,.3-.1,1.2-.1,1.2l1.1,1,.5.5c.3.3.9.7,1.8,1h.5c.5,1.6,1.4,3.1,2.8,4.6.7.7,1.4,1.3,2.1,1.9l.1.1s1.3,1.1,1.3,1.2c.4.6.9,1,1.2,1.2l.8.6.5.4c.6.5.8.7.8.7.1.2.4,1.6.4,1.6,0,0,2.2,1.2,2.9,2.2.2.4.4.7.4.7l.3.4.4.4c.1.1.2.3.2.3l.7,1,.1.2.6.8c.8,1,1.7,1.6,2.6,1.7.3.4.6.9.6.9,1.3,1.9,2.7,4,4.2,6l2,2.6s1,.8,1.1.9c.6.7,6.5,7.5,9.3,10.6,4.6,5.1,8.6,8.9,12.5,12.1,1.3,1,3.2,2.2,5.8,1.7l.4-.1.4-.2c1.3-.7,2.1-2,2.3-3.6l.1-1v-4.2.1-.1.1c.1-1.6-.1-3.2-.3-4.4h0ZM91.8,82.5h0c.1.1.1,0,0,0ZM194.1,178.2h0Z"/>
    <path class="cls-6" d="M194.7,173.8h0l-.2-1.7c-.1-1-.2-2-.5-3.1-.3-1-.6-2.1-.9-3.1l-.6-2v-.1c-3.3-8.8-6.7-17.3-11.2-23.7,0,0-.3-.4-.4-.6,0-.1-.1-.1-.1-.1-.6-1.4-1.5-3-2.8-4.8l-2.2-3.1s-.8-1-.8-1.1c0,0-.1-.1-.1-.2-.3-1-.7-2-1.2-2.9s-1-1.1-1.5-1.4l-.8-.6-.8-1-1,.3h0c0-.1.3-.6.3-.6-.1-1.7-1-2.6-2.1-3.5,0-.1-.7-1.7-.8-1.8-.8-1.8-2-2-2.4-2.5l-1.1-.3-.1-.6c-.5-1-.6-1.4-1.2-2.6-.9-1.5-2-2.6-3.3-4.3-1.1-1.5-3.9-5.2-3.9-5.2-1.6-1.7-2.3-2.9-3.4-3.7l.7-.8c-.6-.9-1.9-2.5-3.4-4.2-3.4-3.8-5.2-5.4-11.6-9.5l-3.3-1.8-.1-1.2c-2.3-1.2-7.9-6.4-14.7-7l.4-.7s-1.4-.9-2.9-1.6c-5.5-2.4-13.5-3.2-19.2-.5h0c-4.9-3.5-9.8-6.7-14.8-9.8h0l-9.7-4.2.9,1.3,6.9,10,3.7,2.2c3.1,1.8,6,3.5,8.6,5.3-.3.3-.6.7-.8,1-.3.4-.5.8-.7,1.3-.4.9-.5,1.7-.5,2.3,0,.4.1.8.2,1.1,0,.1.1.6.1.7v.2c0,.4.1.8.2,1.1h-.1l.8,1.6c.1.3.3.8.8,1.9l.2.5.4.4c.3.3.9,1.1,1.5,1.9l2.4,3.2c1.4,1.9,3.1,4.1,4.2,5.2.5.8,1.2,1.8,2.1,2.8,1.3,1.5,2.6,2.5,3.9,2.9,0,0,1,.3,1.6.5,0,.1.1.2.1.2l.1.4.2.4c.5.8,1.2,1.6,2.1,2.4.6.5,1.2.9,1.7,1.3l.2.2c1.2.9,1.6,1.3,1.8,1.8l.2.6.5.5.4.4c.7.7,1.4,1.4,2.2,2.1,1.1.9,2.1,1.6,3.2,2.2l.2.2c.2.3.4.7.5,1.1l.1.3c.3.6.7,1.4,1.3,2.2.7,1,1.7,1.7,2.7,2.1h0l1.8.6s.1-.1.1-.2c.2.6.6,1.5.6,1.5l.2.3.3.3v-.1c.7,1,1.6,1.3,1.9,1.3l1.1.3s.4.1.9.3l.2.2.3.3c0,.3-.1,1.2-.1,1.2l1.1,1,.5.5c.3.3.9.7,1.8,1h.5c.5,1.6,1.4,3.1,2.8,4.6.7.7,1.4,1.3,2.1,1.9l.1.1s1.3,1.1,1.3,1.2c.4.6.9,1,1.2,1.2l.8.6.5.4c.6.5.8.7.8.7.1.2.4,1.6.4,1.6,0,0,2.2,1.2,2.9,2.2.2.4.4.7.4.7l.3.4.4.4c.1.1.2.3.2.3l.7,1,.1.2.6.8c.8,1,1.7,1.6,2.6,1.7.3.4.6.9.6.9,1.3,1.9,2.7,4,4.2,6l2,2.6s1,.8,1.1.9c.6.7,6.5,7.5,9.3,10.6,4.6,5.1,8.6,8.9,12.5,12.1,1.3,1,3.2,2.2,5.8,1.7l.4-.1.4-.2c1.3-.7,2.1-2,2.3-3.6l.1-1v-4.2.1-.1.1c.1-1.7-.1-3.3-.3-4.5h0ZM91.8,82.5h0c.1.1.1,0,0,0ZM166.9,122.1c2.2,1.9,1.1,2.4,1.1,2.4,0,0,.3.4.4.5,0,.1.3.9.3.9l.4-.1h.5c.1.1.8.6.8.6l.5.3c.4.3.8.7,1.2,1.3.5.9.9,1.8,1.1,2.8v.1l.3.4.8,1.1,2.2,3.1c1.2,1.7,2,3.2,2.6,4.5l.1.3.5.7c4.4,6.2,7.7,14.5,11,23.3l.6,2c.3,1,.7,2.1.9,3,.2,1,.4,2,.5,2.9l.2,1.8h0c.1.9.3,1.8.3,2.7,0,.5,0,.9-.1,1.4h0v3.5c0,.1-.1,1.5-.1,1.5-.1,1.1-.6,1.9-1.5,2.4,0,0-.1.1-.2.1h-.2c-1.5.3-2.8-.1-4.4-1.3-3.8-3.1-7.8-6.9-12.3-11.9-3-3.2-9.3-10.5-9.4-10.6h0s-1.3-1.2-1.4-1.3c0-.1-2-2.7-2-2.7-1.1-1.4-2.3-3.2-3.5-5.1l-1.3-2-.4.1c-.5.1-1.1-.3-1.6-1l-.5-.8-.1-.2-.8-1-.4-.4h0l-.3-.3c0-.1-.1-.2-.1-.2,0,0-.1-.1-.3-.4h0c0-.1-.1-.2-.2-.3h0c-.7-.8-3-2.6-2.9-2.9-.1-.3-.1-.5-.1-.5-.1-.5-.5-.9-1.4-1.6l-.5-.4-.7-.6c-.3-.2-.7-.6-1-1.1h0l-1.5-1.3-.1-.1c-.7-.6-1.4-1.1-2-1.8-1.4-1.4-2.2-2.9-2.5-4.4l-.1-.7-.7.1h-.6c-.6-.2-1-.5-1.1-.6l-.5-.5s-.3-.3-.5-.4c0-.3.1-.9.1-.9v-.1c-.2-.5-.4-.8-.8-1.1l-.5-.4h-.1c-.7-.3-1.3-.5-1.3-.5l-1.1-.3c-.3-.1-.7-.2-.9-.7l-.3-.3s-.1-.1-.1-.2-1.8-4.9-1.8-4.9c0,0-1,1.9-1.2,2.3-.2-.1-.4-.1-.4-.1-.8-.3-1.4-.8-2-1.6-.5-.7-.8-1.4-1.1-1.9l-.1-.3c-.2-.4-.4-.9-.6-1.3-.2-.3-.4-.6-.7-.8h0c-1-.5-2-1.1-3-2-.7-.6-1.4-1.3-2.1-2l-.4-.4-.2-.2c0-.1-.1-.3-.1-.3-.3-.9-1.1-1.6-2.4-2.5l-.3-.2c-.5-.4-1.1-.8-1.6-1.3-.8-.7-1.3-1.3-1.8-2,0,0-.1-.1-.1-.2s-.1-.2-.1-.2l-.3-.8-.1-.1-.1-.2-2.3-.7c-1-.3-2-1.1-3.1-2.4-.8-.9-1.6-2-2-2.7h0c-1-1-2.6-3.1-4.1-5.1l-2.4-3.2c-.7-.9-1.2-1.7-1.6-2l-.2-.2c0-.1-.1-.2-.1-.2-.3-.8-.6-1.5-.8-1.9.4-.1,1.2-.4,1.2-.4l-.3-1.3h-.4c-.8.1-1.1,0-1.3,0-.1-.2-.1-.3-.1-.4v-.6l-.1-.6h0c-.1-.2-.1-.5-.1-.8,0-.5.1-1,.4-1.6.2-.4.4-.8.6-1l1.5-1.7-1.3-1h0c-2.8-1.8-5.7-3.6-8.8-5.4,0,0-3.4-2-3.5-2.1s-4.6-6.6-5.9-8.5c2,.9,6.7,2.9,6.8,3,5.1,3.1,9.9,6.3,14.9,9.9.2.1,1.7.1,1.7.1h0s8.2-1.7,13.4-.4c1.5.4,3,.7,4.9,1.6.1.1-1.7,1.6-1.6,1.7s2.5.1,2.6.1c2.5.2,4.6,1,5.9,1.6,2.3,1,5.6,2.8,7.8,4.9,0,0-2.1.8-3.2,1.7h0s2.8-1,5.3.5c9.8,5.7,12.1,8.5,16.3,13.5l-1.1.7s.4-.2,2.4,2.6c2.2,2.9,2.7,3.4,4.3,5.5.6.7,1.9,2.4,3.9,5.1,2.2,2.8,2,3.7,2,3.7l-1.2.4c.1.2,2.6.5,2.8.6,1.2,1.7,1.9,1.7,2.4,2.8.4,1,.6,1.7.6,1.7l.3.7h0ZM194.1,178.2h0Z"/>
    <path class="cls-1" d="M82.2,67.8c4.4,2.7,8.4,5.2,12,7.7,22,15.8,41.8,33,59.4,53.2,4.9,5.9,9.9,11.6,14.4,17.8,5.4,7.7,10.7,15.6,15.8,23.6.2.2.5.1.5-.1l-.2-.7c-8.8-14.4-17.9-26.8-28-39.7-.3-.4-.5-.9-.9-1.2-7-9.3-15.7-17.1-23.9-25.4-15.4-14-36.2-31-49.8-38.7l-2.6-1.1,3.3,4.6h0Z"/>
    <path class="cls-6" d="M94.6,79.8s-1,1.4-.6,2.1c.5,2.8-.4.1.6,2.6,0,.1.2.1,1.1,2.5,1.3,1.5,6.6,9.2,8,10.3,1.1,1.7,2.9,4.3,4.6,4.8.3-1.2.3-1.5,0-2.5.6-.9-1-3.2.1-3.5.6.2.7.9.8,1.6-.2.7,0,1.3.1,1.9.5,1.8,2.1,3.5,2.6,5.3,1.7,2.6,5.2,3.6,6.2,6.2,1.7,1.7,3.2,3.3,5.3,4.2,2.1,1.2,3.8,5.3,3.8,5.3.1-.2.4-.2.4-.4.1-.6.1-1.3.5-1.9-.1-1,0-2.3,1.2-2.8,0,1.4.8,2.6,1,4.1v.4l1.6,4.3q.2.3.3.4t1.3.4s1,.3,2,.8c-.2,0,.1.1.4.5.7.7,1.3,1.4,1.2,2.5.4.3.6.6,1,.8,1.4.3,1.6-4.8,2.3-2.2-.2.8-.7,2.6.1,3.2.3,3.7,3.7,5.5,5.9,7.6.8,1.3,3.4,2.2,3.9,4.2l.5.1c.5-1.1-.1-2-.2-3,.4-.7-.4-2.2.6-2.2.9.2.1,1.2.1,1.9.1,1.1.3,3.1.7,4.4,0,0-.2-.4,1.6,2.5.8.6,2.5,3.4,2.3,2.9.3-.4.2-1.3.2-2.3s0-2.1-.3-2.5c.2-1.8.4-3.5-.4-5-.5-1.3-1-2.5-.3-3.8-.2-1.2-.3-2.8,0-4-3.7-4.1-7.4-8.2-11.2-12.2-7.3-7.6-14.8-14.8-22.6-21.7-2.4-2.1-4.8-4.2-7.2-6.2-5.6-4.6-11.3-9.3-17.3-13.4-.9.3-1.8,1-2.2,1.8h0Z"/>
    <path class="cls-6" d="M160.8,133.8s-1.2-1.6-1.8-2.3c3.1.9,6.1,1.2,9.2,1h0c.6-.1,1.2,0,1.8.1.7.1,1.5.1,2.2,0,.2.3.6.9.6.9,1.6,2.2,3.2,4.4,4.3,6.7-.7-.1-1.4-.2-2.2-.4l-2.1-.4c-1.3-.4-2.5-.5-3.6-.7-1-.1-2.1-.3-3.2-.6h-.2l-.3-.1c-.4-.1-1.1-.3-1.6-.2-.9-1.2-2-2.6-3.1-4h0Z"/>
    <path class="cls-1" d="M164.7,140h0c.1,0,0,0,0,0ZM184.9,170.9c.1-.1.4-.4.4-.8v-.5c-1.5-2.9-3.1-5.4-4.8-8.1l-1.8-2.9c-4.2-6.2-10.9-15.8-13.2-18.7.5.1,1.4.1,1.4.1,1.1.1,2.1.2,3.2.5h0c2.7.3,5.3.8,8.4,1.5,4.2,6,7.5,14.2,10.7,22.7l.6,2c.3,1,.6,2,.9,2.9.2.9.4,1.9.4,2.8l.2,1.7c.1.8.2,1.6.3,2.4,0,.4,0,.8-.1,1.2l-.1.6s.1,0,.1-.1c0,.8-.1,2.9-.1,2.9h0v.8c0,.7-.1,1.5-.6,1.9-1,.2-1.8-.1-3-1-7.2-5.9-13.8-13.4-20-20.7,0,0-3-3.4-3.3-3.8.6-.8.7-1.7.7-2.6,0-.6-.1-1.1-.2-1.7-.1-.6-.2-1.1-.2-1.7v-.2h0c-.1-1.3-.4-2.6-.6-3.9-.4-2-.7-4.1-.8-6.1h0c4.9,6.1,8.7,11.9,12.8,18.1,2.2,3.3,4.5,6.8,7,10.4l.1.1h.1c.5.5,1.1.5,1.5.2h0Z"/>
    <path class="cls-6" d="M156.1,137.4c.7,1.7,1.6,3.3,1.3,5.3.8.9-.2,6.1.5,7.2,1.8,2.6,3.4,5.1,5.4,7.8l.1-1.2v.1c.1-1.1-.4-2.6-.1-4-.4-2.7-.6-5.4-1.1-8.1.3-1.3-.7-2.3,0-3.6l-5.9-7.6c.1,1.4.6,2.4-.2,4.1h0Z"/>
    <path class="cls-6" d="M171.7,130.7c-.2-.6-.6-1.7-1.6-2.6-1-.9-.9-.6-1.6-.5-.7.1-.8-.5-1.1-1.6h-8.7s.9-.1.9-.2l7.6-1.1c-.2-.6-.4-1-.9-1.4-.7-.7-1.5-1.6-1.7-2.6s-.9-.7-2-2.7l-4.8-1.2h0c-.1-.2-.1-.5-.2-.7l3-.7c0-.6-.5-1.2-1.7-2.6-2.7-3.2-4.3-5.5-5-6.4,0,0-1.7-1.9-3.1-4.1-.4-.7-2.8-3-3.2-3.7l-.1.1h0l.8-.6c-2.4-3.3-4.3-4.5-5.7-5.9-1.3-1.3-7.5-5.5-9.7-6.6-1.2-.6-3.4-.6-4.9-.6l-.3-.8c1.2-1.4,2-1.7,2-1.7,0,0-2.8-2.1-5.7-3.4-1.4-.7-3.8-1.3-5.6-1.6l-3.4-1.5-2,.3c.8-.7,1.5-1.2,1.5-1.2-1.6-.6-3-1-4.6-1.3l-.1-.1c-2.5-1.1-6.4-1.9-6.4-1.9,0,0-.5-.2-3.2-.5-6.3-.8-14.9.8-14.9.8l-1.5-1-5,1.2-.8,3.3-4.1-.8-11.9,5.4-1.5,4.6-1.9-.3c-5.3,1.9-10.7,5.4-10.7,5.4l-8.1,9.8.8,3.6-2,.2c-2.4,1-5.8,5.5-7.5,10.7-1.8,5.2-.9,9.9-.9,9.9-.7-.3-1.8-1.5-1.8-1.5-1.4,7.8,2.4,12.8,2.4,12.8-.2,0-1.8.2-1.8.2,1.9,10.6,6.7,12.6,6.7,12.6,0,.2-.6,1.4-.6,1.4l2.7,2.1-.3,1.2,3.8,2v1.2l1.8.4-.6.8s1.2,1.2,2,1.7c6.5,3.9,10.9,4.2,10.9,4.2,0,0,.4,1.3,5.8,1.9,7.8.9,14.2,3.9,18.2,5.8,4,2,6.7,3.3,6.7,3.3,0,0,8.5,5.9,10,4.4s11.7-7.5,18.6-10.4c6-2.6,12.8-3.7,15.6-3.8s3.2-1.5,3.2-1.5c3.5-.4,3.4-.8,6.4-2.1s6.6-3.6,6.6-3.6c-1.6-.9,1.9-2,1.9-2-2.3-.7,2.8-2.1,2.8-2.1-2.3-1.7,1.1-2.4,1.1-2.4-1.4-2.7-.8-2.4.9-4.1,4.8-4.6,5.3-12,5.3-12l-1.4.1c.7-1.4,1.2-2.7,1.5-4,.7.2,1.9.5,3.1.5,1.8.1,3.9.3,5.5.5s1-.4,2.8-.5c1.9,0,1.9.1,1.7-.5h0Z"/>
    <path class="cls-4" d="M152.6,138.3s1.8-2,3.5-5.8,1.4-7,1.4-7c0,0-.2.9-1.3,2.6-1.1,1.6-2.6,1.8-2.6,1.8.1-.9,2-5.6,2.6-8.1s-.8-6.1-1.6-8.2-1.5-3.2-3.2-5.5-2.3-2.6-4-2.1c-9,2.5-12.5,6.3-13.9,7.4-1.4,1.2-9.7,8.5-9.7,8.5,13.5-15.6,22-16.1,22.1-16.4s1.2-3.3.8-4.6c-.5-1.2-6.3-8.3-8.9-9.9s-7.1-3.2-7.1-3.2c0,0-2.3-.1-4,.8s-5.2,4.4-7.7,7.1-6.8,9.6-6.8,9.6c1.4-2.8,4.8-8.6,7.6-12,2.9-3.4,7.3-6.1,7.3-6.1,0,0-1.8-4.2-2.2-4.4-.4-.2-10.1-4.7-10.1-4.7,0,0-1.9.3-2.7.4-.8.1-1.4.3-1.4.3,0,0-.8.6-3.2,2.8-2.4,2.3-6.8,9.3-6.8,9.3,4.4-8.5,9.2-12.7,9.2-12.7l-1.6-3.2c-9.9-3.1-17-2-19.7-1.8-2.2.2-7.3,1.5-7.7,2-.4.5-1.2,3.3-1.2,3.3l3.5,3.4c3.5,3.4,5.3,9,5.3,9-3-6.6-8.6-11.2-9.1-11.7s-1-1-1.9-1.1c-1.1-.2-2.9-.4-3.4-.2s-9.7,4.1-10,4.6c-.3.5-1.5,4.6-1.5,4.6,8.9,4.3,14.2,16.4,14.2,16.4-5.1-9.1-11-13.4-13.1-14.7-2.1-1.3-3.6-2-4.9-1.5-1.2.5-7.7,3.2-8.8,4.2s-7.5,8.7-7.5,8.7l1.2,4.6c13.6,5.1,18.3,16.9,18.3,16.9-8.8-14.5-19-16.2-19-16.2h-.5c-5.2-.2-7.5,5.8-9.2,11.2-1.8,5.6-.1,9.5.3,10.8.4,1.3,1,2.3,1,2.3-1.7-1-3.1-3.8-3.1-3.8-.5,6.3,4.4,12.1,4.4,12.1-1.1,1-3.4-1.1-3.4-1.1,0,0-.1.6.8,2.8,1.5,3.9,3.4,5.5,4.7,6.3s1.6,1,1.8,1.9-1.8,1.5-1.8,1.5c1.6,0,2.1.4,2.7,1.5.5.9-.5,1.3-.9,1.5h0c.2,0,.9,0,2.6.6,2.5.9,1.2,1.8,1.2,1.8,1.1-.2,2.4.6,2.5,1.1.1.6-.5.7-.5.7,0,0,.8.5,2.3,1.5,4.5,2.8,7.2,2.9,7.2,2.9-.6-2.7,3.3-4.3,6.8-3.7s9.8,3.3,12.6,4.4c2.7,1,7.1,3.4,7.1,3.4-.1-.2-.4-1.8-.4-3.1-.1-1.3.2-2,.2-2v-.3c-.1-.6-2.1-8-2.2-8.4,0-.1-.1-.5-.2-.9,0-.1,0-.2-.1-.3-.1-.9-.3-1.8-.3-1.8l-.2-5.1.1.3s.4-.7.9-2.4c.6-1.7,6.1-12.5,6.6-13.6s1.8-5.1,1.8-5.1c0,0,.2.9,1.1-.1.8-1.1.8.2,1.8-1.1s4.1-3,5.6-3,4.3,3.9,5,3.7,1.1,3.6,1.1,3.6l.8-.1s.2,1.3.2,2.2c-.1.9,2.3,4.1,3.3,6.1s3,8.4,3,8.4l.9,7.1-2.9,10.3s.3.1.5,1.9-.7,3.9-.7,3.9c0,0,16.2-8.6,21.7-8.3,5.4.3,4.8,4.1,4.8,4.1,4.9-.4,9.7-4.3,9.7-4.3-.3-.1-1.2-.4-.7-1.1.6-.7,2.4-.9,2.4-.9-.7-.6-.4-1.1.8-1.6,1.1-.6,3.1-1.1,3.1-1.1-1.2-1-1.1-1.2-.4-2,.8-.8,1.7-.8,1.7-.8-1.9-1.7-.8-2.4.4-3.2,1.1-.9,2.5-2.2,3.4-3.5,1.3-1.8,2.2-5.8,2.2-5.8,0,0-1.2.8-1.8,1-.7,0-2.2.5-2.2.4h0Z"/>
    <path class="cls-2" d="M67.7,160.4c-8.4-2.7-9.7.8-7.5.9,2.2.2,6.8,1.1,9.8,2,5.4,1.8,9.6,3.9,13.5,6.1l.2.1s.2.4.2.6c.1.2.2.8.2.7-7-4.2-13.8-7.2-26-8.6-1.5-.2-1.3-1.2-1-1.8.6-1,2.5-3.3,10.6,0h0Z"/>
    <path class="cls-2" d="M124.6,159.4c7.4-1.9,6.8,1.6,4.6,1.8s-6.8,1.1-9.8,2c-5,1.6-9.2,3.7-13.8,6.2l-.4,1.4c7.6-4.4,14.6-7.4,26.1-8.6,1-.1,1.3-.9,1.1-1.8-.2-1-1.3-3.2-7.8-1h0Z"/>
    <path class="cls-5" d="M75,114c1.1,2.2,2.6,7,2.6,7,0,0-3.1-6.7-5.9-10.5-2.2-3.1-6.3-7.3-6.3-7.3,0,0,4.2,3.2,6.4,6,1.4,1.7,2.1,2.7,3.2,4.8h0Z"/>
    <path class="cls-5" d="M37.6,141c2,2.2,3.4,3.5,5.8,5.3l1.1.6c-2.7-2.1-3.3-5.3-6.9-5.9h0Z"/>
    <path class="cls-5" d="M108.9,121.6s1.6-2.8,2.9-4.5c2.2-2.8,6.5-6.2,6.5-6.2,0,0-4.2,4.1-6.2,7.2-1.3,2-2.9,5.3-2.9,5.3l-.3-1.8h0Z"/>
    <path class="cls-5" d="M45.1,100.8s6.6-7.7,7.3-8.2,6-2.9,7.7-3.4,2.9-.9,2.9-.9l-.1-.1c-1.6-.9-2.9-1.3-3.9-.9-1.2.5-7.7,3.2-8.8,4.2s-7.5,8.7-7.5,8.7l1.2,4.6c10.6,3.9,15.8,12,17.6,15.4l.7,1.4s-4.4-14.2-17.1-20.8h0Z"/>
    <path class="cls-5" d="M77.7,78.2c-1-.1-2.9-.4-3.4-.2s-9.7,4.1-10,4.6c-.3.5-1.5,4.6-1.5,4.6,8,3.8,13.1,14,14.1,16.1,2.3,4.7,3.6,7.7,3.6,7.7-1.6-8.9-7.1-18.8-10.1-21.9s-4.6-4.6-4.6-4.6c0,0,.1-.5,2.5-1.8s7.1-3.1,7.1-3.1h2.9c.7,0,1.5.3,2.2.7-.5-.4-.8-.7-.9-.8-.5-.7-1.1-1.2-1.9-1.3h0Z"/>
    <path class="cls-5" d="M87.7,85.3c-1.8-4.1-5.8-8.5-5.8-8.5,3.4-1.6,11.7-2.3,16.8-1.8,5.2.5,8.6,1.8,8.4,2.1-.6.8-2.8,4.1-4.5,7.1-2.1,3.7-2.5,7.8-2.5,7.8.2-.3.9-1.8,1.1-2.1,4.2-7.8,8.7-11.7,8.7-11.7l-1.6-3.2c-9.9-3.1-17-2-19.7-1.8-2.2.2-7.3,1.5-7.7,2-.4.5-1.2,3.3-1.2,3.3l1,1c.6.5,1.2,1.1,1.7,1.7.3.2.5.5.8.8,2.9,2.8,4.7,7.1,5.2,8.5,1,2.3,1.4,4,1.4,4,0,0-.5-5.4-2.1-9.2h0Z"/>
    <path class="cls-5" d="M114.5,79.5c1,.4,8.9,4.3,9.2,4.8s-.8.4-4.1,4.5c-3.3,4.1-7,13-10.6,23,0,0,1.2-3,3.3-6.9-.2.2-.2.4-.2.4,1.4-2.8,4.8-8.6,7.6-12,2.9-3.4,7.3-6.1,7.3-6.1,0,0-1.8-4.2-2.2-4.4-.4-.2-10.1-4.7-10.1-4.7,0,0-1.9.3-2.7.4-.8.1-1.4.3-1.4.3,0,0-.2.1-.6.5,1.2-.1,3.7-.1,4.5.2h0Z"/>
    <path class="cls-5" d="M130.1,89.3c.8.1,4.9,1.7,7.4,3.9s6.6,7.2,6.6,8.3c0,0-6.1,3.6-10.5,7.9-4.6,4.5-8.5,9.4-13.5,16.8,0,0,2.9-3.5,4.1-4.7-.3.2-.4.4-.4.4,13.5-15.6,22-16.1,22.1-16.4s1.2-3.3.8-4.6c-.5-1.2-6.3-8.3-8.9-9.9s-7.1-3.2-7.1-3.2c0,0-2.3-.1-4,.8-.4.2-.9.6-1.4,1,1.2-.1,4.2-.3,4.8-.3h0Z"/>
    <path class="cls-6" d="M147.2,123.1l.7.3h0c-.6.4-.9.8-1,1,.4-.1,1.5.1,1.9.4h0c-3.9,1.7-1.3,2-1.3,2,0,0-1.3,1.2-2.8,2.1-.1.1.1-.1,0,0,.5,0,1.4-.1,2-.5h0s-.2.8-.6,1.4c-.4.5-.9.9-1.6,1.4.1,0,.4.1.5.2l1,.3-.9.6c-.5.4-1.1.7-1.6.9s-.9.4-1.4.6c.4-.1,1.6.9,1.6.9,0,0-.6.4-.7.5.1.1.4.3,1.3.6h0c-1,.6-1.1.9-1.3,1,.3-.1,1.3-.1,1.7-.4h0c-.2.7-.8,1.5-.9,1.6l-.6.5-.3.3c-.1.1-.2.2-.2.3l-.1.3c-.3,1-1.1,1.4-1.8,1.8-.1,0-.2.1-.3.1,1.4.2,2,0,2,0,.1.3-1.1,1.1-1.2,1.4-.1.2-.3.6-1,1.1-2.6,1.9-6.4,3.8-12.4,4.7-.9,1.3-2.2,1.4-3.4,1.4l-1.2-.1c-.6-.1-1.4-.3-2.5.2,0,0-.3-.6-.6-.9,0,0-.6.2-1.1.3s-1.2-.4-2-.8c-.8-.4-1.4-.5-1.9-.3s-.8-.1-1.2.1-1.5.9-2.4,1.7c0,0-1.4.9-1.8,1.2s0,0,.2-1.8-.2-6.7-.6-7.7c0,0,.2-.9.7-1.8.4-.8,2.8-4.6,3.4-5.8,0,0,.1,1.8.6,3.3.7,2,2.6,3.6,6.7,1.2s8.9-8.6,12.4-14.3c4.3-7,11-13.3,13.2-13.8,0,0-5.2,5.3-6.8,7.7-1.4,2.1-3.5,5.8-4.8,8.2,0,0,6.8-1.9,10.5-5.2,3.7-3.3,5.3-5.8,5.3-5.8-.2,6.5-3.4,7.6-3.4,7.6h0Z"/>
    <path class="cls-6" d="M144.8,128.9h0c0-.1.1-.1,0,0Z"/>
    <path class="cls-2" d="M117.8,140.7s1.2-.1,2.4-.6c0,0,.1,1.6,1.6,2.4s3.1,1.1,5.8-.2c2.7-1.3,5.2-4.1,5.5-8.5.3-3.3-.3-4.4-.3-4.4,0,0,1.2-1.9,1.4-1.9s1.2-.3,1.2-.3c0,0,2.5,5.8-.3,11.3-2.8,5.6-8.8,9-13.7,7.4-3.9-1.3-3.6-5.2-3.6-5.2h0Z"/>
    <path class="cls-4" d="M128.2,134.6s1.8-1.9,2.3-2.5c0,0,.9,2.2,0,3.7-.7,1.1-1.9,1-2.3.1-.4-.8,0-1.2,0-1.3h0Z"/>
    <path class="cls-5" d="M145.5,149c-2.3,1.9-3.9,3.1-6.5,4.4l-1.2.4c3.1-1.6,4.1-4.6,7.7-4.8h0Z"/>
    <path class="cls-5" d="M152.6,138.3s1.8-2,3.5-5.8,1.4-7,1.4-7c0,0-.2.9-1.3,2.6-1.1,1.6-2.6,1.8-2.6,1.8,1.3-2,2.4-5.3,2.8-7.8.4-2.5-.8-6.5-1.6-8.6s-1-2.8-2.7-5.2-3-2.8-4.7-2.3c-.3.1-.5.2-.8.2,2.5-.2,5.4,2.4,7.7,9.5,1.1,3.3,1.1,5,.7,7.2-.5,2.7-1.2,5-3.4,8.7h0c3-.1,4-1.1,4-1.1,0,0-1.2,2.8-2.4,4.9-1.6,2.7-2.9,4.7-2.9,4.7,0,0,.8-.1,2.1-.3,1.1-.2,2.1-.6,2.1-.6,0,0-1.1,3.1-2.7,4.4s-4.8,2.9-3.4,5.2c0,0-2,1.2-1.4,2.7,0,0-2.3.5-2.7,1.2s-.4,1.3-.4,1.3c0,0-2.5.6-2.5,1.2s.2,1.1.2,1.1c0,0-4.4,3-7.3,3.3,0,0-.1-2.8-4.1-3.4-3.5-.5-7.5,1.2-10.7,2.3s-8.1,3.1-10.4,4.3c0,0,.4-1.4-.4-3.5l2.1-7.4s1.6-.9,2.1-1.4,1.1-1.1,1.3-1.1.8.1,1.1.1,1.4.2,2,.7,1.7.7,2.1.5.3-.1.3-.1l.6.8s1.1-.6,1.8-.5,3,.6,5.1-.1c1.4-.5,1.5-1.4,1.5-1.4,0,0,4-.5,7.3-1.9s5.1-2.5,5.8-3.4c.4-.7.7-1.1.7-1.1,0,0,1.3-1.2,1.5-1.9s.2-.9.2-.9c0,0-.4-.2.4-.9s1.6-2.3,1.7-3l-.5-.5-.7-.8.8-.3s-.7-.8-.9-.9c0,0,2.1-1.2,2.7-2.1l.5-.9s-.6-.2-.9-.3c0,0,1.1-1.1,1.1-3.3l.7-.7s-.9-.5-.2-.9,1.6-.8,1.6-.8c0,0-.5-.9-.9-1.2l-.4-.3s3.1-4.9,1.9-9.9c0,0-3.4,4.9-7.3,7.6-2.9,2.1-7.5,3.7-7.5,3.7,0,0,2.3-4,3.7-6.3,1.2-2,5.5-6.6,8.4-9.4,0,0-2.3-.2-5.5,2-3.3,2.3-7,5.8-9.8,10.1-2.7,4.2-9.9,13.8-13.8,15.7-4.6,2.2-5.2-2.4-5.2-2.4,1.9-4.9,5-11.7,8.2-17.4.1-.2.6-1,1.3-2.1-1.7,1.6-9.7,11.1-14,25.2l.3.9s1.6-1.9,3.1-4.9c0,.2.1.6.2.9.9,2.4,3.5,3.5,7.6,1s8.9-8.6,12.4-14.3c4.3-7,11-13.3,13.2-13.8,0,0-5.2,5.3-6.8,7.7-1.4,2.1-3.5,5.8-4.8,8.2,0,0,6.8-1.9,10.5-5.2,3.7-3.3,5.3-5.8,5.3-5.8-.4,6.9-3.5,7.9-3.5,7.9l.7.3c-.6.4-.9.8-1,1,.4-.1,1.5.1,1.9.4-3.9,1.7-1.3,2-1.3,2,0,0-1.3,1.2-2.8,2.1.1,0,0,0,0,0,.5,0,1.4-.1,2-.5,0,0-.2.8-.6,1.4-.4.5-.9.9-1.6,1.4.1,0,.4.1.5.2l1,.3-.9.6c-.5.4-1.1.7-1.6.9s-.9.4-1.4.6c.4-.1,1.6.9,1.6.9,0,0-.6.4-.7.5.1.1.4.3,1.3.6-1,.6-1.1.9-1.3,1,.3-.1,1.3-.1,1.7-.4-.2.7-.8,1.5-.9,1.6l-.6.5-.3.3c-.1.1-.2.2-.2.3l-.1.3c-.3,1-1.1,1.4-1.8,1.8-.1,0-.2.1-.3.1,1.4.2,2,0,2,0,.1.3-1.1,1.1-1.2,1.4-.1.2-.3.6-1,1.1-2.6,1.9-6.4,3.8-12.4,4.7-.9,1.3-2.2,1.4-3.4,1.4l-1.2-.1c-.6-.1-1.4-.3-2.5.2,0,0-.3-.6-.6-.9,0,0-.6.2-1.1.3s-1.2-.4-2-.8c-.8-.4-1.4-.5-1.9-.3s-.8-.1-1.2.1-1.5.9-2.4,1.7c0,0-1.4.9-1.8,1.2l-.2.5-.2.9-1.8,6.5s.2.6.4,2.4c.2,1.8-.7,3.9-.7,3.9,0,0,16.2-8.6,21.7-8.3,5.4.2,4.8,4.1,4.8,4.1,4.9-.4,9.7-4.3,9.7-4.3-.3-.1-1.2-.4-.7-1.1.6-.7,2.4-.9,2.4-.9-.7-.6-.4-1.1.8-1.6,1.1-.6,3.1-1.1,3.1-1.1-1.2-1-1.1-1.2-.4-2,.8-.8,1.7-.8,1.7-.8-1.9-1.7-.8-2.4.4-3.2,1.1-.9,2.5-2.2,3.4-3.5,1.3-1.8,2.2-5.8,2.2-5.8,0,0-1.2.8-1.8,1-.4.3-1.9.7-1.9.7h0Z"/>
    <path class="cls-5" d="M81.2,162.1c-.1-1.3.2-2,.2-2v-.3c-.1-.6-2.1-8-2.2-8.4,0-.1-.3-9-.3-9l.2-.8.4-1.8c-1.8-13.4-15.3-24.4-15.3-24.4,8.3,9.6,11.3,18.2,11.5,18.9-.2.4-.6,1-1.2,1.8-1,1.1-3.5,2.8-7.7-1.2-7-6.6-7.6-9.4-13.6-17.4s-10.2-9.9-10.2-9.9c10.6,16,10,17.2,10,17.2,0,0-2.6-.9-7.3-4.4-6.3-4.8-7.2-8.3-7.2-8.3,0,0-1,2.2-1.1,4.6-.2,2.4,1.5,4.6,1.5,4.6l-.9.7c.9.5,2.1,1.4,2.1,1.4,0,0-1.2.8-1.3,1.8,0,0,1.8.6,2.4,1.2.7.8.8,1.3.8,1.3h-1.7s.2.7.5,1.5c.5,1,1.5,2.1,1.5,2.1l-1.2.6s2.1,1.8,3.1,2.3c0,0-1,.6-1.5.8l1.2,1.2-1.7.4c.8,2.3,2.7,3.4,2.7,3.4,0,1.1,1,1.5,1,1.5l-.7.7s.4.4,1.4,1.6,2.2,2.2,5.1,2.8c2.8.5,1.7,1.6,1.7,1.6,0,0,2.7.2,5.8,1.4s3.1,1.9,3.1,1.9l1.5.3c.6-.5,1.3-.2,2.7-.1,1.3.1,2.7-.6,2.7-.6,0,0,.9.3,2.5-.5s2.7-.8,3.3-.4c.6.4.9.8,1.7,1.3.9.5,1.1.6,1.5,1.2.4.6,2.1,7.8,2.1,7.8-.3,1.1,0,3,0,3-3.5-2.2-7.9-3.4-11.7-4.8-3.8-1.4-6.8-2.3-9.6-2-4.2.5-4.2,3.3-4.2,3.3-3.2-.5-7.1-3.3-7.1-3.3.4-1.3-2.3-2.6-2.3-2.6.2-1.6-3.1-2-3.1-2,.1-1.8-1.1-2.3-1.1-2.3l.3-.3-.5-.5c1.2-1.2-.2-2.5-.7-2.8s-1.9-1.3-3.1-2.5c-2-1.8-2.6-4-2.6-4,0,0,1.6.4,3.2-.6,0,0-1-1.6-2.6-4.1-1.5-2.4-1.9-4.6-1.9-4.6,1.1,1.4,3.4,1.5,3.4,1.5-1.1-2.7-1.4-3.9-2-5.8-.8-2.9-1-7.1-.1-10.2,1.2-4.3,3-6.9,4.9-8.5,1.5-1.3,3.4-1.8,3.4-1.8h-.2c-4.8-.1-7.9,4.2-9.5,9.7-1.9,6.3.3,11.4.7,12.7.3.8.9,1.9.9,1.9-1.6-.8-3.1-3.8-3.1-3.8-.5,6.3,4.4,12.1,4.4,12.1-1.1,1-3.4-1.1-3.4-1.1,0,0-.1.6.8,2.8,1.5,3.9,3.4,5.5,4.7,6.3s1.6,1,1.8,1.9-1.8,1.5-1.8,1.5c1.6,0,2.1.4,2.7,1.5.5.9-.5,1.3-.9,1.5h0c.2,0,.9,0,2.6.6,2.5.9,1.2,1.8,1.2,1.8,1.1-.2,2.4.6,2.5,1.1.1.6-.5.7-.5.7,0,0,.8.5,2.3,1.5,4.5,2.8,7.2,2.9,7.2,2.9.1-2.8,3.3-4.3,6.8-3.7,3.4.6,9.8,3.3,12.6,4.4,2.7,1,7.1,3.4,7.1,3.4-.2-.3-.5-1.9-.6-3.2h0Z"/>
    <path class="cls-6" d="M78.9,142.8c-.5-2.1-2.5-6.7-2.5-6.7-.2.9-1,2-2.3,2.7-3.5,1.8-8.4-1.4-11.9-5.7-4.1-5.1-8.6-13.8-11.9-17.7-3.2-3.9-5.7-6.1-5.7-6.1,0,0,5.2,6.9,7.6,11.9l2.4,5s-7.8-1.4-16-11.6c0,0-.4,2.4.2,4.1.5,1.3,2,2.9,2,2.9l-1,.5s.6.3,1,.6c.4.3.8.8.8.8-1.2.3-1.9,1.2-1.9,1.2,0,0,1.2,0,2.6,1.9.5.7.7,1.7.7,1.7h-.8c-.5,0-.8.1-.8.1.6,1.4,2.6,2.6,2.8,2.6l-1.4.7s1.8,1.5,3.7,1.9c0,0-.3.9-2.4,1.3l1.4.8s-.2,1.1-1.9,1.2c.2.9,2.8,2,2.8,2,0,0-.1.7.4,1.1.6.4,1.2.9,1.7,1,0,0-.6.9-1.8.8,0,0,1.9,2.1,3.9,2.7,2,.7,5.8.8,4.2,2.1,0,0,3,.3,5,1.2s2.9,1.8,2.9,1.8l1,.1s.5-.4,1.5-.3c1,.1,2.5.1,3-.2l.5-.2s.6.2,1.2-.1,2.5-1.2,3.5-1.1,2.4.5,3.1,1.2c.8.8,1.4,1,1.7,1.2s.8.8.8.8c0,0,.7-5.1-.1-8.2h0Z"/>
    <path class="cls-4" d="M61.3,134.9s-.6-.6-1-1-1.2-1.4-1.2-1.4c0,0-.2.7-.2,1.4,0,.5.1,1.7.6,2.4.4.6,1,.8,1.5.3.4-.4.5-.9.3-1.7h0Z"/>
    <path class="cls-2" d="M69.6,140.2s1.3.3,2.2.2c0,0,.8,2.6-1.9,4.7s-7.5,1.5-11-1.6-5-6.4-5.3-9.7c-.4-3.2,1-6.2,1.6-6.9,0,0,.8,1.3,1.9,2.9,0,0-1.1,3.8.7,7.6,1.5,3.1,3.8,5.4,7.7,5.6,3.9.2,4.1-2.8,4.1-2.8h0Z"/>
    <path class="cls-6" d="M95.2,117.6c-2.6,0-4.4,2.5-4.7,2.9l-.6-1.2s-1.2,1.8-1.4,2.3l-.9-2.3s-.4,3-1,4.8-1.4,4.3-2.5,6.1-4.5,7.7-5.1,11.4-1,5,.3,10.1,2.1,7.9,2.1,8.4c0,0-.5,1.2-.1,3.2s.6,2.5,1.2,3.3.9,2.2,1.2,3.1.6,2.4.9,2.9.7,1.8,1.8,2.3l.4.2s1.2,4.9,1.9,8.1c.7,3.2,1.5,8,2.7,11s2.3,4.5,3.3,5.3c0,0,1.6-1.2,2.2-2.9s1.6-4,2.4-7.9,2.2-10,2.6-11.4.5-2.1.5-2.1c0,0,.7-.2,1.2-.9s1.1-1.7,1.4-3,.4-2.3,1.1-3.4,1.6-3,1.9-5.4-.4-3.3-.3-3.6,1.1-4.2,1.7-6.5,1.5-4.3,1.2-7.4-2.1-8.6-3.2-11-2.7-4.9-3.1-5.5-.6-1.6-.5-2.4-.1-3-.1-3l-1,1.5s0-1.3-.4-2.3-1.4-2.3-1.4-2.3l-.3,1.1s-1.1-1.6-2.6-2.8c-.8-.6-2.8-.7-2.8-.7h0Z"/>
    <path class="cls-2" d="M109,143.5c-.4-2.1-1.8-6.8-2.8-9.3-.7-1.7-1.8-3.3-2.6-4.5-.4-.6-.7-1.1-.8-1.4-.2-.4-.2-.9-.2-1.3v-.1c-.3.4-1,1.2-1,1.2v-.5s0-2-.1-3.2c-.1-.8-.3-1.3-.5-1.6-.1.2-.4.5-.4.5l-.1-.1s-.5-.4-1.4-1.9c-.8-1.4-2.2-2.2-3.7-2.3-1.3-.1-2.7,1.2-3.3,2-.6.8-1.7,1.8-1.7,1.9l-.2.2s-.3-.5-.4-.7c-.2.4-1.5,2.5-1.5,2.5,0,0-.2-.6-.3-.8-.1.4-.3,1-.6,1.8-.5,1.5-1.9,4.4-3.8,8.2-1.9,3.6-2.7,5.7-3.5,8.9-.2.8-.3,1.7-.3,2.6,0,2,.4,4.4,1.3,7.1.6,1.9,1,4.1,1.2,5.1.4-.6,1.3-1.9,1.6-2.4.4-.8.9-2.4,1.1-4.2.3-2,1.1-5.5,1.6-6.8.3-.8,1.7-3.6,4.6-5.6,2.8-1.9,4.8-1.1,6.4-.1s2.6,2.7,3.6,4.5l.4.7c1,1.8,1.7,3.8,2.2,5.9.4,2.2.8,3.7,1.2,4.3.3.6,1.5,2.5,1.9,3.3.2-.8.8-2.8,1.5-5.6.6-2.3.8-4.1.8-5.8,0-1-.1-1.7-.2-2.5h0Z"/>
    <path class="cls-4" d="M100.5,170.6c.6-4.1,1.4-7.1.4-17.1-.9-9.7-5.9-14.5-6.3-14.8-.3.3-5.3,5.1-6.3,14.8-1,10-.2,13,.4,17.1s3.1,12.8,3.5,15.8c.8,6.9,2.4,11.1,2.4,11.1,0,0,1.4-3.8,2.3-11.1.5-3,3-11.6,3.6-15.8h0Z"/>
    <path class="cls-5" d="M88.8,170.6c-.6-4.1-1.4-7.1-.4-17.1.9-9.7,5.9-14.5,6.3-14.8h-.4c-2.7.5-5.2,3.9-5.9,5.4-.8,1.5-1.8,5.7-2.6,11-.8,5.3-.1,8.5.7,12.4s2.2,8.1,4.2,18c2,9.8,4.2,12.1,4.2,12.1,0,0-1.6-4.3-2.4-11.1-.5-3.1-3-11.8-3.7-15.9h0Z"/>
    <path class="cls-5" d="M103.5,155.2c-.8-5.3-1.9-8.6-2.7-10.1-.8-1.5-3.3-6.3-6.1-6.4h0c.3.3,5.3,5.1,6.3,14.8,1,10,.2,13-.4,17.1s-3.1,12.8-3.5,15.8c-.9,7.3-2.3,11.1-2.3,11.1,0,0,1.9-2.3,3.9-12.2s3.6-14.1,4.4-17.9,1.2-6.9.4-12.2h0Z"/>
    <path class="cls-5" d="M88.3,174.5s-1.9-1-2.7-3.3-2-4.9-2.3-5.5c-.6-1.3-1.2-4-.7-5.5s1-1.7,1.4-2.4-.2,0-.1,3.2c.3,7.2,4.4,13.5,4.4,13.5h0Z"/>
    <path class="cls-5" d="M101,174.4s1.9-1,2.7-3.3,2.1-4.8,2.3-5.5,1.4-3.5.7-5.5c-.3-1-.5-1.4-.9-2.1-.5-.9-1.1-2-1.1-2-.4-.9.8,2,.7,5.2-.3,6.7-4.4,13.2-4.4,13.2h0Z"/>
    <path class="cls-6" d="M101.8,140.8h0c.1.3.2.7.6,1.7s1.2,2.4,1.2,2.4c0,0,.6-.8.9-2.3.2-1,0-2.2-.6-3-.7-1.1-2.6-1.8-2.1,1.2h0Z"/>
    <path class="cls-6" d="M87.2,140.8h0c-.1.3-.2.7-.6,1.7s-1.2,2.4-1.2,2.4c0,0-.6-.8-.9-2.3-.2-1,0-2.2.6-3,.8-1.1,2.6-1.8,2.1,1.2h0Z"/>
    <rect class="cls-3" width="200" height="200"/>
  </g>
</svg>