<?xml version="1.0" encoding="UTF-8"?>
<svg id="Layer_1" data-name="Layer 1" xmlns="http://www.w3.org/2000/svg" viewBox="0 0 264 264">
  <defs>
    <style>
      .cls-1 {
        fill: #fff;
      }

      .cls-1, .cls-2 {
        stroke-width: 0px;
      }

      .cls-2 {
        fill: #133478;
      }
    </style>
  </defs>
  <circle class="cls-1" cx="132" cy="132" r="111"/>
  <g>
    <path class="cls-2" d="M132,2.2C60.3,2.2,2.2,60.3,2.2,132s58.1,129.8,129.8,129.8,129.8-58.1,129.8-129.8S203.7,2.2,132,2.2ZM132.1,225.9c-51.9,0-93.9-42-93.9-93.9s42-93.9,93.9-93.9,93.9,42,93.9,93.9-42.1,93.9-93.9,93.9Z"/>
    <path class="cls-2" d="M130.7,219.1l-.1-.1h0c-.1-.1-.3-.3-.6-.5h0c-.5-.4-1.3-1-2.2-1.8h0c-1.9-1.5-4.5-3.5-7.4-5.8h0c-5.8-4.5-12.9-9.7-17.8-12.8h0c-3.8-2.3-7.5-4-11.6-6.3h0c-15.2-8.9-27.6-16.5-27.6-16.5h0c-4.8-3.3-8.9-8.3-11.8-15.3h0c-2-5.1-3.2-10.3-3.2-15.6h0c0-3,.4-6,1.1-9h0c.1-1.5.5-3.5,1.2-5.3h0c.2-.4.3-.7.5-1.1h0c.5-3.2,2-5.7,2.5-7.8h0l.1-.2,27.2-56.3,1-.3c.2,0,15.1-3.8,46.4-4.2h7c31.3.4,46.2,4.1,46.4,4.2h0l1,.3,27.3,56.3.1.2c.5,2.1,2,4.6,2.5,7.8h0c.2.4.4.7.5,1.1h0c.2.6.4,1.3.6,1.9h0c.3,1.3.6,2.4.6,3.3h0c.8,3,1.1,6.1,1.1,9h0c0,5.4-1.2,10.6-3.2,15.7h0c-2.9,7-7,12-11.8,15.2h0s-12.4,7.6-27.7,16.5h0c-4,2.2-7.8,4-11.5,6.3h0c-5,3-11.9,8.3-17.6,12.8h0c-5.7,4.5-10.1,8.2-10.1,8.2h0l-1.6,1.4-1.3-1.3h0ZM93.3,187.9c3.8,2.1,7.6,3.9,11.7,6.4h0c8.8,5.4,22.7,16.5,27.3,20.2h0c4.5-3.7,18-14.8,26.8-20.2h0c4-2.4,7.9-4.2,11.6-6.3h0c7.6-4.4,14.5-8.6,19.5-11.6h0c4.6-2.8,7.5-4.6,8-4.8h0c4-2.7,7.5-6.9,10.1-13.1h0c1.8-4.6,2.8-9.2,2.8-13.9h0c0-2.7-.3-5.4-1.1-8.2h0l2.2-.6,2.3.2-2.3-.2-2.2.6-.1-.4v-.3h0c0-.2-.2-1.2-.4-2.1h0c-.2-.9-.6-1.9-.7-2.1h0l-.4-.5-.1-.7c-.1-2.1-1.5-4.4-2.4-7.4h0l-26.2-54c-.4-.1-1-.2-1.8-.4h0c-1.9-.4-4.8-.8-8.8-1.3h0c-7.9-1-19.8-2-36-2.1h-2.4c-27.5.2-42.6,3-46.6,3.8h0l-26.2,54c-.9,3-2.2,5.3-2.4,7.4h0l-.1.7-.4.5v.1h0c0,.1-.1.3-.2.4h0c-.1.4-.3.9-.4,1.4h0c-.3.9-.4,2-.4,2.3h0v.3l-.1.4c-.7,2.8-1.1,5.5-1.1,8.2h0c0,4.7,1,9.3,2.8,13.9h0c2.6,6.3,6.1,10.4,10.1,13.1h0c1,.4,13,7.8,27.6,16.3h0Z"/>
    <path class="cls-2" d="M152.6,72.6c.9,1.1,2.9-.8,2.9,1.4-1.1,1.1-1.4,3.3-2.6,4.2-.2.9-1.3.9-1.5,1.6-.9.4-.8,1.6-1.9,1.4-5,1.4-11.2-.2-16.5.5-3.9.3-6.2-.9-9.9,0-.5,0-1.6-.3-2,.5.5,1.9,1.6,3.6,1.9,5.5,1.3,2.9,2.9,5.7,3.6,8.9.6,1.9,1.9,3.8,1.8,5.7,1.9,6.1,2.8,13.8,3.5,20.2-.5,5.3.6,10-.5,15.1-.1.5.2,1.3-.2,1.7-.3,5.4-1.9,10-3.4,15.1-.9,1.6-1.2,3.8-1.9,5.5-.2.8,0,2.1-1,2.8-1.3,4.6-3.9,8.7-6,12.8.1.2.1.5.2.7,6.7.5,13.8.2,20.5.5.8-.4,1.6-.2,2.5-.3,4.3-.4,8.3.4,12.4.1,2.9-.8,5.8-2.4,7.4-5.3.5-.3.7-.3,1.3-.3,1,.6.6,1.9,1.3,2.6.8,3.6,2.8,7.3,3.2,11.1.2.3.1.9-.3.9-.4-.2-1.1.5-1.3-.1h-2.8c-3.8-.3-7.9.2-11.7-.2-.6.2-1.7.1-2.4.2-4.9.3-9.3-.3-14.1.2-6.3-.8-13.4.2-19.3-.3-5.7-.2-9.5.9-15,.2-.3-.5.3-1.1.2-1.5h.2c1.9-2.9,4.2-4.7,6.4-7.3,7.1-11.3,12.4-23.5,14.4-37,1.9-6.4.8-13.4.3-19.9-.1-2.2-.2-4.6-.9-6.7,0-2.8-1.5-5.9-1.9-8.6-1.9-7.3-6.4-14.2-9.3-21.5-.4-.9-.9-1.3-.8-2.3.6,0,.3-.6.6-.9,1.5-1.8,2.6-3.9,3.9-6l.1.1c1.1-1.4,3.5-1.2,5.3-1.2.9.4,1.8,0,2.5,0,8.3.8,15.1-.8,23.9-.2,2.2-.1,4.9.2,6.9.1Z"/>
    <path class="cls-2" d="M109.6,111.8c.6-.2,1.6,0,2.2-.1.9.7-.4,1.1-.4,1.9-1.4,3.3-2.7,7.2-4.2,10.5-.2,1.8-1.5,3.2-1.9,5.2-.6.8-1,2.3-1.2,3.4-3.8,10-8.1,19.2-11,29.4-.5,1.2-1.8,2.6-2,4.1-2.5,2.6-3.6,6.1-7.5,6.6-3.8,1.8-8.7.5-11.9-2.2-3.9-3-4.3-8.7-3.7-13.1.5-.8.1-1.7.8-2.5-.1-.6,0-1.3.6-1.7.8-.2,1,.5,1.2,1,.4,3,.3,6.6,3.2,8.4,1.4.6,3.1,2,4.7,1.2,1.5-.5,2.5-1.7,3.6-2.8,4.6-10.3,8.3-21.1,11.9-31.5,1.4-2.6,2-5.6,3.2-8.3-.1-3.2-4.1-1.3-5.9-2.2-4.9-.4-9.9.2-14.6,1.2-2.6.4-5.1,1.5-7.5,3-.9.3-.5-1-.4-1.5,1.7-3.4,3.3-7,5.3-10.1.5-.3.8-.6,1.4-.2,11.1-.9,23-.8,34.1.3Z"/>
    <path class="cls-2" d="M160.6,111.6c10.3.8,20.2.4,30.9.9.7.2,1.3.8,1.8.9,1.2,3.2,2.5,6.3,3.5,9.7.4,1.5,1.1,1.9,1.3,3.6-.1.6-.6.5-1,.4-.9-.9-1.2-1.9-2.5-2.4-2.2-2.9-5.5-5.2-9-5.2-3.9-.5-7.5.1-11.3-.1-3.9-.4-7.2.2-11-.2-.9,0-2.2-.2-2.6.8.5,2.2,2.5,4.3,2.8,7,1.1,2.2,2,4.7,2.8,6.6-.2.5.5.6.8.8,4.2-.6,10.1-.5,14.5.3l-.1.1c.5.2.9-.1,1.2.4.3-.4.9.3,1.1.2.5.6,1.6.5,1,1.6-.8.2-.5,1.8-1.5,2.1-.2,1.2-1.5,1.9-1.9,3-.6,1.3-1.7,2.2-2.2,3.5-.4.3-1,.2-1.4,0-.4-1-.9-2-1.9-2.6-1.9-.4-4.9-1.9-6.3.2.2,2.4,1.1,4.1,1.7,6.4,1.1,4.6,1.8,8.8,4.6,12.6,1,.6,2.1,1.3,3.4,1,5.4-.7,4.5-7.3,8.3-9.7.6-.1.8.7,1.2.9-.2,2.5-.4,5.3-.9,7.6-.3,2.2-2,4.6-3.1,6.7-2.5,2.6-6.1,3-9.7,3-2.5-1.3-5.6-2.5-7-5.4-3.2-4.9-4.9-10.7-6.1-16.6-2.2-4.9-2.1-9.1-4.2-14.1-2.4-4.9-4.3-10.2-7.4-14.4-1.6-2.2,1.5-3.4,2.3-5.4,1.3-1.2,2.2-2.8,3.2-4.2,1.5-.1,3.2.2,4.7,0Z"/>
    <g>
      <g>
        <path class="cls-1" d="M40.9,182.3l-5.1-9.8,3.6-1.9,7.2,13.9-19.6,10.3-2.1-4.1,16-8.4Z"/>
        <path class="cls-1" d="M16.6,159.1l3.5,11.2,4.5-1.4-3.2-10.3,3.7-1.2,3.2,10.3,5.5-1.7-3.6-11.8,3.8-1.2,5,16.1-21.2,6.6-4.8-15.6,3.6-1Z"/>
        <path class="cls-1" d="M33.1,146.4l.5,4.6-22.1,2.3-.5-4.6,9-.9-9.9-7.5-.6-6,10,8.1,12-10.9.6,5.9-9,7.8,2.4,1.9,7.6-.7Z"/>
        <g>
          <path class="cls-1" d="M25.3,127.2c1.2.1,3.6-.3,4-4.4.2-2.2-.1-4.7-2.5-4.9-1.7-.2-2.3,1.5-3.1,3.8l-.7,2.3c-1.1,3.5-2.3,6.9-7.1,6.4-2.5-.2-6.7-1.9-6.1-9.1.6-6.8,5.2-8.2,7.9-8l-.4,4.4c-1,0-3.4.2-3.7,4.2-.2,1.8.3,3.9,2.3,4.1,1.7.2,2.2-1.2,2.5-2.1l1.8-5.3c1-3,2.5-5.6,6.5-5.3,6.7.6,6.6,7.4,6.5,9.4-.7,8.1-5.5,9-8.2,8.8l.3-4.3Z"/>
          <path class="cls-1" d="M19.6,99.2h0l9.2-.2-1.6,5.4-7.6-5.2ZM30.6,106.6l2.3-7.9,4.8-.1,1.4-4.8-23.5,1.3-1.5,5.1,19.1,13.8,1.4-4.7-4-2.7Z"/>
          <path class="cls-1" d="M26.3,70.6l2-3.8,19.7,10.4-2.2,4.1-18.2.6v.1l14,7.4-2,3.8-19.7-10.4,2.3-4.3,17.8-.6v-.1l-13.7-7.2Z"/>
          <path class="cls-1" d="M38.1,59.9l2.8-3.4c1.3-1.5,3.7-3.6,8.7.6,2.8,2.3,4.9,5.7,2.5,8.6l-2.9,3.5-11.1-9.3ZM49.4,75.1l6.1-7.4c4.7-5.6.6-11.5-3.1-14.5-3.2-2.7-9.1-5.5-13.9.2l-6.2,7.6,17.1,14.1Z"/>
          <path class="cls-1" d="M60.9,52.3c.8.9,2.8,2.4,5.9-.2,1.7-1.4,3.3-3.3,1.8-5.2-1.1-1.3-2.7-.6-4.9.4l-2.2,1.1c-3.3,1.6-6.5,3.2-9.6-.6-1.6-1.9-3.3-6.1,2.3-10.7,5.3-4.3,9.5-2,11.2.1l-3.4,2.8c-.7-.7-2.5-2.3-5.6.3-1.4,1.1-2.6,3-1.3,4.5,1.1,1.3,2.4.7,3.3.3l5-2.4c2.8-1.3,5.7-2.2,8.3.9,4.2,5.2-.7,9.9-2.2,11.2-6.3,5.1-10.3,2.4-12,.3l3.4-2.8Z"/>
          <path class="cls-1" d="M87.8,42.3l-4.1,2.2-10.4-19.7,4.1-2.2,10.4,19.7Z"/>
          <path class="cls-1" d="M88.2,22l4.2-1.5c1.9-.7,5-1.2,7.2,4.9,1.2,3.4,1.3,7.4-2.2,8.7l-4.2,1.5-5-13.6ZM90.1,40.8l9-3.2c6.9-2.5,6.4-9.6,4.7-14.1-1.4-4-5-9.4-12.1-6.9l-9.2,3.3,7.6,20.9Z"/>
          <path class="cls-1" d="M112.1,21.3l-.8-5.9,5.7-.8c2.7-.4,3.5,1.3,3.6,2.4.3,2.2-.7,3.2-3.1,3.5l-5.4.8ZM109.3,34.2l4.5-.6-1.2-8.6,4.7-.7c3.4-.5,3.7.7,4.2,3.7.3,2.3.7,3.4,1.1,4.4l5.1-.7-.1-.6c-1-.2-1.1-1-1.6-4.2-.6-4.1-1.7-4.6-3.6-5.2,2.1-1,3-3.3,2.7-5.7-.3-1.9-1.9-6.1-7.8-5.2l-11.1,1.6,3.1,21.8Z"/>
          <path class="cls-1" d="M133.2,20.7c.4-6.2,4-7.5,6.5-7.4,2.5.2,5.9,1.9,5.5,8.1s-4,7.5-6.5,7.4c-2.4-.1-5.8-1.9-5.5-8.1ZM128.6,20.4c-.7,10.4,7,12.1,9.9,12.3s10.7-.6,11.4-11-7-12.1-9.9-12.3c-2.9-.2-10.7.6-11.4,11Z"/>
          <path class="cls-1" d="M158.9,35.5l-4.5-1.1,4.5-17.7-6.5-1.6,1-3.8,17.5,4.4-1,3.8-6.5-1.6-4.5,17.6Z"/>
          <g>
            <path class="cls-1" d="M174.9,41.5l-4.2-1.9,7.4-16.7-6.1-2.7,1.6-3.6,16.5,7.3-1.6,3.6-6.1-2.7-7.5,16.7Z"/>
            <path class="cls-1" d="M188.4,41c-.7,1-1.5,3.3,1.9,5.6,1.8,1.2,4.1,2.2,5.5.2,1-1.4-.1-2.8-1.8-4.5l-1.7-1.8c-2.5-2.7-4.9-5.3-2.2-9.4,1.4-2,4.9-4.9,10.9-.9,5.6,3.8,4.6,8.5,3.1,10.8l-3.7-2.5c.5-.9,1.5-3-1.9-5.3-1.5-1-3.6-1.6-4.7,0-1,1.4,0,2.5.6,3.2l3.7,4.1c2.1,2.3,3.7,4.9,1.5,8.2-3.8,5.5-9.7,2.2-11.3,1.1-6.7-4.6-5.2-9.2-3.7-11.5l3.8,2.7Z"/>
            <path class="cls-1" d="M200.5,58.8l-3.3-3.2,15.5-15.9,11.3,11-2.7,2.8-8-7.8-3.5,3.6,7,6.8-2.8,2.9-7-6.8-6.5,6.6Z"/>
            <path class="cls-1" d="M220,63.6c5.1-3.6,8.4-1.5,9.8.5,1.4,2.1,2.2,5.8-2.9,9.4-5.1,3.6-8.4,1.5-9.8-.5-1.4-2.1-2.2-5.9,2.9-9.4ZM237,57.8l-2.2-3.2-2.9,2,2.2,3.2,2.9-2ZM240.4,62.8l-2.2-3.2-2.9,2,2.2,3.2,2.9-2ZM217.4,59.8c-8.5,6-5.2,13-3.5,15.4,1.7,2.4,7.1,8,15.7,2.1,8.5-6,5.2-13,3.5-15.4-1.7-2.5-7.2-8.1-15.7-2.1Z"/>
            <path class="cls-1" d="M234.3,84.6l5.5-2.3,2.2,5.3c1.1,2.5-.3,3.7-1.4,4.1-2,.8-3.2.1-4.2-2.1l-2.1-5ZM221.1,85.2l1.8,4.2,8-3.4,1.9,4.4c1.3,3.2.3,3.8-2.5,5-2.1.9-3.1,1.5-3.9,2.2l2,4.7.5-.2c0-1.1.7-1.4,3.7-2.6,3.8-1.6,4.1-2.8,4.1-4.8,1.5,1.7,3.9,2.1,6.2,1.1,1.8-.7,5.4-3.4,3.1-8.9l-4.3-10.3-20.6,8.6Z"/>
            <path class="cls-1" d="M249.8,116.5l-2.4-11.5-4.6.9,2.2,10.6-3.8.8-2.2-10.6-5.6,1.1,2.5,12.1-3.8.8-3.4-16.5,21.7-4.4,3.3,16-3.9.7Z"/>
            <path class="cls-1" d="M254.5,135.9v4.3l-22.2.2v-4.6l15.8-9.2v-.1l-15.8.1v-4.3l22.2-.2v4.9l-15.4,8.9v.1l15.4-.1Z"/>
            <path class="cls-1" d="M231.2,147.3l.6-4.6,22,2.8-.6,4.6-22-2.8Z"/>
            <g>
              <path class="cls-1" d="M248.9,169l-1.1,4.2-21.4-5.9,1.2-4.5,17.7-4.6v-.1l-15.3-4.1,1.1-4.2,21.4,5.9-1.3,4.7-17.2,4.4v.1l14.9,4.1Z"/>
              <path class="cls-1" d="M231.3,184.4l-4.3,8.2-10.6-5.5,1.4-2.7,2.7.9c-.7-1.7-1.7-4.1.2-7.7,2.5-4.7,8.1-7.3,15-3.7,5.4,2.8,8.9,8.4,5.4,15-3.1,6-8.3,6.4-11.1,5.2l2.1-4.1c.8.4,4,.3,5.5-2.6,1.5-2.9.9-6.7-4.1-9.3-5.4-2.8-8.3-.6-9.8,2.2-.5.9-1.7,4.1,1.8,7l2.4-4.6,3.4,1.7Z"/>
            </g>
          </g>
        </g>
      </g>
      <path class="cls-1" d="M58.4,231.3l-3.7-2.8,13.6-17.5,3.7,2.8-13.6,17.5Z"/>
      <path class="cls-1" d="M69.1,230.4c-.6,1.1-1.3,3.4,2.2,5.5,1.9,1.1,4.3,1.9,5.5-.1.9-1.5-.3-2.7-2.1-4.4l-1.8-1.7c-2.7-2.5-5.2-5-2.7-9.2,1.3-2.1,4.6-5.2,10.8-1.5,5.9,3.5,5.2,8.2,3.8,10.6l-3.8-2.3c.4-.9,1.3-3.1-2.2-5.2-1.5-.9-3.7-1.4-4.7.3-.9,1.5.2,2.5.8,3.2l4,3.9c2.2,2.2,4,4.7,2,8.1-3.4,5.7-9.6,2.8-11.2,1.8-7-4.1-5.8-8.8-4.4-11.2l3.8,2.2Z"/>
      <path class="cls-1" d="M90,237.8l-3.4,9.4-4.4-1.6,7.5-20.9,4.4,1.6-2.8,7.9,8.1,2.9,2.8-7.9,4.4,1.6-7.5,20.9-4.4-1.6,3.4-9.4-8.1-2.9Z"/>
      <path class="cls-1" d="M110.9,242.8c.9-6.2,4.6-7.2,7-6.8,2.5.3,5.8,2.4,4.9,8.5-.9,6.2-4.6,7.2-7,6.8-2.5-.3-5.8-2.3-4.9-8.5ZM106.3,242.2c-1.4,10.3,6,12.6,8.9,13s10.7.2,12.2-10.1c1.4-10.3-6-12.6-8.9-13s-10.8-.2-12.2,10.1Z"/>
      <path class="cls-1" d="M145,240.4c-.5-1.3-1.3-3.8-5.1-3.5-2.2.1-5.4,1.8-5,8.1.3,4,2.1,7.5,6,7.2,2.6-.2,4.3-1.7,4.6-4.5l4.6-.3c-.6,4.9-3.6,8.4-9.1,8.8-5.9.4-10.4-3.3-10.9-11s3.7-12,9.4-12.3c6.6-.4,9.6,4,10.1,7.2l-4.6.3Z"/>
      <path class="cls-1" d="M161,252.7l-4.5,1.2-5.7-21.4,4.5-1.2,2.3,8.7,5.9-10.9,5.8-1.5-6.4,11.1,12.6,10.2-5.8,1.5-9.1-7.6-1.5,2.7,1.9,7.2Z"/>
      <path class="cls-1" d="M186.2,223.4l-10.6,5.1,2,4.2,9.7-4.7,1.7,3.5-9.7,4.7,2.5,5.2,11.1-5.4,1.7,3.5-15.2,7.3-9.7-20,14.7-7.1,1.8,3.7Z"/>
      <path class="cls-1" d="M207.9,230.5l-3.7,2.7-5-6.8-14.3-6.6,4.4-3.2,9.4,5.1-2.2-10.4,4.2-3.1,2.2,15.6,5,6.7Z"/>
    </g>
  </g>
</svg>