<?xml version="1.0" encoding="UTF-8"?>
<svg id="Lager_1" data-name="Lager 1" xmlns="http://www.w3.org/2000/svg" viewBox="0 0 100 94.6">
  <defs>
    <style>
      .cls-1, .cls-2, .cls-3, .cls-4 {
        stroke-width: 0px;
      }

      .cls-1, .cls-4 {
        fill-rule: evenodd;
      }

      .cls-3, .cls-4 {
        fill: #fbb906;
      }
    </style>
  </defs>
  <path class="cls-3" d="M50.2,79.5c-1.4,1-2.8,2.2-4.2,3.4-5.8,4.7-12.9,10.1-20.6,11.4,1.4-3.1.4-5.9-2.2-7.2-.1-.1-.2-.1-.3-.1-1.1-.5-2.6-.7-4.2-.7l-2.7.1c1.6-2.8,1.2-5.5-.7-7.1-.6-.8-1.8-1.2-3.2-1.4-.7-.1-1.6-.2-2.5-.1l-4.3.2c2-1.6,8.5-6.6,8.1-12-.5-5.8-10.1-9.3-13.4-10.4l.6-.2c7.1-2.4,8-8.7,2.4-12.6,5.4-1.7,7-7.3,2.8-13.3,6.3,3,11.8-.2,12.2-7.3,4.6,5.9,10.6,12.7,13,10.6,1.5-1.3-3.5-5.5-6.3-15l1.6.5c6.5,2.2,10.5-2.4,7.7-8.9l-.3-.8c6.8,6.4,14.6,1,16.3-8.6,1.6,9.6,9.5,15.4,16.3,9.1l-.3.8c-2.8,6.5,1.2,11.2,7.7,8.9l1.6-.5c-2.8,9.4-7.8,13.7-6.3,15,2.4,2.1,8.4-4.8,13-10.6.4,7.1,5.9,10.4,12.2,7.3-4.2,5.9-2.6,11.6,2.8,13.3-5.6,3.9-4.7,10.2,2.4,12.6l.6.2c-3.3,1-12.9,4.5-13.4,10.3-.4,5.4,6,10.3,8.1,12l-4.3-.2c-.9-.1-1.7,0-2.5.1-1.4.2-2.6.6-3.2,1.4-1.9,1.6-2.3,4.3-.7,7.1l-2.8-.2c-1.7-.1-3.1.2-4.2.7-.1,0-.2.1-.3.1-2.6,1.3-3.6,4.1-2.2,7.2-7.7-1.3-14.8-6.7-20.6-11.4-1.3-1.1-2.3-2.8-3.7-3.7h0Z"/>
  <path class="cls-2" d="M50.5,75.4c-3,0-5.5-1.8-6.6-4.4l22-28.8c-.5,3.1-.8,6.3-.8,9.6,0,3.5.3,7,.9,10.3.1.3.1.7.2,1.1,0,.4.1.6.1.9,0,3.7-3.1,6.8-7,6.8-.8,0-1.6-.1-2.3-.4-.9,2.9-3.3,4.9-6.5,4.9h0Z"/>
  <path class="cls-2" d="M34.8,61.5c.5-3.1.8-6.4.8-9.6,0-3.5-.3-6.9-.9-10.2-.1-.3-.1-.7-.2-1.1,0-.4-.1-.6-.1-.9,0-3.7,3.1-6.8,7-6.8.8,0,1.6.1,2.3.4.9-2.8,3.5-4.9,6.7-4.9,3,0,5.3,1.8,6.3,4.3l-21.9,28.8h0Z"/>
  <path class="cls-1" d="M41.4,72.5c-4.7,0-8.6-3.7-8.6-8.3,0-.4,0-.7.1-1.1.1-.5.1-.8.2-1.2.5-3.2.9-6.6.9-10s-.3-6.7-.9-9.9c-.1-.4-.1-.7-.2-1.2-.1-.4-.1-.7-.1-1.1,0-4.6,3.9-8.3,8.6-8.3.4,0,.9,0,1.4.1,1.4-2.7,4.3-4.6,7.7-4.6s6.1,1.9,7.4,4.6c.4-.1.9-.1,1.3-.1,4.7,0,8.6,3.7,8.6,8.3,0,.4,0,.7-.1,1.1-.1.5-.1.8-.2,1.2-.5,3.2-.9,6.5-.9,9.9s.3,6.8.9,10c.1.4.1.7.2,1.2.1.4.1.7.1,1.1,0,4.6-3.9,8.3-8.6,8.3-.4,0-.9,0-1.3-.1-1.3,2.7-4,4.6-7.4,4.6s-6.3-1.9-7.7-4.6c-.5,0-.9.1-1.4.1h0ZM43.1,71.8c-.6.1-1.1.2-1.7.2-4.4,0-8.1-3.4-8.1-7.8,0-.4,0-.6.1-1.1.1-.4.1-.8.2-1.1.6-3.3.9-6.7.9-10.1s-.3-6.8-.9-10c-.1-.3-.1-.7-.2-1.1-.1-.4-.1-.7-.1-1.1,0-4.3,3.6-7.8,8.1-7.8.5,0,1.1.1,1.6.2,1.2-2.8,4.1-4.7,7.4-4.7s5.9,1.9,7.1,4.7c.5-.1,1.1-.2,1.6-.2,4.4,0,8.1,3.4,8.1,7.8,0,.4,0,.6-.1,1.1-.1.4-.1.8-.2,1.1-.6,3.3-.9,6.6-.9,10s.3,6.8.9,10.1c.1.3.1.7.2,1.1.1.4.1.7.1,1.1,0,4.3-3.6,7.8-8.1,7.8-.5,0-1.1-.1-1.6-.2-1.2,2.7-3.8,4.7-7.1,4.7s-6.1-1.9-7.3-4.7h0Z"/>
  <path class="cls-1" d="M41.4,70.4c-3.6,0-6.5-2.8-6.5-6.2v-.4l23.1-30.2c.4-.1.8-.1,1.2-.1,3.6,0,6.5,2.8,6.5,6.2v.3l-23.2,30.3c-.3.1-.7.1-1.1.1h0ZM42.8,70.8c-.5.1-.9.1-1.4.1-3.9,0-7-3-7-6.8v-.6l23.3-30.5c.5-.1,1-.1,1.5-.1,3.9,0,7,3,7,6.8v.5l-23.4,30.6h0Z"/>
  <path class="cls-1" d="M40.3,59.3l.5-.7.3-.4,7.5,1.7-1,1.3-1.5-.4-2.3,3,.8,1.4-1,1.3-3.5-6.9.2-.3h0ZM41.4,59.6l1.7,3.1,1.7-2.2-3.4-.9h0Z"/>
  <polygon class="cls-2" points="52.3 55.1 46.7 50.8 47.6 49.6 53.2 53.9 52.3 55.1"/>
  <polygon class="cls-2" points="53.4 42.2 55.8 44 55.8 39 57 37.3 57.1 41.4 62.6 41.4 61.6 42.8 57.1 42.7 57.1 45 58.9 46.4 58 47.6 52.4 43.3 53.4 42.2"/>
  <path class="cls-1" d="M40.8,57.1l9.6,2.2-2.4,3.1-1.5-.4-1.5,2,.8,1.4-2.3,3-4.5-8.8.7-.9.5-.7.6-.9h0ZM47.5,48.2l7.1,5.5-2.1,2.7-7.1-5.4,2.1-2.8h0ZM54.8,38.7l3.2-4.2v5.9l6.6.1-2.6,3.3-4-.1v.8l2.2,1.7-2,2.8-7.1-5.5,2.1-2.8,1.6,1.3v-3.3h0ZM55.3,43v-4.2l2.3-2.9v5l6,.1-1.8,2.4-4.3-.1v1.5l2,1.6-1.5,2-6.3-4.9,1.5-2,2.1,1.5h0ZM46,50.9l1.5-2,6.3,4.9-1.5,2-6.3-4.9h0ZM40.5,58.3l.5-.6,8.6,1.9-1.7,2.2-1.5-.4-1.9,2.5.8,1.4-1.6,2.1-4-7.8.5-.6.3-.7h0Z"/>
  <path class="cls-1" d="M39.1,64.8c.8,0,1.4.6,1.4,1.4s-.6,1.4-1.4,1.4-1.4-.6-1.4-1.4.6-1.4,1.4-1.4h0ZM41,66.2c0,1-.8,1.9-1.9,1.9-1,0-1.9-.8-1.9-1.9s.8-1.9,1.9-1.9c1,0,1.9.8,1.9,1.9h0ZM38.2,66.2c0-.5.4-.9.9-.9s.9.4.9.9-.4.9-.9.9-.9-.4-.9-.9h0Z"/>
  <path class="cls-1" d="M47.1,54.5c.8,0,1.4.6,1.4,1.4s-.6,1.4-1.4,1.4-1.4-.6-1.4-1.4c.1-.8.7-1.4,1.4-1.4h0ZM49,55.9c0,1-.8,1.9-1.9,1.9-1,0-1.9-.8-1.9-1.9,0-1,.8-1.9,1.9-1.9s1.9.8,1.9,1.9h0ZM46.2,55.9c0-.5.4-.9.9-.9s.9.4.9.9-.4.9-.9.9c-.5,0-.9-.4-.9-.9h0Z"/>
  <path class="cls-1" d="M52.8,47.3c.8,0,1.4.6,1.4,1.4s-.6,1.4-1.4,1.4-1.4-.6-1.4-1.4c0-.8.6-1.4,1.4-1.4h0ZM54.7,48.6c0,1-.8,1.9-1.9,1.9-1,0-1.9-.8-1.9-1.9,0-1,.8-1.9,1.9-1.9,1,.1,1.9.9,1.9,1.9h0ZM51.9,48.6c0-.5.4-.9.9-.9s.9.4.9.9-.4.9-.9.9-.9-.4-.9-.9h0Z"/>
  <path class="cls-1" d="M61.4,36.2c.8,0,1.4.6,1.4,1.4s-.6,1.4-1.4,1.4-1.4-.6-1.4-1.4.7-1.4,1.4-1.4h0ZM63.3,37.6c0,1-.8,1.9-1.9,1.9-1,0-1.9-.8-1.9-1.9,0-1,.8-1.9,1.9-1.9,1,0,1.9.9,1.9,1.9h0ZM60.5,37.6c0-.5.4-.9.9-.9s.9.4.9.9-.4.9-.9.9-.9-.4-.9-.9h0Z"/>
  <path class="cls-4" d="M41.2,38.6c.3.5-.1,1.3.6,1.4.3.1.5.4.4.7s-.8.5-1.1.1c-.1,0-.1-.1-.1-.2.2-.2.4.4.8.2.1-.1.2-.3.1-.4-.3-.3-.4-.1-.5-.2-.3-.2-.1-1.3-.5-1.6-.3-.2-.5-.3-.9-.3,0,0-.5.1-.5,0-.1-.3,1.1-.4,1.7.3h0ZM42.8,38c.3,0,.8.1.8.2s-.5,0-.8,0c-.4,0-.9.4-1,.3,0-.1.5-.4,1-.5h0ZM39.3,39.3c.2-.3.4-.5.7-.5s.5.2.7.5c-.2.2-.4.5-.7.5-.4,0-.6-.2-.7-.5h0ZM42,39.4c.2-.3.4-.5.7-.5s.5.2.7.5c-.2.2-.4.5-.7.5-.3-.1-.5-.3-.7-.5h0ZM40,41.4c-.1.2-.2.3-.3.4-.1.1-.2,0-.1-.1.1-.1.2-.2.2-.4.1-.1.3,0,.2.1h0ZM42.7,41.4c.1.2.2.3.3.4.1.1.2,0,.1-.1-.1-.1-.2-.2-.2-.4-.1-.1-.2,0-.2.1h0ZM42.4,41.8c-.3.1-.6.5-1,.5s-.6-.4-1-.5c.3-.1.6-.3,1-.3.4.1.7.3,1,.3h0ZM41.5,45.6l-.6-2.2-1.3,1.8.2-2.3-1.9,1.1,1-2-2.1.2,1.6-1.4-2-.7,2-.7-1.6-1.4,2.1.2-1-2,1.9,1.1-.3-2.3,1.3,1.8.6-2.2.6,2.2,1.3-1.8-.2,2.3,1.9-1.1-1,2,2.1-.2-1.6,1.4,2,.7-2,.7,1.6,1.4-2-.2,1,2-1.9-1.1.2,2.3-1.3-1.8-.6,2.2h0Z"/>
  <path class="cls-4" d="M55.2,65.9c-.8,0-1.3-.7-1.3-1.5,0-1.2.6-1.7,1.4-1.7.7,0,1.1.4,1.3,1,.2.5.2,1.1.2,1.5,0,1.8-.8,2.4-1.5,2.4s-1.2-.5-1.3-1.3v-.1h.9v.1c0,.3.2.4.4.4.3,0,.5-.2.6-.9v-.1l-.1.1c-.1.1-.3.1-.6.1h0ZM55.9,64.4c0-.5-.2-.8-.6-.8-.2,0-.5.1-.5.7s.3.8.5.8c.4,0,.6-.2.6-.7h0ZM61.2,63.5c.8,0,.9-.4.9-.7v-.1h.8v4.8h-.9v-3.2h-1v-.8h.2ZM57.6,64.4c0-1.6,1-1.7,1.4-1.7.8,0,1.5.5,1.5,1.5,0,.8-.5,1.3-.9,1.6-.3.2-.5.4-.6.5l-.1.1-.1.1h1.7v1h-2.9v-.1c0-.6.1-1.2,1-1.9.7-.6,1-.8,1-1.3,0-.3-.1-.6-.5-.6-.5,0-.5.4-.5.8v.1l-1-.1h0ZM51.5,63.5c.8,0,.9-.4.9-.7v-.1h.8v4.8h-.9v-3.2h-1v-.8h.2Z"/>
</svg>