<?xml version="1.0" encoding="UTF-8"?>
<svg id="Lager_1" data-name="Lager 1" xmlns="http://www.w3.org/2000/svg" viewBox="0 0 322.8 321.9">
  <defs>
    <style>
      .cls-1 {
        fill: #ec732b;
      }

      .cls-1, .cls-2, .cls-3, .cls-4 {
        stroke-width: 0px;
      }

      .cls-2 {
        fill: #002f60;
      }

      .cls-3 {
        fill: #fff;
      }

      .cls-4 {
        fill: #be9e55;
      }
    </style>
  </defs>
  <path class="cls-3" d="M322.8,161c0,88.9-72.3,161-161.4,161C72.3,321.9,0,249.9,0,161S72.3,0,161.4,0s161.4,72.1,161.4,161"/>
  <path class="cls-4" d="M320.5,160.9c0,87.3-71.1,158.2-158.8,158.2-87.8-.1-158.9-70.9-158.9-158.2S73.9,2.7,161.6,2.7s158.9,70.8,158.9,158.2"/>
  <path class="cls-2" d="M313.8,160.9c0,83.6-68.2,151.3-152.3,151.3S9.2,244.5,9.2,160.9C9.3,77.3,77.4,9.6,161.5,9.6s152.3,67.7,152.3,151.3"/>
  <path class="cls-4" d="M161.5,315c-85.5,0-155.1-69.1-155.1-154.1S76,6.8,161.5,6.8s155.1,69.1,155.1,154.1c.1,85-69.5,154.1-155.1,154.1ZM161.5,12.4C79.1,12.4,12.1,79,12.1,160.9s67,148.5,149.5,148.5,149.5-66.6,149.5-148.5c-.1-81.9-67.1-148.5-149.6-148.5Z"/>
  <path class="cls-3" d="M161.5,11.1C78.8,11.1,11.7,78.2,11.7,160.9s67.1,149.8,149.8,149.8,149.8-67.1,149.8-149.8S244.2,11.1,161.5,11.1M161.5,14c81,0,147,65.9,147,147s-65.9,147-147,147S14.5,242.1,14.5,161,80.4,14,161.5,14"/>
  <path class="cls-3" d="M162.1,87.5h-1.4c-5.1,0-31.4.7-63.9,13.8-2.2,7.8-8.4,32.5-5.4,60.6,2.1,19.6,8.1,37,17.9,51.8,11.9,17.9,29.4,32,52.2,42.1,22.9-10.1,40.4-24.3,52.3-42.3,9.8-14.8,15.8-32.3,17.8-52,2.9-28.1-3.2-52.5-5.4-60.2-32.7-13.1-59-13.8-64.1-13.8"/>
  <path class="cls-1" d="M224,103.3c-32.3-12.8-58.9-13.2-61.9-13.2h-.8s-30,.3-62.3,13.2c-2.4,8.7-7.8,32.1-5,58.6,4.5,42.4,27.2,73.1,67.5,91.2,40.5-18.2,63.1-49,67.5-91.8,2.7-26.3-2.6-49.4-5-58Z"/>
  <path class="cls-4" d="M162.1,81.6h-1.4c-4.8,0-33.8.6-68.8,15.4,0,0-41.2,118.3,69.5,165.5h.1c109.9-46.7,69.5-165.6,69.5-165.6-35.1-14.7-64.1-15.3-68.9-15.3M162.1,87.5c5.1,0,31.4.7,64,13.9,2.2,7.7,8.3,32.2,5.4,60.2-2,19.7-8,37.2-17.8,52-11.9,18-29.4,32.2-52.3,42.3-22.8-10.1-40.3-24.2-52.2-42.1-9.7-14.8-15.7-32.2-17.8-51.8-3-28.1,3.2-52.9,5.4-60.6,32.6-13.2,58.9-13.8,63.9-13.8h.8l.6-.1"/>
  <path class="cls-3" d="M125.1,125.7c1.3,0,2.2.3,2.6.8.3.4.5.8.4,1.3-.1,1.4.7,2.9.8,3l.1.2c.2.4.4.8,1.8,1.7.4.3.9.6,1.4,1,1.4,1,3.1,2.2,4.2,2.8l4-2.3v-.5c0-.3.1-.5.2-.6-2.6-4.3-8.7-13.3-15.7-13.5l-.6,6c.2,0,.4.1.5.1h.3ZM119.5,143.2l.3-2.9c-1.4-.1-2.7-.3-3.5-1.2,0,0-1.9-1.4-.4-4.6.1-.2.4-.7-.3-1.6-.1-.1-1-1.6,1-3.3,0,0,.9-.9.3-1.6-.1-.2-.4-.7-.3-1.3.1-.3.3-.6.8-.9.7-.4,1.7-.8,2.9-.8.3,0,.5,0,.8.1l.5-5.6c-.3,0-.6-.1-1-.1-6.6,0-13.5,7-16.5,10.4.1.2.2.3.2.5.1.4,0,.7-.1.9l15.3,12ZM122.5,143.5l3.4-1.7c-.5-.5-1.1-.9-1.6-1.2-.3-.2-.9-.2-1.4-.2l-.4,3.1ZM121.5,154.2c.9.3,1.7.8,2.7,1.6.2.2.5.4.7.6,1.2,1.1,2.6,2.4,4.4,2.4h.6c2.1-.3,7.2-3.2,9.7-4.7-.7-.9-2.4-2.8-6-4.9-4.7-2.9-5.4-4.1-5.8-4.9l-.1-.1-5.6,3-.6,7ZM181.4,223.5c-.2,0-.5-.1-.6-.4-.1-.3-2.7-5.7-.5-9.1-.7-.1-1.6-.2-2.6-.2-2.1,0-3.9.5-5.3,1.4-.1.1-.2.1-.4.1-.1,0-.2,0-.3-.1-.2-.1-.3-.4-.3-.6,0-.1,1.4-7.1,7.7-7.9.1,0,.4-.1.4-.2.1-.5-1-2-2.1-3-.2-.2-.3-.4-.2-.7.1-.2.3-.4.6-.4h.6c5.2,0,8.5,3.2,8.6,3.4l.1.1c.3.3,1.1.8,2,.8,1.1,0,1.7-.9,1.8-2.8,0,0,.1-3.8-7.8-5.8-.4-.1-.7-.1-1.1-.1-2.8,0-4.8,2.7-4.8,2.7-.1.2-.3.3-.5.3-.1,0-.2,0-.3-.1-3.4-2.3-.6-8.6-.2-9.4.3-1.6-.4-2.1-1.7-3-1-.6-2.2-1.4-3.2-2.8-2.1.2-6.7.8-8.1,1.8-.8.5-1.3,1.7-1.4,2.8,0,1.1.4,2,1.1,2.6.1.1,5.4,3,3.9,7-.1.2-.2.3-.4.4h-.2c-.2,0-.3-.1-.4-.2,0,0-1.2-1-2.6-1-.4,0-.8.1-1.1.2.3,2.3,1,11.7-8.2,13.7-1.5.3-5.7,1.1-7.1,1.9-.1,0-2.3,1.1-2.9,3.3-.3,1.1-1.5,3.3-4.1,3.3-1.3,0-2.7-.5-4.2-1.6-.1,0-3.5-2.5-8.5-3.2-1.1-.2-2-.3-2.9-.3-1.4,0-2.6.2-4.1.5-.7.1-1.5.3-2.4.4h-.1c-.2,0-.3-.1-.4-.2-.1-.1-.2-.3-.2-.5s.7-5.3,5.7-7.8c-1.2-1.6-4.7-5.6-8.8-5.7-.3,0-.5-.2-.6-.4s0-.5.1-.7c.1-.1,3.5-3.6,8.6-3.6,1.2,0,2.5.2,3.7.6.2-.5.3-1.3.1-2-.2-.6-.8-1.1-1.6-1.4-.2-.1-.4-.3-.4-.6s.1-.5.3-.6c.1,0,1.6-.8,3.4-.8,1.9,0,4.4.8,5.8,4.3l1-1.7c.1-.2.3-.3.6-.3h0c.1,0,.9.1,1.6.9.8,1,1,2.8.6,5.1-.1.7-.1,2.7.7,3.6.2.2.5.4.8.4.7,0,2.1-.5,4.5-2.7l2.2-2.4c-.7-.5-2-1.6-3.8-3.3-2.6-2.5-2.9-4-3.2-5.2v-.1c-.6-.3-2.8-1.3-5.3-1.3-.8,0-1.5.1-2.2.3h-.2c-.2,0-.3-.1-.4-.2-.2-.1-.2-.4-.2-.6.1-.3,1.4-7.2,12.2-8.5,1.2-1.2,8.7-7.7,30-7.7h.7c.1-.4.3-1.3-.1-2.1-.5-1-1.7-1.8-3.7-2.3-2.9-.7-4.9-1-6.4-1.2-1.8-.3-3-.5-4.5-1.1-1.1-.5-2.7-1.4-4.2-2.2-1.9-1.1-4-2.3-4.9-2.4h-.2c-.5-.1-1-.2-1.4-.2-.8,0-1.8.2-3.6,1.8-.8.7-1.3,1.3-1.7,1.8-.2.2-.4.5-.6.6-1.2,2.7-3.3,6-6.2,6.6h-.1c-.2,0-.4-.1-.5-.3s-.2-.5,0-.7c.1-.1,1.2-1.9.4-4.3-2.4.1-4.5.2-6,.3h-.8c-.1,0-4.1.2-8.4,1.1l-.9,8.9c0,.3-.3.6-.6.6l-1.4-.1c-.2,0-.3-.1-.4-.2-.1-.1-.2-.3-.1-.5l.7-8.5c-2-.3-3.2-1.6-3.3-3.7,0-.2.4-2.2-.8-3.8-1.3-1.9-.3-3.4.4-4.4.2-.2.3-.4.4-.7.8-1.5,2.5-4.1,4.6-4.1h.1l.6-6.7-17-13.8h-.7c-1.4-.1-2.4-1.5-2.2-2.9.1-1.4,1.2-2.5,2.5-2.5h.1c6.7-11.5,16.7-13.9,20.4-14.4v-.3c-.5-.1-1-.4-1.3-.8-.7-1-.4-2.4-.4-2.6.8-3.2,3.8-5.9,3.9-6,.1,0,.2-.1.3-.1s.2,0,.3.1c.1,0,.1.1.2.2.6.8,2.4,3.6,2.6,6.4,0,.2,0,1.6-.8,2.5-.4.4-.9.6-1.4.6h-.1v.2c3.6,1.1,13.1,5.2,17.7,18.1,1.4.2,2.3,1.4,2.2,2.9-.1,1.4-1.2,2.5-2.5,2.5h-.4c-.2,0-.5,0-.8-.2l-2.7,1.6c.5.3.9.4,1.3.6.3.1.5.1.7.1.3,0,.6-.1,1.2-.5.3-.1.6-.3,1-.5.6-.3,1.1-.4,1.7-.4,1,0,2.1.4,3.2.9.3.1.7.3,1.1.4l.5.2c1.1.4,1.8.7,2.4.7.5,0,1.1-.2,1.8-.6.8-.5.9-.8,1-1.1q0-.1.1-.2c.3-.7-1.2-2.3-2.5-3.1-.1-.1-.2-.3-.3-.4,0-.2,0-.4.2-.5.7-.8,1.6-1.2,2.9-1.2,2.3,0,4.9,1.4,5,1.5.4.3.8.4,1.3.4,1.4,0,2.9-1.3,3.3-3.2-.6.1-1.4.1-2.4.1-3.1,0-5.2-.7-6.3-2.1-.8-1-1-2.4-.6-4.1.1-.2.3-.4.5-.5,2.8-.4,5.9-1.1,7.4-1.7-.9-.2-2.2-.3-3.8-.3-1.9,0-3.8.2-5.8.6-1.4.3-2.7.5-3.8.5-3.3,0-4.8-1.4-5.4-2.5-.3-.4-.6-1.8-.1-2.8.3-.5.9-1.1,2.1-1.2h0c.2,0,.3.1.5.2.1.1.2.3.2.5l-.1.5c0,.1-.2.9.3,1.5s1.5.9,2.9.9c1,0,2.2-.2,3.7-.5,3.1-.7,5.7-1,7.8-1,.8,0,1.5.1,2,.1-.7-.8-2.1-1.6-5.1-1.6-1.2,0-2.6.1-4.1.4h-.1c-.3,0-.5-.2-.6-.5-.1-.2-1.5-5.2-1-10.1.1-.7.6-1.9,1.9-1.9.4,0,.7.1,1.1.3,0,0,2.3.9,4.4.9,1.2,0,2.2-.3,2.7-.9,0,0,.8-1,2.9-1,1.3,0,2.8.4,4.6,1.1.6.3,1,.4,1.2.4s.4-.2,1-1c.1-.2.3-.4.4-.6.8-1.2,1.7-2.5,3-2.5.5,0,.9.2,1.4.5,1.5,1,2,2,2.3,3,.6-.3,1.6-.7,3-.7,2,0,4.3.7,6.8,2.1.1,0,.2.1.2.2.2.2,3.8,5.6-4.3,14,1.2,1.5,4.4,6.3,1.5,10.8-.1.2-.3.3-.5.3h-.2s-1.9-.6-2.9-.6h-.2c.1.1.2.3.4.6.2.2,4,4.3,2.1,9,0,.1-1,2.6-3.7,3.5-1.2.4-3.3,1.4-4,3.5-.8,2.2,0,5.2,2.4,8.8.1.2,8.5,13.7,17.9,13.7h.5c.2,0,3.6,0,4.5-1.9.7-1.4-.3-3.7-2.7-6.7h-.1c-.9,0-3.1-.2-4.5-1.9-1.6-1.9-1.4-4.1-.5-5.5-.1-.1-.2-.3-.3-.5-6.7-10.2-7.3-18.8-1.8-25.4.1-.1,3.3-4.2,7-4.2,2.7,0,4.9,2,6.5,5.9,0,.1,3,7.1,14.3,10.3.2.1.4.3.4.5s0,.5-.2.6c-.1.1-3.5,2.7-9,2.7s-10.9-2.4-16.2-7.3c-.4.2-1.1.6-1.5,1.3-.5.8-.5,2,0,3.3,1.4,4.3,3.3,8.6,4.3,10.2.5-.2,1.4-.5,2.6-.5,1.4,0,3,.4,4.6,1.2,3,1.5,6.1,2.3,8.7,2.3,1.7,0,3.1-.4,4-1,.1-.1.2-.1.4-.1.1,0,.3,0,.4.1.2.2.3.4.2.7,0,.1-2.1,6.6-11.4,6.6-1,0-2-.1-3.1-.2.9,1.2,2.2,2.9,3.2,4.8,0,.1,1.3,2.5.5,5.1-.5,1.7-1.8,3.1-3.7,4.1-.1,0-2.8,1.7-8.4,1.7-1.5,0-3.1-.1-4.8-.4-.1,2.1-.1,6,1.1,7.5,0,0,1.7,2.4,3.5,2.4,1.6,0,2.8-2.1,3.4-3.8.1-.2.3-.4.6-.4h0c.1,0,1.7.1,3,1.7,1.5,1.9,1.8,5.1.9,9.4,0,.1-.6,1.7,1.6,4.2.1.1,1.5,2-.1,5,0,0-1.1,2.4,0,3.4.2.2.3.4.2.7-.1.2-.3.4-.5.4,0,0-1.1.2-1.9,2.2,0,0-.7,3.4-3.2,3.4-.5,0-1-.1-1.5-.4-.2.5-.4,1.3-.6,2.5,0,0-.6,3.8-5.7,3.8h-.5c-.2,0-.4-.1-.5-.3s-.1-.4,0-.6c0,0,.6-1.2.2-2.1-.1-.4-.4-.7-.9-.9,0,0-.4-.2-1.1-.2-.5,0-1,.1-1.5.4-1.7.8-4,3.8-5.5,5.8-1.1,1.5-1.5,2-1.9,2.1-.1.6-.2.6-.3.6"/>
  <path class="cls-4" d="M122.7,147.4l4.7-2.5c.6.9,1.7,2.2,5.8,4.7,2.8,1.7,4.5,3.3,5.3,4.3-2.9,1.8-7.1,4.1-8.8,4.3h-.5c-1.6,0-2.9-1.2-4-2.2-.2-.2-.5-.4-.7-.6-.9-.7-1.7-1.2-2.5-1.5l.7-6.5ZM123.3,142.3l.1-1.4c.2,0,.4.1.6.1.2.1.5.3.8.5l-1.5.8ZM119,142l-2.2-1.7c.7.4,1.5.5,2.3.6l-.1,1.1ZM140.5,138.1l1.3-.8c.2.1.5.1.7.1h.3c-.3.1-.5.3-.8.4-.5.3-.7.4-.9.4-.1,0-.3,0-.5-.1,0,0-.1,0-.1,0M125,125.1l.5-4.8c6.2.7,11.8,8.7,14.4,12.8-.1.2-.1.3-.1.5v.2l-3.3,1.9c-1-.6-2.5-1.7-3.8-2.6-.5-.4-1-.7-1.4-1-1.2-.9-1.4-1.2-1.6-1.5,0-.1-.1-.2-.1-.2-.3-.5-.8-1.7-.7-2.6.1-.7-.1-1.3-.6-1.8-.8-.6-1.8-.9-3.3-.9h0ZM104.9,129.8c3.1-3.4,9.6-9.9,15.8-9.9h.3l-.4,4.4h-.2c-1.3,0-2.5.5-3.2.9s-1,.9-1.1,1.3c-.2.9.2,1.6.3,1.8l.1.1c.2.2-.3.8-.3.8-1.9,1.6-1.6,3.3-1.1,4.1l.1.1c.3.4.3.6.3.8-.1.1,0,.1-.1.2-1.3,2.7-.3,4.4.3,5.1l-10.6-8.4v-.8c-.1-.3-.1-.4-.2-.5M176.5,102.1h0c-1.7,0-2.7,1.5-3.5,2.8-.1.2-.3.4-.4.6-.3.4-.5.6-.6.7-.2-.1-.5-.2-.8-.3h-.1c-1.8-.8-3.4-1.2-4.8-1.2-2.1,0-3.1.9-3.4,1.2-.5.4-1.2.7-2.3.7-2,0-4.1-.9-4.2-.9-.5-.2-.9-.3-1.4-.3-1.5,0-2.4,1.3-2.5,2.4-.5,5,.9,10.1,1,10.3.2.5.7.9,1.2.9h.2c1.5-.3,2.8-.4,4-.4.9,0,1.6.1,2.2.2-2,.1-4.3.4-7,1-1.4.3-2.6.5-3.5.5-1.2,0-2.1-.2-2.4-.7-.3-.4-.2-.9-.2-.9v-.1l.1-.5c.1-.4-.1-.8-.3-1.1-.2-.3-.6-.4-.9-.4h-.1c-1.7.1-2.4,1-2.7,1.5-.7,1.3-.2,2.9.1,3.4.7,1.3,2.3,2.8,5.9,2.8,1.2,0,2.5-.2,3.9-.5,1.9-.4,3.8-.6,5.6-.6h.4c-1.3.3-2.8.6-4.1.8-.5.1-.9.5-1,.9-.5,1.9-.2,3.4.7,4.6,1.2,1.6,3.5,2.4,6.8,2.4.5,0,1.1,0,1.5-.1-.5,1.2-1.5,1.9-2.4,1.9-.3,0-.6-.1-.9-.3-.1-.1-2.8-1.6-5.3-1.6-1.4,0-2.6.5-3.4,1.4-.2.3-.3.6-.3,1s.2.7.5.9c1.1.8,2.2,1.9,2.2,2.4,0,.1-.1.1-.1.2-.1.1-.1.3-.7.7-.7.5-1.2.5-1.4.5-.6,0-1.2-.3-2.2-.6l-.4-.2c-.4-.1-.7-.3-1.1-.4-1.2-.5-2.3-.9-3.5-.9h-.3c.7-.6,1.3-1.4,1.3-2.5.2-1.7-.8-3.2-2.3-3.5-4.2-11.4-12.2-15.9-16.5-17.6l.3-.3c1-1,1-2.6,1-2.9-.2-3-2.1-5.9-2.7-6.7h0c-.1-.1-.2-.3-.4-.4-.2-.1-.4-.2-.7-.2-.2,0-.4,0-.5.1-.3.2-3.4,3-4.3,6.4-.1.3-.4,2,.5,3.2l.3.3c-4.5.9-13.2,3.9-19.3,14.2-1.5.1-2.7,1.4-2.9,3.1-.2,1.8,1.1,3.4,2.8,3.6h.6l16.6,13.4-.5,5.8c-2,.3-3.7,2.5-4.7,4.3-.1.2-.2.4-.4.6-.7,1-2,2.8-.4,5.1,1,1.4.7,3.2.7,3.2v.3c0,2.2,1.2,3.6,3.2,4.2l-.7,7.9c0,.3.1.7.3.9.2.3.5.4.9.5l1.4.1h.1c.6,0,1.2-.5,1.3-1.1l.8-8.4c4-.9,7.8-1,7.8-1h.8c1.4-.1,3.3-.2,5.5-.3.4,1.8-.5,3.3-.5,3.3-.3.4-.3,1,0,1.4.2.3.6.5,1,.5h.2c3.1-.6,5.3-4,6.6-6.8.2-.2.3-.4.5-.6.4-.5.9-1.1,1.7-1.7,1.7-1.5,2.5-1.7,3.2-1.7.4,0,.8.1,1.3.1h.2c.8.1,2.9,1.3,4.7,2.3,1.5.9,3.1,1.8,4.3,2.2,1.5.6,2.8.8,4.6,1.1,1.6.2,3.5.5,6.4,1.2,1.7.4,2.9,1.1,3.3,1.9.2.4.2.8.1,1.2h-.2c-20.6,0-28.6,6.2-30.3,7.8-11.1,1.3-12.5,8.6-12.5,9-.1.4.1.9.4,1.2.2.2.5.3.8.3h.3c.6-.2,1.3-.3,2.1-.3,2,0,3.9.7,4.7,1.1.3,1.2.7,2.9,3.3,5.4,1.4,1.4,2.6,2.3,3.3,2.9l-1.7,1.9c-2.5,2.3-3.6,2.5-4,2.5-.2,0-.3-.1-.4-.1-.5-.5-.6-2.1-.5-3.1.4-2.5.2-4.4-.7-5.6-.8-1-1.9-1.1-2.1-1.1h-.1c-.5,0-.9.2-1.1.6l-.4.6c-1.7-3.1-4.3-3.6-5.9-3.6-2,0-3.6.8-3.7.9-.4.2-.7.7-.7,1.2s.3.9.8,1.1c.7.3,1.1.6,1.3,1.1.1.3.1.7.1,1-1.1-.3-2.1-.4-3.2-.4-5.3,0-8.9,3.6-9,3.8-.3.4-.5.9-.3,1.4s.6.8,1.1.8c3.4.1,6.4,3.2,7.8,4.9-4.7,2.8-5.4,7.7-5.4,7.9,0,.4.1.8.4,1.1.2.2.6.4.9.4h.2c.9-.1,1.7-.3,2.4-.4,1.5-.3,2.6-.5,4-.5.9,0,1.8.1,2.8.2,4.8.8,8.2,3.1,8.2,3.1,1.7,1.1,3.2,1.7,4.6,1.7,2.9,0,4.3-2.5,4.7-3.8.5-1.9,2.5-2.8,2.5-2.8,0,0,.1,0,.1-.1,1.1-.7,4.8-1.5,6.8-1.8,8.1-1.8,9.3-9.3,8.8-13.9h.4c1.2,0,2.2.9,2.2.9.2.2.5.3.8.3h.3c.4-.1.7-.4.9-.8,1.6-4.3-3.4-7.3-4.2-7.8-.7-.6-.8-1.5-.8-2,0-1,.5-1.9,1.1-2.3,1.2-.8,4.9-1.4,7.5-1.6,1,1.3,2.2,2.1,3.1,2.7,1.4.9,1.7,1.1,1.5,2.2-.6,1.3-3.4,7.6.4,10.1.2.1.5.2.7.2.4,0,.8-.2,1-.5,0,0,1.8-2.4,4.3-2.4.3,0,.6,0,.9.1,7.3,1.8,7.3,5.1,7.3,5.1-.1,1.4-.5,2.2-1.2,2.2-.6,0-1.4-.4-1.5-.6,0-.1-.1-.1-.2-.2-.5-.5-3.9-3.5-9-3.5h-.7c-.5,0-1,.4-1.1.9-.2.5,0,1,.4,1.4.8.7,1.6,1.6,1.8,2.1-6.6,1.1-8,8.1-8,8.4-.1.5.1,1,.6,1.3.2.1.4.2.7.2s.5-.1.7-.2c1.3-.9,2.9-1.3,4.9-1.3.6,0,1.2,0,1.7.1-1.5,3.7.8,8.7.9,8.9.2.5.7.7,1.1.7.2,0,.3,0,.5-.1.5-.2.9-.7,2.1-2.3,1.4-1.8,3.6-4.8,5.2-5.6.4-.2.8-.3,1.2-.3.5,0,.7.1.7.1.4.2.5.4.6.6.2.6-.1,1.4-.2,1.6-.2.4-.2.8,0,1.2s.6.6,1,.6h.5c4.5,0,6.1-2.8,6.3-4.3.1-.8.3-1.4.4-1.8.4.1.8.2,1.1.2,2.4,0,3.5-2.4,3.8-3.9.5-1.4,1.2-1.7,1.3-1.7.5,0,.9-.3,1.1-.8.2-.5,0-1.1-.5-1.4-.5-.5-.1-1.9.2-2.6,1.4-2.6.7-4.8,0-5.6,0,0,0-.1-.1-.1-1.9-2.2-1.5-3.5-1.5-3.5q0-.1.1-.2c.9-4.5.6-7.9-1-10-1.4-1.8-3.2-1.9-3.4-2h-.1c-.5,0-1,.3-1.2.8-.5,1.3-1.5,3.4-2.8,3.4-1.2,0-2.6-1.5-3-2.1-.9-1.2-1.1-4.2-1-6.5,1.4.2,2.8.3,4.2.3,5.5,0,8.3-1.6,8.8-1.8,2.1-1.1,3.4-2.6,4-4.4.9-2.9-.5-5.5-.6-5.6-.7-1.3-1.5-2.6-2.3-3.7.6,0,1.1.1,1.7.1,9.1,0,11.6-6,11.9-7,.1-.2.1-.3.1-.5,0-.7-.6-1.3-1.3-1.3h0c-.3,0-.6.1-.8.3-.7.5-2,.9-3.6.9-2.5,0-5.5-.8-8.4-2.3-1.7-.9-3.3-1.3-4.9-1.3-1,0-1.8.2-2.4.4-.9-1.6-2.5-5.3-3.9-9.6-.4-1.2-.4-2.1,0-2.8.2-.4.5-.7.8-.8,5.4,4.7,10.9,7.1,16.3,7.1,5.7,0,9.2-2.7,9.4-2.8.4-.3.6-.8.5-1.2-.1-.5-.4-.8-.9-1-11-3.1-13.8-9.9-13.9-9.9-1.8-4.2-4.2-6.3-7.1-6.3-4.1,0-7.4,4.3-7.6,4.5-5.7,6.8-5.1,15.6,1.8,26.1l.1.1c-.9,1.6-.9,3.8.8,5.8,1.5,1.8,3.7,2.1,4.8,2.2,2.1,2.6,3,4.6,2.5,5.8-.6,1.2-3,1.5-3.8,1.5h-.6c-9.1,0-17.3-13.3-17.3-13.4-2.3-3.4-3.1-6.3-2.4-8.3.7-1.9,2.5-2.8,3.6-3.1,3-1,4.1-3.8,4.1-3.9,1.6-3.9-.5-7.5-1.7-8.9.6.1,1.2.3,1.5.4.1,0,.3.1.4.1.4,0,.8-.2,1.1-.6,2.9-4.4.2-9.1-1.2-11.1,8-8.6,4.2-14.2,4-14.4-.1-.2-.3-.3-.4-.4-2.7-1.4-5.1-2.2-7.1-2.2-1.1,0-1.9.2-2.6.4-.3-.9-1-1.8-2.3-2.7.3-.6-.3-.8-.9-.8M219.5,155.3h0M129.3,159.4h.6c2.9-.4,10.5-5.2,10.5-5.2,0,0-1.5-2.5-6.5-5.7-5-3.1-5.3-4.1-5.8-5,0,0-.2-.3-.4-.3h-.1l-6.1,3.3-.7,8.1c1.1.4,2,.8,3,1.6,1.4,1.2,3,3.2,5.5,3.2M121.8,144.5l5.2-2.7c-.6-.7-1.5-1.5-2.4-1.9-.5-.3-1.3-.3-2.3-.3l-.5,4.9ZM124.8,126.4h.2c.8,0,2.6.1,2.4,1.4-.1,1.5.6,2.9.9,3.4s.4.9,2.1,2.1c1.7,1.2,4.6,3.3,5.9,4l4.7-2.7c-.2-.4-.2-.3-.2-.8,0-.3.3-.4.4-.6-2.8-4.7-9.2-14.2-16.8-14.2h-.3l-.7,7.2c.7.1,1.1.2,1.4.2M120,144.4l.5-4.8c-1.5,0-2.9-.1-3.8-1,0,0-1.6-1.2-.3-3.9,0,0,.7-.9-.4-2.3,0,0-.7-1.1.9-2.5,0,0,1.4-1.3.4-2.5,0,0-.5-.8.3-1.2.6-.3,1.6-.7,2.6-.7.3,0,.5,0,.8.1.2,0,.4.1.5.1l.6-7c-.6-.1-1.1-.1-1.7-.1-6.8,0-14,7.1-17.3,10.9.1.3.3.4.3.7.1.5-.1.7-.3,1l16.9,13.2ZM176.5,103.3c.3,0,.6.1,1,.4,1.8,1.2,2,2.4,2.2,3.6,0,0,1-1.2,3.4-1.1,1.6,0,3.7.5,6.5,2,0,0,3.7,5.2-4.7,13.6,0,0,5,5.6,1.8,10.5,0,0-1.9-.6-3.1-.6-.9,0-1.4.4-.2,1.6,0,0,3.8,4,2,8.3,0,0-.9,2.3-3.3,3.1-2.2.7-8.2,3.7-1.9,13.3,0,0,8.5,14,18.4,14h.5c.5,0,10.1-.1,1.9-9.8h-.4c-.8,0-2.8-.2-4-1.7-1.5-1.8-1.2-3.8-.2-5,.3-.3-11.7-14.4-2.3-25.5,0,0,3.1-4,6.6-4,2,0,4.2,1.3,6,5.5,0,0,3,7.3,14.7,10.7,0,0-3.3,2.5-8.6,2.5-4.2,0-9.8-1.6-16.1-7.4,0,0-3.8,1-2.2,5.5,1.5,4.6,3.6,9.6,4.7,10.8,0,0,1-.7,2.8-.7,1.1,0,2.6.3,4.3,1.2,3.4,1.7,6.5,2.4,9,2.4,1.9,0,3.4-.4,4.3-1.1,0,0-1.9,6.2-10.7,6.2-1.4,0-2.9-.2-4.7-.5,0,0,2.6,2.9,4.2,6,0,0,2.9,5.3-2.9,8.3,0,0-2.6,1.6-8.1,1.6-1.5,0-3.3-.1-5.3-.5,0,0-.6,6.4,1.1,8.6,0,0,1.8,2.6,4,2.6,1.3,0,2.8-1,4-4.2,0,0,5.4.2,3.3,10.4,0,0-.8,1.9,1.8,4.8,0,0,1.2,1.6-.2,4.3,0,0-1.4,2.9.1,4.2,0,0-1.5.1-2.4,2.7,0,0-.6,3-2.6,3-.5,0-1.1-.2-1.8-.6,0,0-.6.8-1,3.3,0,0-.5,3.2-5,3.2h-.5s1.4-2.8-.9-3.9c0,0-.5-.3-1.3-.3-.5,0-1.1.1-1.8.4-2.8,1.4-6.6,7.6-7.3,7.8,0,0-3-6.3,0-9.3,0,0-1.7-.5-3.8-.5-1.8,0-3.9.3-5.6,1.5,0,0,1.2-6.6,7.2-7.4,2.8-.6-1.4-4.3-1.4-4.3h.6c5,0,8.2,3.2,8.2,3.2l.1.1c.4.4,1.4,1,2.4,1,1.1,0,2.3-.8,2.4-3.4,0,0,.3-4.3-8.3-6.4-.4-.1-.8-.1-1.2-.1-3.2,0-5.3,3-5.3,3-3.2-2.1.1-8.7.1-8.7.8-3.6-2.8-3-5.2-6.7,0,0-6.8.6-8.8,1.9-1.9,1.2-2.4,4.9-.3,6.5,0,0,5,2.7,3.7,6.3,0,0-1.3-1.2-3-1.2-.6,0-1.2.1-1.8.5,0,0,2.2,11.3-7.6,13.4,0,0-5.5,1-7.3,2,0,0-2.6,1.1-3.2,3.7,0,0-.7,2.8-3.5,2.8-1,0-2.3-.4-3.9-1.5,0,0-3.5-2.5-8.8-3.3-1.2-.2-2.2-.3-3-.3-2.2,0-3.9.5-6.7.9,0,0,.6-5.3,6.1-7.6,0,0-4.3-6.4-9.7-6.6,0,0,3.3-3.4,8.1-3.4,1.2,0,2.6.2,4,.8,0,0,1.8-3.5-1.7-4.8,0,0,1.4-.7,3.1-.7,2,0,4.5,1,5.7,5.2l1.7-2.9s2.5.1,1.6,5.3c0,0-.5,4.7,2.2,4.7,1.1,0,2.6-.8,4.9-2.9l2.7-3s-1.6-1.1-4.3-3.6c-2.7-2.6-2.8-4.1-3.1-5.2,0-.2-2.7-1.6-5.8-1.6-.8,0-1.6.1-2.4.3,0,0,1.2-6.9,11.8-8,0,0,6.8-7.7,29.7-7.7h1.1s2.2-4.1-4-5.6-8.2-1.2-10.8-2.3-7.5-4.4-9.2-4.6c-.6-.1-1.1-.2-1.7-.2-1.1,0-2.2.4-4,2-1.2,1.1-1.8,1.9-2.4,2.5-.7,1.5-2.7,5.7-5.7,6.3,0,0,1.5-2.4.4-5.3-3,.1-5.6.2-7.3.3,0,0-4.4.2-8.9,1.3l-.9,9.3-1.4-.1.8-9.1c-1.3-.1-3.3-.6-3.3-3.1,0,0,.4-2.3-.9-4.2s.3-3.2.9-4.4c.6-1.1,2.2-3.7,4.1-3.7.2,0,.4,0,.5.1h.1l.7-7.7-17.3-14c-.2-.1-.4-.1-.5-.1h-.6c-1-.1-1.7-1.1-1.6-2.2.1-1.1.9-1.9,1.9-1.9h.2c.1,0,.2,0,.3.1,6.9-12.1,17.4-14.2,20.6-14.6l.1-1.4-.4-.1c-1.9-.2-1.3-2.6-1.3-2.6.8-3,3.6-5.5,3.6-5.5,0,0,2.3,3,2.5,6.1,0,0,.1,2.4-1.6,2.4h-.7l-.1,1.4c2.7.7,13.2,4.5,17.9,18.3h.4c1,.1,1.7,1.1,1.6,2.2-.1,1.1-.9,1.9-1.9,1.9h-.1c-.4,0-.6,0-1-.3l-4,2.3c.9.5,1.6,1,2.4,1.2.3.1.6.2.9.2.7,0,1.1-.4,2.4-1,.5-.3,1-.4,1.5-.4,1.2,0,2.4.6,4.1,1.3,1.3.5,2.2.9,3.1.9.6,0,1.3-.2,2.1-.7,1.2-.7,1.2-1.2,1.3-1.5.7-1.5-2.7-3.9-2.7-3.9.6-.7,1.5-1,2.4-1,2.2,0,4.7,1.4,4.7,1.4.5.3,1.1.5,1.6.5,2,0,3.9-2,4-4.6,0,0-1.4.2-3.1.2-3.1,0-7.4-.8-6.3-5.4,0,0,7.8-1.2,8.7-2.5v-.2c-.5-.2-2.3-.7-5.2-.7-1.6,0-3.6.2-5.9.7-1.4.3-2.6.4-3.7.4-2.7,0-4.1-.9-4.8-2.2-.3-.5-.9-2.9,1.5-3.1l-.1.5s-.9,3.2,3.8,3.2c1,0,2.2-.1,3.8-.5,3.5-.8,5.9-1,7.6-1,2,0,2.9.3,3.2.5-.1-.6-1-3.2-6.4-3.2-1.2,0-2.6.1-4.2.4,0,0-1.5-5-1-9.8,0,0,.2-1.3,1.3-1.3.2,0,.5.1.9.2,0,0,2.4,1,4.6,1,1.2,0,2.4-.3,3.2-1.1,0,0,.6-.8,2.4-.8,1,0,2.4.3,4.3,1.1.7.3,1.1.5,1.5.5.5,0,.9-.3,1.5-1.3.8-1.3,1.6-3,2.8-3"/>
  <polygon class="cls-4" points="26 150.8 26.1 156.8 44 161 26.3 165.8 26.4 171.8 52.2 163.5 52.2 158.3 26 150.8"/>
  <path class="cls-4" d="M43.1,138.9l-.7,4.5-8.6-3.7,9.3-.8ZM27.4,142.5l24.5,11.4,1-5.8-6-2.7,1.1-6.8,6.5-.6,1-5.8-26.9,3.1-1.2,7.2Z"/>
  <rect class="cls-4" x="22.07" y="132.94" width="4.4" height="4.4" transform="translate(-113.02 137.38) rotate(-80.75)"/>
  <rect class="cls-4" x="21.08" y="138.93" width="4.4" height="4.4" transform="translate(-119.76 141.42) rotate(-80.75)"/>
  <polygon class="cls-4" points="39 102.1 36.8 108.2 42.6 114.8 34 115.7 31.7 122.1 46.2 119.6 55.9 131.6 58.1 125.6 52.3 118.5 61.2 117.1 63.5 110.7 48.4 113.7 39 102.1"/>
  <g>
    <path class="cls-4" d="M64.3,94.9l-15.5-8.9-2.9,5,16.3,9.3c.9.5,1.4,1,1.7,1.5.2.5.2,1-.1,1.6-.4.7-1,1-1.9,1-.4,0-.9-.1-1.4-.2l-.3-.1-1.9,5.5.3.1c.9.3,1.9.5,2.7.5,2.6,0,4.8-1.5,6.5-4.3,1.7-3,3.1-7.3-3.5-11"/>
    <path class="cls-4" d="M74.5,87.6c-.8.9-1.7,1.4-2.9,1.4h0c-2.8,0-6-2.5-6.8-3.2-.8-.6-2.6-2.3-3.7-4.3-1-2-1-3.6.2-5,.7-1,1.7-1.5,2.9-1.5,2.8,0,6,2.5,6.8,3.2.8.6,2.6,2.3,3.7,4.3,1,2,1,3.7-.2,5.1M74.9,73.7c-3-2.5-6.5-3.9-9.7-3.9-3,0-5.6,1.2-7.5,3.6-2.2,2.6-2.9,5.8-2,9,.8,2.8,2.6,5.6,5.3,7.8,3,2.5,6.5,3.9,9.7,3.9,3,0,5.6-1.2,7.5-3.6,2.2-2.6,2.9-5.8,2-9-.8-2.8-2.7-5.6-5.3-7.8"/>
  </g>
  <rect class="cls-4" x="50.42" y="70.97" width="4.4" height="4.4" transform="translate(-37.25 66.34) rotate(-49.93)"/>
  <rect class="cls-4" x="54.32" y="66.41" width="4.4" height="4.4" transform="translate(-32.37 67.66) rotate(-49.9)"/>
  <polygon class="cls-4" points="95.8 66.8 84.8 48.9 79.8 52 93.5 74.1 107.4 65.5 104.8 61.3 95.8 66.8"/>
  <path class="cls-4" d="M115.6,49.4l-4.2,1.8-1.5-9.2,5.7,7.4ZM104.1,38.1l3.7,26.7,5.4-2.4-1-6.5,6.4-2.8,4.1,5.2,5.3-2.3-17.2-20.9-6.7,3Z"/>
  <polygon class="cls-4" points="142.3 26.3 135.7 27.8 130.7 39 128.6 29.4 123 30.6 128.6 56 134.2 54.7 132.5 47.1 134.1 43.8 142.2 53 148.7 51.5 136.8 38.1 142.3 26.3"/>
  <polygon class="cls-4" points="155.3 46.5 155.1 40.8 164 40.6 163.8 35.6 155 35.8 154.8 30.5 165.5 30.2 165.3 25.2 148.9 25.7 149.7 51.7 166.8 51.1 166.6 46.2 155.3 46.5"/>
  <g>
    <path class="cls-4" d="M178,31.3l2.1.3c1.6.2,3.4.5,4.2,1.5.4.5.5,1.2.4,2-.2,1.5-1.1,2.1-2.9,2.1-.8,0-1.7-.1-2.4-.2l-2.1-.3.7-5.4ZM183.3,27.1l-10.2-1.6-4,25.7,5.7.9,1.6-10.4,3.2.5,2.9,11.1,6,.9-3.3-12.4c2.7-.8,4.7-3.1,5.1-5.8.3-1.9-.1-3.8-1.2-5.4-.6-1.3-2.4-3-5.8-3.5"/>
    <path class="cls-4" d="M207.3,32.9c-1-.4-2-.5-3.1-.5-3.6,0-6.6,2.1-7.8,5.3-1.7,4.8,1.7,7.4,4.5,9.5,2.4,1.8,3.8,2.9,3.2,4.7-.6,1.5-1.7,1.9-2.6,1.9-.5,0-1-.1-1.5-.3-1.8-.7-2.6-2.1-2.3-4.5v-.3l-5.7-1.1-.1.4c-.9,4.9,1.3,8.5,6.3,10.3,1.2.4,2.4.6,3.5.6,4,0,6.7-2.6,7.6-5.2,1.9-5.4-1.6-8-4.5-10.1-2.2-1.7-3.6-2.7-3-4.4.4-1,1.3-1.7,2.4-1.7.3,0,.7.1,1,.2,1.4.5,2,1.9,1.9,4.2v.3l5.2.9.1-.3c1.3-4.5-.8-8.4-5.1-9.9"/>
  </g>
  <polygon class="cls-4" points="244.4 53.5 238.6 61.5 232.4 57 238.2 49 233.5 45.6 218.2 66.6 222.9 70 229.4 61.1 235.6 65.6 229.1 74.5 233.7 78 249 56.9 244.4 53.5"/>
  <g>
    <path class="cls-4" d="M258.4,76.9c-1,2.1-2.7,3.8-3.5,4.5-.9.8-4,3.5-6.9,3.5-1.1,0-2-.4-2.8-1.2-1.2-1.3-1.3-3-.4-5,.9-2.1,2.7-3.8,3.5-4.5.9-.8,4-3.5,6.9-3.5,1.1,0,2,.4,2.8,1.2,1.1,1.3,1.3,2.9.4,5M263.8,77.6c.7-3.3-.1-6.4-2.4-8.9-2-2.2-4.4-3.2-7.2-3.2-3.3,0-6.9,1.6-10,4.4-2.6,2.4-4.3,5.2-4.9,8.1-.7,3.3.1,6.4,2.4,8.9,2,2.2,4.4,3.2,7.2,3.2,3.3,0,6.9-1.6,10-4.4,2.6-2.4,4.3-5.2,4.9-8.1"/>
    <path class="cls-4" d="M267.5,108.4l.3-.1-2.3-5.1-.3.1c-3,1.1-5,.7-6.3-1.3-2.4-4,3.6-7.9,4.9-8.7,1.1-.7,3.9-2.2,6.4-2.2,1.6,0,2.8.6,3.5,1.8,1.2,2,.7,4-1.8,6.2l-.3.2,3.5,4.3.3-.2c4.2-3.6,5.1-8.3,2.2-12.9-1.9-3.1-4.9-4.8-8.6-4.8-2.7,0-5.7.9-8.4,2.6-5.7,3.5-9.7,9.8-5.8,16.2,1.9,3.2,4.8,4.9,8.1,4.9,1.6,0,3.1-.3,4.6-1"/>
  </g>
  <polygon class="cls-4" points="268.1 133.1 279.8 119.5 292.1 123.3 289.8 117 278.1 113.6 287.3 110.2 285.3 104.8 260.9 113.8 262.9 119.3 270.3 116.5 273.7 117.6 265.8 126.9 268.1 133.1"/>
  <polygon class="cls-4" points="273.7 138 279.3 137 280.9 145.7 285.8 144.9 284.2 136.2 289.5 135.2 291.4 145.7 296.3 144.9 293.4 128.7 267.8 133.2 270.8 150 275.7 149.1 273.7 138"/>
  <polygon class="cls-4" points="297 165.6 286.3 160.3 296.9 154.9 296.8 148.7 281.4 157.5 270.9 157.6 271 163.4 281.5 163.2 297.1 171.6 297 165.6"/>
  <path class="cls-4" d="M65.5,236.9c-1-2.6-1.5-4.2-.2-5.3,1.1-.9,2.8-.6,3.7.6.9,1.2.7,2.7-.6,4.5l-.2.3,3.9,3.5.2-.2c3.2-3,3.5-7.5.7-11-1.7-2.1-4.2-3.4-6.8-3.4-1.8,0-3.5.6-4.9,1.7-4,3.2-2.5,7.1-1.3,10.4,1,2.7,1.6,4.5.1,5.6-1.4,1.1-3.1.7-4.3-.8s-1-3.2.5-5l.2-.3-4.2-4-.2.3c-3.4,3.6-3.4,7.9-.2,12.1,2.4,3.1,5.1,3.7,6.9,3.7s3.6-.6,4.9-1.6c4.7-3.7,3.1-7.8,1.8-11.1"/>
  <polygon class="cls-4" points="89.1 253.3 92.5 249.6 78.6 236.9 75.2 240.6 80 245 65.9 260.5 70.1 264.4 84.3 248.9 89.1 253.3"/>
  <g>
    <path class="cls-4" d="M90.8,264c1.6-2.6,4.3-5.4,6.8-5.4.7,0,1.3.2,2,.6,3.9,2.5.3,8.7-.5,9.9-.8,1.3-3.6,5.4-6.8,5.4-.7,0-1.3-.2-2-.6-3.9-2.4-.3-8.7.5-9.9M102,255.2c-1.7-1-3.4-1.6-5.2-1.6-4.1,0-8.2,2.7-11,7.2-3.5,5.7-4.3,13.1,2,17.1,1.7,1,3.4,1.6,5.2,1.6,4.1,0,8.2-2.7,11-7.2,3.5-5.7,4.3-13.1-2-17.1"/>
    <path class="cls-4" d="M116.1,268.6l1.9.7c1.5.6,3.2,1.2,3.7,2.4.3.6.2,1.2-.1,2.1-.4,1.1-1.1,1.6-2.2,1.6s-2.3-.5-3.3-.9l-2-.7,2-5.2ZM122.1,265.5l-9.6-3.7-9.2,24.3,5.4,2,3.7-9.8,3.1,1.2.5,11.4,5.7,2.2-.6-12.8c2.8-.2,5.2-2,6.2-4.6,1.2-3.4.2-8.1-5.2-10.2"/>
  </g>
  <polygon class="cls-4" points="129.7 273.6 136.1 274.8 132.2 295.4 137.9 296.5 141.8 275.9 148.2 277.1 149.2 272.2 130.6 268.7 129.7 273.6"/>
  <polygon class="cls-4" points="173.8 271.6 174.7 281.5 167.1 282.1 166.2 272.3 160.5 272.8 162.7 298.7 168.4 298.2 167.5 287.1 175.1 286.5 176 297.6 181.7 297.1 179.6 271.2 173.8 271.6"/>
  <path class="cls-4" d="M195.3,267.1l-5.6,1.4,4.7,18.2c.7,2.8-.7,3.2-1.1,3.3-.2,0-.3.1-.5.1-1.2,0-1.9-1.2-2.3-1.9l-.2-.3-5.2,2.5.2.3c1.4,2.8,3.6,4.2,6.4,4.2.8,0,1.8-.1,2.7-.4,3.2-.8,7.2-2.8,5.3-10.2l-4.4-17.2Z"/>
  <rect class="cls-4" x="199.11" y="257.9" width="4.4" height="4.4" transform="translate(-88.21 104.04) rotate(-23.94)"/>
  <rect class="cls-4" x="204.5" y="255.39" width="4.4" height="4.4" transform="translate(-86.7 105.94) rotate(-23.92)"/>
  <path class="cls-4" d="M213.9,275.6l-4.2,1.8-1.6-9.2,5.8,7.4ZM202.3,264.4l3.9,26.7,5.4-2.4-1.1-6.5,6.3-2.8,4.1,5.1,5.4-2.4-17.3-20.7-6.7,3Z"/>
  <path class="cls-4" d="M231.3,259.2c-.2,1.3-1.8,2.4-3.1,3.2l-1.7,1.2-3.1-4.5,1.7-1.2c1.2-.8,2.5-1.7,3.7-1.7.8,0,1.4.4,2,1.3.5.5.6,1.1.5,1.7M235.6,254c-1.1-1.6-3.3-3.3-6.2-3.3-1.7,0-3.4.6-5.1,1.7l-8.5,5.8,14.7,21.4,4.8-3.3-5.9-8.7,2.7-1.8,9.7,6.1,5-3.4-10.8-6.8c1.3-2.3,1.2-5.4-.4-7.7"/>
  <polygon class="cls-4" points="248.8 237.5 245.3 233.9 231.8 247.1 235.3 250.7 240 246.1 254.7 261.1 258.8 257.1 244.1 242.1 248.8 237.5"/>
  <path class="cls-4" d="M260.6,238.2l-5.9-7.2,8.6,3.6-2.7,3.6ZM252.2,224.6l-4.4,5.9,16.5,21.4,3.5-4.7-4.1-5.1,4.1-5.5,6.1,2.5,3.5-4.7-25.2-9.8Z"/>
  <polygon class="cls-4" points="276.9 193.9 280 182.4 283.2 193.8 295.1 193.2 285.2 199.8 289.5 210.9 280.1 203.5 270.9 211 275 199.9 265.1 193.4 276.9 193.9"/>
  <polygon class="cls-4" points="39.9 193.9 43 182.4 46.2 193.8 58.1 193.2 48.2 199.8 52.5 210.9 43.1 203.5 33.9 211 38 199.9 28.1 193.4 39.9 193.9"/>
</svg>