<?xml version="1.0" encoding="UTF-8"?>
<svg id="Lager_1" data-name="Lager 1" xmlns="http://www.w3.org/2000/svg" viewBox="0 0 231.5 185.4">
  <defs>
    <style>
      .cls-1 {
        fill: #002d74;
      }

      .cls-1, .cls-2, .cls-3 {
        stroke-width: 0px;
      }

      .cls-2 {
        fill: #fff;
      }

      .cls-3 {
        fill: #c10230;
      }
    </style>
  </defs>
  <g>
    <path class="cls-2" d="M41,73.1v30.7c0,7.7,8.1,14.8,22.8,19.8,13.8,4.8,32.2,7.4,51.6,7.4s37.7-2.6,51.6-7.4c14.7-5,22.8-12.1,22.8-19.8v-30.7c0-7.7-8.1-14.8-22.8-19.8-13.8-4.8-32.2-7.4-51.6-7.4s-37.7,2.6-51.6,7.4c-14.7,5-22.8,12.1-22.8,19.8Z"/>
    <path class="cls-2" d="M228.8,101.2c1.3-2.8,2.5-7.3,2.1-10.3l-.4-3-2,.7c1.5-2.8,2-6.1,2.3-10.3.1-1.3.2-3.8.2-5.3l-.1-3.9-1.9.9c2.3-5.4,1.1-13.1-.2-16.1l-1-2.5-1.9,1c.5-3.6-.4-8.8-2.4-13.3l-1.7-3.8-1.1,1.4c-.1-.4-.2-.7-.3-1.1-1-2.9-5.7-9-6.7-10.1l-1.8-2.2-1.6,1.7c-.3-1.4-1-2.9-1.8-4-1.2-1.7-2.7-3-4.2-4.4s-2.9-2.7-3.9-4.2l-2.8-4.3-1.1,3.2c-1-1.9-2.3-3.3-3.5-4.4-1.6-1.5-3-2.3-4.4-3.1-.8-.5-1.7-.9-2.6-1.6l-3-2.2-.7,3.8c0,.1-.3,1.8-.3,4.1-3.2-3.3-8.4-3.7-10.5-3.7-1.5,0-2.9.2-4.1.4l-2.6.6.8,2.5c.3.9.4,1.6.6,2.3.4,2.1.8,4.2,4,6,0,0,.1,0,.1.1-1.3.4-2.5.8-3.7,1.4l-2.1,1,.9,2.2c1.9,4.4,5,6.8,9.5,7.3-.1.1-.2.2-.3.2l-1.6,1.3.9,1.8c.7,1.3,1.4,2.1,2.1,2.7,2.3,2.1,4.8,3.2,7.2,3.8l-.4.1.3,1.9c.5,3.6,3.5,5.8,6.9,7.3l.2,2.3c.1,1.1.8,5.5,5.6,9.1h-1l.5,3c.6,3.8,2.3,7.8,4.6,10.7l-.8,1.7c-1.3,2.8-.6,7.4,1,11.1l-.5-.4-1.3,2.6c-.7,1.5-2.2,5.3-1.4,10.1l-.4-.4-1.7,2.2c-2.2,2.8-3.2,6.6-2.8,11.4l-1.6.9c-2.6,1.4-5,6.1-6,9.7v-.1l-2.1.6c-1.7.5-2.9,2-3.8,3.1-.2.2-.4.5-.5.6-2.2,2.4-3.4,5-4.3,7.4l-2.4,1.3c-.5.3-1,.6-1.6.8-.6.3-1.2.6-1.8,1-.5.3-1,.5-1.5.8-2.8,1.5-6,3.2-7.7,5.6-.1.1-.1.2-.2.3l-2,.2c-4.1.3-9.6,2.9-12.8,5.2-1.6,1.1-3.3,2.8-4.8,4.6-2.1,2.5-2.8,3.9-2.4,5.2h-42.4c.4-1.3-.3-2.7-2.4-5.2-1.5-1.8-3.3-3.4-4.8-4.6-3.1-2.3-8.7-4.9-12.8-5.2l-2-.2c-.1-.1-.1-.2-.2-.3-1.7-2.4-4.9-4.1-7.7-5.6-.5-.3-1-.6-1.5-.8-.6-.3-1.2-.6-1.8-1-.5-.3-1.1-.6-1.6-.8l-2.4-1.3c-.8-2.5-2.1-5.1-4.3-7.4-.2-.2-.3-.4-.5-.6-1-1.2-2.2-2.6-3.8-3.1l-2.1-.6v.1c-1-3.6-3.4-8.3-6-9.7l-1.6-.9c.3-4.7-.6-8.5-2.8-11.4l-1.7-2.2-.4.4c.7-4.8-.7-8.5-1.4-10.1l-1.3-2.4-.5.4c1.6-3.7,2.3-8.3,1-11.1l-.8-1.7c2.2-2.9,4-6.9,4.6-10.7l.5-3h-1c4.8-3.6,5.5-8,5.6-9.1l.2-2.3c3.3-1.5,6.3-3.8,6.9-7.3l.3-1.9-.4-.1c2.3-.6,4.8-1.7,7.2-3.8.7-.6,1.5-1.4,2.1-2.7l.9-1.8-1.6-1.5c-.1-.1-.2-.1-.3-.2,4.5-.5,7.7-2.9,9.5-7.3l.9-2.2-2.1-1c-1.2-.6-2.4-1-3.7-1.4,0,0,.1,0,.1-.1,3.2-1.8,3.6-4,4-6,.1-.7.3-1.5.6-2.3l.8-2.5-2.6-.6c-1.2-.3-2.7-.4-4.1-.4-4.5,0-8.2,1.4-10.5,3.7,0-2.3-.3-4-.3-4.1l-.7-3.8-3.2,2.2c-1,.7-1.8,1.2-2.6,1.6-1.4.8-2.8,1.6-4.4,3.1-1.2,1.1-2.5,2.6-3.5,4.4l-1.1-3.2-2.8,4.3c-1,1.5-2.4,2.8-3.9,4.2-1.4,1.3-2.9,2.7-4.2,4.4-.8,1.1-1.4,2.5-1.8,4l-1.6-1.7-1.8,2.2c-.9,1.2-5.7,7.2-6.7,10.1-.1.3-.2.7-.3,1.1l-1.1-1.4-1.7,3.8c-2,4.5-3,9.7-2.4,13.3l-1.9-1-1,2.5c-1.2,3-2.4,10.7-.2,16.1l-1.9-.9.1,3.9c0,1.5.1,4,.2,5.3.2,4.1.7,7.5,2.2,10.3l-2-.7-.4,3c-.4,3,.7,7.5,2.1,10.3.9,1.9,2.5,3.5,4.1,4.8l-3.6-.2,1.2,3.5c.4,1.2,1.2,3.4,2.1,4.9,1.7,2.7,3.4,4.5,5.2,5.6l-1.8.2,1.2,3.1c.8,2,5,6.8,5.6,7.4,1.3,1.4,2.8,2.4,4.2,3.2l-4,.3,3.5,3.7c.6.7,1.2,1.2,1.6,1.7.6.6,1.1,1.1,1.6,1.7.2.3.5.5.7.8,1.4,1.6,2.9,3.3,4.9,4.4l-4,.7,5.8,3.4c2.7,1.6,4,2.7,5.1,3.6.6.5,1.1,1,1.8,1.4,1.6,1.2,3,1.8,4.1,2.2l-1.7.5,4,3c.1.1,7.6,5.6,12.6,6.1.7.1,1.5.1,2.2.1,1.4,0,2.8-.2,4.1-.4-.4,1.2.1,2.4,1.2,3.1,1.2.7,5,2.9,10.6,2.9,2.8,0,5.7-.5,8.6-1.6.6-.2,1.3-.5,2.1-.8,1.3-.5,2.9-1.1,4.8-1.8,2.2-.8,7.7-1.9,13.4-2.2-3.8,3.3-8.3,7.8-11,12.7-.6,1-.4,2.3.5,3.2.4.4,2.5,2.3,4.7,2.3,1.3,0,2.4-.6,3.1-1.6,3.3-4.8,11.9-12.8,14.9-14.4,3,1.6,11.6,9.6,14.9,14.4.7,1,1.8,1.6,3.1,1.6,2.3,0,4.4-1.9,4.7-2.3.8-.8,1-2.1.5-3.2-2.6-4.9-7.1-9.4-11-12.7,5.7.3,11.2,1.4,13.4,2.2,2,.7,3.5,1.3,4.8,1.8.8.3,1.5.6,2.1.8,2.9,1.1,5.8,1.6,8.6,1.6,5.6,0,9.3-2.2,10.6-2.9,1.1-.6,1.6-1.9,1.2-3.1,1.3.2,2.6.4,4.1.4.7,0,1.5,0,2.2-.1,5-.5,12.5-6,12.6-6.1l4-3-1.7-.5c1.2-.4,2.5-1,4.1-2.2.7-.5,1.2-1,1.8-1.4,1.1-1,2.4-2,5.1-3.6l5.8-3.4-4-.7c2-1.1,3.5-2.7,4.9-4.4.2-.3.5-.5.7-.8.5-.6,1-1.1,1.6-1.7.5-.5,1-1,1.6-1.7l3.5-3.7-4-.3c1.5-.8,2.9-1.8,4.2-3.2.6-.6,4.9-5.4,5.6-7.4l1.2-3.1-1.8-.2c1.8-1.2,3.6-2.9,5.2-5.6.9-1.5,1.7-3.7,2.1-4.9l1.2-3.5-3.6.2c2-1.3,3.6-2.9,4.4-4.8Z"/>
  </g>
  <g>
    <path class="cls-1" d="M166.9,93.1c-13.9,4.8-32.2,7.4-51.6,7.4s-37.8-2.6-51.6-7.4c-9.8-3.4-16.7-7.6-20.2-12.4v23.1c0,13.6,32.3,24.7,71.8,24.7s71.8-11.1,71.8-24.7v-23.1c-3.5,4.8-10.4,9.1-20.2,12.4Z"/>
    <path class="cls-3" d="M115.3,97.8c39.6,0,71.8-11.1,71.8-24.7s-32.3-24.7-71.8-24.7-71.8,11.1-71.8,24.7,32.2,24.7,71.8,24.7Z"/>
  </g>
  <g>
    <g>
      <path class="cls-2" d="M55.8,110.9c-1.5-.8-2.9-1.7-4.4-2.5-1.6-.9-2.4-2.3-2.4-4.3v-8.9c0-2,.8-2.6,2.4-1.8,1.5.7,2.9,1.5,4.4,2.2,1.6.8,2.4,2.3,2.4,4.3v9.2c0,2.2-.8,2.7-2.4,1.8ZM51.5,96.8v8.4c0,.2,0,.3.1.4s.1.2.3.2c1.2.7,2.4,1.3,3.6,2,.1.1.2.1.3.1s.1-.1.1-.3v-8.6c0-.2,0-.3-.1-.4s-.1-.2-.3-.2c-1.2-.6-2.4-1.2-3.6-1.9-.1-.1-.2-.1-.3,0-.1,0-.1.1-.1.3Z"/>
      <path class="cls-2" d="M67.7,104.9v-1.6c0-.2,0-.3-.1-.4s-.2-.1-.3-.2c-1.1-.3-2.1-.7-3.2-1h-.3c-.1.1-.1.2-.1.3v1.7c0,.2,0,.4.1.5s.3.3.5.4c1.2.7,2.3,1.3,3.5,2,.9.5,1.6,1.1,2,1.7s.7,1.4.7,2.4v2.6c0,2.1-.9,2.9-2.6,2.2-1.4-.5-2.9-1-4.3-1.5-1.7-.6-2.6-1.9-2.6-4v-1.9c.9.3,1.7.6,2.6.9v1.7c0,.2,0,.3.1.4s.2.2.3.2c1.2.4,2.3.8,3.5,1.2h.3c.1,0,.1-.2.1-.3v-1.9c0-.2,0-.4-.1-.6-.1-.1-.3-.3-.5-.4-1.2-.7-2.3-1.4-3.5-2-.9-.5-1.6-1.1-2-1.7s-.7-1.4-.7-2.3v-2.4c0-2.1.9-2.8,2.6-2.3,1.3.4,2.7.8,4,1.2,1.7.5,2.6,1.9,2.6,4v1.8c-.8-.1-1.7-.4-2.6-.7Z"/>
      <path class="cls-2" d="M81.7,119.5c-1.1-2.6-2.1-5.2-3.2-7.7-.7.8-1.3,1.7-2,2.5v4c-.9-.2-1.8-.4-2.7-.6v-16c.9.2,1.8.4,2.7.5v7.6c1.6-2.2,3.2-4.4,4.8-6.6,1.1.2,2.2.4,3.3.7-1.4,1.9-2.8,3.7-4.2,5.5,1.5,3.6,3,7.2,4.4,10.9-1-.3-2-.6-3.1-.8Z"/>
      <path class="cls-2" d="M94.7,118c-1.6-.2-3.2-.4-4.9-.7-.3,1.2-.6,2.3-.9,3.5-1-.1-2-.3-3-.4,1.4-5.3,2.8-10.6,4.2-16,1.4.2,2.7.3,4.1.5,1.4,5.7,2.8,11.5,4.2,17.2-.9-.1-1.9-.3-2.8-.4-.3-1.2-.6-2.5-.9-3.7ZM93.9,114.8c-.6-2.4-1.2-4.8-1.8-7.2-.5,2.3-1.1,4.5-1.6,6.8,1.2.1,2.3.2,3.4.4Z"/>
      <path class="cls-2" d="M111.4,122.9c-1-.1-2-.1-3.1-.2-.8-2-1.5-4-2.3-6.1-.8,0-1.5-.1-2.3-.1v5.9c-.9-.1-1.9-.1-2.8-.2v-16.7c2.4.1,4.8.2,7.3.3,1.8.1,2.8,1.3,2.8,3.5v4.1c0,1.9-.6,2.9-1.9,3.2.8,2.1,1.5,4.2,2.3,6.3ZM103.8,113.5c1.3.1,2.6.1,4,.2.1,0,.2,0,.3-.1.1-.1.1-.2.1-.4v-3.7c0-.2,0-.3-.1-.4s-.2-.1-.3-.1c-1.3-.1-2.6-.1-4-.2v4.7Z"/>
      <path class="cls-2" d="M121.1,111.2v-1.7c0-.2,0-.3-.1-.4s-.2-.1-.3-.1c-1.1,0-2.3,0-3.4.1-.1,0-.2,0-.3.1-.1.1-.1.2-.1.4v1.8c0,.3,0,.4.1.5s.3.2.5.3c1.2.3,2.4.6,3.7.9.9.2,1.7.6,2.1,1.1.5.5.7,1.3.7,2.3v2.8c0,2.2-.9,3.4-2.8,3.4-1.5,0-3,.1-4.5.1-1.8,0-2.8-1.1-2.8-3.3v-2.1c.9,0,1.8,0,2.8-.1v1.9c0,.2,0,.3.1.4s.2.1.3.1c1.2,0,2.4-.1,3.7-.1.1,0,.2,0,.3-.1.1-.1.1-.2.1-.4v-2c0-.3,0-.4-.1-.5s-.3-.2-.5-.3c-1.2-.3-2.4-.6-3.7-.9-.9-.2-1.7-.6-2.1-1.1-.5-.5-.7-1.3-.7-2.3v-2.6c0-2.2.9-3.4,2.8-3.4,1.4,0,2.8-.1,4.3-.1,1.8,0,2.8,1.1,2.8,3.3v1.9c-1.1.1-2,.1-2.9.1Z"/>
      <path class="cls-2" d="M127.4,122.5v-16.8c.9-.1,1.9-.2,2.8-.3v6.6c1.6-.2,3.2-.3,4.9-.5v-6.6c.9-.1,1.9-.2,2.8-.2v16.6c-.9.1-1.9.2-2.8.3v-6.9c-1.6.2-3.2.3-4.9.5v7c-.9.1-1.8.2-2.8.3Z"/>
      <path class="cls-2" d="M149.1,115.8c-1.6.3-3.2.6-4.8.9-.3,1.2-.6,2.5-.9,3.7-1,.2-2,.4-3,.6,1.4-5.8,2.8-11.5,4.1-17.2,1.4-.2,2.7-.5,4.1-.7,1.4,5.2,2.8,10.4,4.2,15.5-.9.2-1.9.4-2.8.5-.3-1-.6-2.1-.9-3.3ZM148.3,112.9c-.6-2.2-1.2-4.4-1.7-6.6-.5,2.4-1.1,4.8-1.6,7.2,1.1-.2,2.2-.4,3.3-.6Z"/>
      <path class="cls-2" d="M168.3,98.5v15.5c-.9.3-1.8.6-2.7.8v-10c-1,2.9-1.9,5.8-2.9,8.8-.7.2-1.3.4-2,.6-1-2.4-1.9-4.8-2.9-7.2v10.2c-.9.3-1.7.6-2.6.9v-16.1c1-.3,2-.6,3-.9,1.1,2.8,2.2,5.6,3.3,8.4,1.2-3.5,2.5-6.9,3.7-10.3,1.1-.2,2.1-.5,3.1-.7Z"/>
      <path class="cls-2" d="M179,93.6c.8-.4,1.6-.8,2.4-1.1v14.8c-.8.4-1.6.9-2.4,1.3-1.6-2.5-3.1-5-4.7-7.5v10.1c-.8.5-1.6.9-2.4,1.4v-15.3c.9-.5,1.7-.9,2.6-1.3,1.5,2.5,3,4.9,4.5,7.4,0-3.4,0-6.6,0-9.8Z"/>
    </g>
    <g>
      <rect class="cls-2" x="82.2" y="57.7" width="15.7" height="30.4"/>
      <polygon class="cls-2" points="151 57.7 132.9 57.7 122.2 69.8 122.2 57.7 106.5 57.7 106.5 88.1 122.2 88.1 122.2 76 132.9 88.1 151 88.1 136.3 72.9 151 57.7"/>
    </g>
  </g>
  <g>
    <path class="cls-1" d="M164,153c4.9-3.5,8.8-13.3,8.5-16.5-1.1.6-2.3,1.2-3.4,1.8-2.7,1.5-6.7,3.3-8.4,5.7-1.8,2.6-2.6,5.8-3.9,8.6-.2.4-1.3,2.8-1.7,4.4,2.2-.5,5.4-1.5,8.9-4Z"/>
    <path class="cls-1" d="M195.2,26.2c.1-3,.2-5.9.3-9.3s-1.7-6-4-8.2-4.1-2.6-6.7-4.5c-.3,1.7-.9,7.9,2.4,12.6,3.2,4.7,6.5,8.4,8,9.4Z"/>
    <path class="cls-1" d="M171.3,13.9c3.2,1.8,5,1.7,7.9,2,2.6.3,4.2,1,5.3,1.5-.7-2-1.1-3.8-4-7.4-2.9-3.7-9.6-3.8-12.7-3.1,1.2,3.7.5,5.3,3.5,7Z"/>
    <path class="cls-1" d="M208,46.3c.5,4.4,1.9,7.4,3,9.3.9-2.8,1.8-5.3,3.1-8.1s2.5-4.2,3.9-7c.8-1.7.5-3.3.2-4.2-.7-2.2-4.6-7.3-6.3-9.4-2.2,2.3-4.4,15-3.9,19.4Z"/>
    <path class="cls-1" d="M205.7,43.3c.1-1.4.2-5.9,1.2-9.5s1.2-5,1.3-6.4c.1-1.6-.6-3.7-1.5-4.9-2.3-3.1-6-5.4-8.2-8.7-.4,1.3-.7,3.5-.8,4.9-.5,6,.3,11.6,2.6,16,.4,1,4.9,7.9,5.4,8.6Z"/>
    <path class="cls-1" d="M150.7,158.4c1.1-.5,5.8-11.4,6-12.9-3.3.3-8.4,2.5-11.5,4.7-3.1,2.3-6.5,6.5-6.3,7.1,1.2.5,11,1.3,11.8,1.1Z"/>
    <path class="cls-1" d="M213,57.7c0,3,1.8,7.1,2.5,8,.8-1.8,1.4-3.1,3.2-5.5s4.4-5.3,4.8-8.2c.5-3.2-.5-8-2.2-11.9-1.3,1.7-2.2,3.2-3,4.4-2.3,3.9-5.3,10.3-5.3,13.2Z"/>
    <path class="cls-1" d="M179.7,127.3c-4.3,4.8-4.6,10.7-5.9,14.5-.9,2.6-2.1,4.9-3.4,7.6,1.6-.7,3.2-1.4,4.9-2.1,2.3-.9,6.3-3.6,7.8-6.9.8-1.7,1.4-3.9,1.5-6,.3-3.5-.3-7.5-1.7-10.3-1.1.5-2.3,2.2-3.2,3.2Z"/>
    <path class="cls-1" d="M183.5,25.3c4.2.2,5.5.7,7,1-.8-2.4-4.6-5.6-7.3-6.8-2.5-1.1-7.5-1.8-10.3-1.4-2.1.3-3.9,1-5.3,1.7,3.6,8.3,11.4,5.2,15.9,5.5Z"/>
    <path class="cls-1" d="M202.6,59.4c3.3,1.1,7.3,3.8,8.9,4.9-.6-3-2.6-8.3-5-10.4-3.1-2.7-9.2-4.6-13.9-4.6.3,2.4,2.2,7.4,10,10.1Z"/>
    <path class="cls-1" d="M196.9,47.1c3.7,1.1,6.2,1.8,8.3,2.2-1.7-4.5-5.6-8.9-7.9-9.9-2.6-1.2-9.9-.5-11.7.2.6,4.3,7.5,6.3,11.3,7.5Z"/>
    <path class="cls-1" d="M197.9,37.2c-.5-1.7-3.1-6.2-5.8-7.9-1.2-.8-4.8-1.9-8.5-1.6-3.6.2-6.3,1.5-7.5,2.5.5,1,1,1.5,1.6,2,4.5,4.1,9.7,3.8,12.8,3.9,3.2.2,6.1.7,7.4,1.1Z"/>
    <path class="cls-1" d="M217.3,82.7c-2,2.9-3,6.6-3.9,10.1-.4,1.8-1.1,4.2-1.2,6.2,1.9-1.4,4.5-4.1,6.9-5.8,2.6-1.8,5.4-3,6.9-5.4s2-5.5,2.2-9.8c.1-1.3.2-3.7.2-5.1-1.6.8-3.4,2-4.7,3.1-2.3,2.1-4.6,4.2-6.4,6.7Z"/>
    <path class="cls-1" d="M201.1,120.5c1.1-1.7,1.9-3.3,2-5.1.3-4-3.8-11.9-6.4-14.6-5.7,7.2.7,21.6,1.4,23.4,1.2-1.1,1.9-2,3-3.7Z"/>
    <path class="cls-1" d="M212.1,86.7c.1-3.8-3.5-7.2-5.7-8.8-1.3-1-3.5-2.3-5.1-2.9-1.3,2.7.2,8.9,2.8,12.2,2.6,3.4,4.6,7.3,5.8,8.8.4-2.6,2.2-5.5,2.2-9.3Z"/>
    <path class="cls-1" d="M211.7,68.9c-2.2-3.6-4.7-4.9-7-6-2.1-.9-4.3-1.6-6.9-1.8.6,3.5,2.3,7.6,4.7,10.3,1.7,1.9,3.5,2.6,5.9,4.5,2.2,1.8,3.7,4.3,4.9,6.3.4-2,.5-9.7-1.6-13.3Z"/>
    <path class="cls-1" d="M208.4,101.3c.4-3.9-4.4-10.4-7.8-12.8-1.1,2.3-2.1,6.4-.7,11,1.5,4.6,3.8,8.5,4.9,10.9.8-.9,3.1-5.2,3.6-9.1Z"/>
    <path class="cls-1" d="M191.8,134.4c2-2.2,7.6-8.4-.3-20.7-2.5,1.3-5.2,7.7-5.1,10.4,0,2.3.8,4.8.9,7.1.1,2.1-.7,5.7-1.1,7.4,1.1-.6,3.6-2,5.6-4.2Z"/>
    <path class="cls-1" d="M215.9,72.5c-.2,2.6,0,5.1.7,7.6,1.8-2,3.8-5,8-8.2,4.3-3.3,3.4-13.4,1.9-17.1-1.3.7-3,2.5-3.9,3.6-3.4,4.3-6.2,8.3-6.7,14.1Z"/>
    <path class="cls-1" d="M164.1,156.6c-2.3.8-7.2,2.5-9.9,3,1.6.5,5.3,1.7,6.3,2.1,4.2,1.6,8.3,3.6,13.8,3,3.4-.4,9.2-4,11.4-5.6-4.7-1.4-9.1-2.6-13.4-3.5-2.9-.6-5.9.2-8.2,1Z"/>
    <path class="cls-1" d="M163.3,165.7c-6.1-3-13.4-5.3-27.6-5.3h-41c-14.1,0-21.5,2.2-27.6,5.3-.5.3-2.3,1.3-2.5,1.9q0,.1.1.2c2.1,1.2,8.1,4.4,17,1.1,1.5-.6,3.7-1.4,7-2.6,3.7-1.4,14-3,21.4-2.2-3.3,2.1-12.1,9-16,16.2v.2c.9.9,3.1,2.4,4.1,1,3.5-5,13.7-14.8,17-15.6,3.3.8,13.5,10.6,17,15.6.9,1.4,3.2-.2,4.1-1q.1-.1,0-.2c-3.9-7.3-12.7-14.1-16-16.2,7.5-.8,17.7.8,21.4,2.2,3.2,1.2,5.5,2.1,7,2.6,8.9,3.3,14.9.1,17-1.1.1,0,.1-.1.1-.2-.3-.6-2-1.6-2.5-1.9Z"/>
    <path class="cls-1" d="M228.5,91.2c-1.6.6-3.5,1.7-4.8,2.5-5.7,3.5-10.2,6.6-13.8,13.1-1,1.7-1.5,2.9-1.9,4.7,1.5-.9,3-1.8,5.2-2.7,2.2-.9,4.7-1.8,6.5-2.6,2.1-1,5.7-3.4,7-6.1,1.2-2.7,2.1-6.6,1.8-8.9Z"/>
    <path class="cls-1" d="M208,115c-1.3,1.1-2.1,2-2.9,3.4-.4.6-1.6,3.5-1.6,4.3,2-.8,2.6-1.3,6.8-2.3,4.5-1.2,8.9-1.1,12.8-7.5.6-1,1.3-2.7,1.9-4.4-3.8.2-7,1.3-10.2,2.6-3.4,1.3-4.8,2.1-6.8,3.9Z"/>
    <path class="cls-1" d="M200.3,126.8c-1.9,1.7-3.7,5.7-3.9,6.6,1.3.3,4.1.4,5,.3,4.5-.5,8.5-1.8,11.7-5,1-1.1,4.6-5.3,5.1-6.6-7.3-.7-15.9,3-17.9,4.7Z"/>
    <path class="cls-1" d="M180.7,148.5c-2.7.8-7,2.9-9.4,4.6,4,.5,6.9,1.1,10.8,1.8,1.7.3,3.7,1.1,5.5.7,1.3-.3,2.7-.8,4.5-2.1,1.9-1.4,2.9-2.7,7.1-5.2-6.7-1.2-13.9-1.1-18.5.2Z"/>
    <path class="cls-1" d="M192.4,138c-2.4,1.4-5.6,5.1-6.6,7,2.4.1,5.9.1,8.3.2,1.7.1,3.6.2,6-.6,2.4-.9,4.1-3,6-5.1,1-1.1,1.8-1.9,3.3-3.4-6.1-.6-12.3-.7-17,1.9Z"/>
    <path class="cls-1" d="M58.1,136.5c-.3,3.2,3.6,13,8.5,16.5,3.5,2.5,6.7,3.5,8.9,4-.4-1.6-1.6-4-1.7-4.4-1.3-2.8-2-6.1-3.9-8.6-1.7-2.4-5.7-4.2-8.4-5.7-1.1-.6-2.3-1.2-3.4-1.8Z"/>
    <path class="cls-1" d="M43.4,16.9c3.3-4.7,2.7-10.9,2.4-12.6-2.7,1.9-4.4,2.3-6.7,4.5s-4.1,4.8-4,8.2c.1,3.4.2,6.3.3,9.3,1.4-1.1,4.8-4.8,8-9.4Z"/>
    <path class="cls-1" d="M51.3,16c2.9-.3,4.7-.2,7.9-2,3-1.7,2.3-3.3,3.4-6.9-3.2-.7-9.8-.6-12.7,3.1-2.8,3.6-3.2,5.4-4,7.4,1.2-.6,2.8-1.3,5.4-1.6Z"/>
    <path class="cls-1" d="M16.5,47.6c1.3,2.8,2.2,5.2,3.1,8.1,1.1-1.9,2.5-4.9,3-9.3s-1.8-17.2-3.9-19.3c-1.7,2.1-5.5,7.2-6.3,9.4-.3.9-.6,2.5.2,4.2,1.4,2.7,2.6,4.1,3.9,6.9Z"/>
    <path class="cls-1" d="M24.9,43.3c.5-.7,5-7.6,5.5-8.6,2.2-4.5,3.1-10,2.6-16-.1-1.4-.4-3.6-.8-4.9-2.2,3.2-5.8,5.5-8.2,8.7-.9,1.2-1.6,3.3-1.5,4.9.1,1.4.3,2.7,1.3,6.4.9,3.6.9,8.1,1.1,9.5Z"/>
    <path class="cls-1" d="M79.9,158.4c.8.3,10.6-.5,11.8-1,.2-.7-3.2-4.9-6.3-7.1-3.1-2.3-8.2-4.5-11.5-4.7.2,1.4,4.9,12.3,6,12.8Z"/>
    <path class="cls-1" d="M11.9,60.2c1.7,2.4,2.4,3.7,3.2,5.5.7-.8,2.5-5,2.5-8s-2.9-9.4-5.3-13.2c-.7-1.2-1.6-2.7-3-4.4-1.7,3.9-2.7,8.7-2.2,11.9.4,2.9,3.1,5.8,4.8,8.2Z"/>
    <path class="cls-1" d="M47.4,140.4c1.6,3.3,5.6,6,7.8,6.9,1.7.7,3.3,1.4,4.9,2.1-1.3-2.7-2.5-5-3.4-7.6-1.3-3.8-1.6-9.7-5.9-14.5-.9-.9-2-2.7-3.3-3.1-1.3,2.8-1.9,6.7-1.7,10.3.3,2,.8,4.2,1.6,5.9Z"/>
    <path class="cls-1" d="M47.3,19.5c-2.6,1.2-6.5,4.4-7.3,6.8,1.5-.3,2.8-.7,7-1,4.5-.3,12.2,2.9,15.8-5.5-1.4-.7-3.2-1.3-5.3-1.7-2.6-.4-7.7.3-10.2,1.4Z"/>
    <path class="cls-1" d="M37.9,49.3c-4.7,0-10.8,1.9-13.9,4.6-2.4,2.1-4.4,7.4-5,10.4,1.6-1.1,5.6-3.7,8.9-4.9,7.8-2.7,9.8-7.7,10-10.1Z"/>
    <path class="cls-1" d="M33.3,39.3c-2.3,1.1-6.2,5.5-7.9,9.9,2.1-.4,4.5-1.1,8.3-2.2,3.8-1.1,10.7-3.2,11.3-7.5-1.8-.6-9.1-1.4-11.7-.2Z"/>
    <path class="cls-1" d="M54.4,30.2c-1.2-1-3.9-2.3-7.5-2.5s-7.3.8-8.5,1.6c-2.6,1.7-5.3,6.2-5.8,7.9,1.3-.5,4.2-1,7.3-1.1,3.1-.2,8.4.2,12.8-3.9.7-.6,1.2-1.1,1.7-2Z"/>
    <path class="cls-1" d="M4.5,87.9c1.5,2.4,4.3,3.6,6.9,5.4,2.5,1.7,5.1,4.4,6.9,5.8-.1-2-.8-4.4-1.2-6.2-.9-3.6-1.9-7.2-3.9-10.1-1.7-2.5-4.1-4.6-6.5-6.6-1.2-1-3.1-2.3-4.7-3.1,0,1.4.1,3.8.2,5.1.3,4.2.8,7.3,2.3,9.7Z"/>
    <path class="cls-1" d="M29.5,120.5c1.1,1.7,1.7,2.6,3,3.8.7-1.8,7.1-16.2,1.4-23.4-2.6,2.7-6.7,10.5-6.4,14.6.1,1.7.9,3.2,2,5Z"/>
    <path class="cls-1" d="M26.4,87.3c2.6-3.4,4.1-9.5,2.8-12.2-1.6.6-3.8,1.9-5.1,2.9-2.2,1.6-5.8,5-5.7,8.8.1,3.8,1.8,6.7,2.2,9.4,1.2-1.6,3.2-5.6,5.8-8.9Z"/>
    <path class="cls-1" d="M17.4,82.3c1.2-2,2.7-4.4,4.9-6.3,2.4-2,4.2-2.6,5.9-4.5,2.3-2.7,4.1-6.7,4.7-10.3-2.7.1-4.9.8-7,1.8-2.3,1-4.9,2.4-7,6-2.2,3.5-2,11.2-1.5,13.3Z"/>
    <path class="cls-1" d="M25.7,110.4c1.1-2.4,3.4-6.3,4.9-10.9,1.5-4.6.5-8.7-.7-11-3.4,2.4-8.2,8.9-7.8,12.8.5,3.9,2.9,8.2,3.6,9.1Z"/>
    <path class="cls-1" d="M44.3,138.6c-.4-1.7-1.1-5.4-1.1-7.4.1-2.3.9-4.8.9-7.1.1-2.6-2.6-9.1-5.1-10.4-7.9,12.3-2.3,18.5-.3,20.7,2.1,2.2,4.6,3.6,5.6,4.2Z"/>
    <path class="cls-1" d="M5.9,71.9c4.2,3.2,6.2,6.2,8,8.2.8-2.5.9-5,.7-7.6-.4-5.8-3.2-9.8-6.7-14.1-.9-1.1-2.6-2.9-3.9-3.6-1.5,3.7-2.4,13.8,1.9,17.1Z"/>
    <path class="cls-1" d="M76.4,159.6c-2.7-.5-7.6-2.2-9.9-3-2.4-.9-5.4-1.6-8.2-1-4.3.9-8.6,2.1-13.4,3.5,2.2,1.6,8,5.2,11.4,5.6,5.4.6,9.6-1.4,13.8-3,1-.4,4.7-1.6,6.3-2.1Z"/>
    <path class="cls-1" d="M10.9,106.2c1.8.8,4.3,1.7,6.5,2.6,2.2.9,3.7,1.9,5.2,2.7-.4-1.8-.9-3.1-1.9-4.7-3.6-6.5-8.1-9.7-13.8-13.1-1.4-.8-3.2-2-4.8-2.5-.3,2.3.6,6.2,1.9,8.9,1.2,2.7,4.8,5.1,6.9,6.1Z"/>
    <path class="cls-1" d="M27.1,122.7c0-.8-1.3-3.7-1.6-4.3-.8-1.4-1.7-2.2-2.9-3.4-2-1.8-3.4-2.6-6.6-3.9s-6.4-2.4-10.2-2.6c.6,1.7,1.2,3.4,1.9,4.4,3.9,6.4,8.3,6.3,12.8,7.5,4,1,4.6,1.5,6.6,2.3Z"/>
    <path class="cls-1" d="M34.1,133.4c-.2-.9-2-4.9-3.9-6.6-2-1.7-10.5-5.4-17.9-4.7.5,1.3,4,5.5,5.1,6.6,3.2,3.3,7.2,4.5,11.7,5,.9.1,3.8.1,5-.3Z"/>
    <path class="cls-1" d="M59.3,153.1c-2.4-1.7-6.7-3.8-9.4-4.6-4.7-1.4-11.9-1.4-18.5-.3,4.2,2.4,5.2,3.8,7.1,5.2,1.8,1.3,3.1,1.8,4.5,2.1,1.8.4,3.8-.4,5.5-.7,3.9-.6,6.8-1.2,10.8-1.7Z"/>
    <path class="cls-1" d="M36.5,145.2c2.4-.1,5.8-.1,8.3-.2-1-1.9-4.2-5.6-6.6-7-4.7-2.6-10.9-2.5-16.9-2,1.4,1.5,2.3,2.3,3.3,3.4,1.9,2.1,3.6,4.3,6,5.1,2.3.9,4.2.8,5.9.7Z"/>
  </g>
</svg>