<?xml version="1.0" encoding="UTF-8"?>
<svg id="Layer_1" data-name="Layer 1" xmlns="http://www.w3.org/2000/svg" xmlns:xlink="http://www.w3.org/1999/xlink" viewBox="0 0 200 200">
  <defs>
    <style>
      .cls-1, .cls-2, .cls-3, .cls-4, .cls-5 {
        stroke-width: 0px;
      }

      .cls-2 {
        fill: none;
      }

      .cls-3 {
        fill: #fff;
      }

      .cls-4 {
        fill: url(#radial-gradient-2);
      }

      .cls-5 {
        fill: url(#radial-gradient);
      }
    </style>
    <radialGradient id="radial-gradient" cx="99.7" cy="-776" fx="99.7" fy="-776" r="104.67" gradientTransform="translate(0 -676.2) scale(1 -1)" gradientUnits="userSpaceOnUse">
      <stop offset=".4" stop-color="#e4032b"/>
      <stop offset=".54" stop-color="#d70728"/>
      <stop offset=".81" stop-color="#b60c21"/>
      <stop offset="1" stop-color="#9d0e1a"/>
    </radialGradient>
    <radialGradient id="radial-gradient-2" cx="99.7" cy="980" fx="99.7" fy="980" r="105.13" gradientTransform="translate(0 -878)" gradientUnits="userSpaceOnUse">
      <stop offset=".4" stop-color="#e4032b"/>
      <stop offset=".54" stop-color="#d70728"/>
      <stop offset=".81" stop-color="#b60c21"/>
      <stop offset="1" stop-color="#9d0e1a"/>
    </radialGradient>
  </defs>
  <g id="Lager_2" data-name="Lager 2">
    <g id="Lager_1-2" data-name="Lager 1-2">
      <g id="Lager_1-3" data-name="Lager 1-3">
        <path class="cls-1" d="M142.1,170.6h-39.6V1h74.5v43h-23.6l23.6,23.7v68l-34.9,34.9Z"/>
        <path class="cls-1" d="M97.5,170.6h-39.6l-34.9-34.9v-68l23.6-23.7h-23.6V1h74.4l.1,169.6h0Z"/>
      </g>
      <g id="toning">
        <polygon class="cls-5" points="28.7 6.2 28.8 38 60.7 38 28.7 69.5 28.7 132.9 60.4 164.6 92.1 164.6 92.1 6.2 28.7 6.2"/>
        <polygon class="cls-4" points="171.3 6.2 171.2 38 139.3 38 171.3 69.5 171.3 132.9 139.6 164.6 107.9 164.6 107.9 6.2 171.3 6.2"/>
      </g>
      <g id="Vit_ram" data-name="Vit ram">
        <path class="cls-3" d="M140.9,167.5h-35.2V4.1h68.3v36.9h-28l28,28v65.4l-33.1,33.1ZM110.6,162.5h28.2l30.2-30.2v-61.3l-35.1-35h35.1V9.1h-58.4v153.4Z"/>
        <path class="cls-3" d="M94.4,167.5h-35.2l-33.2-33.1v-65.4l28-28h-28V4.1h68.3l.1,163.4h0ZM61.2,162.5h28.2V9.1H31v26.9h35.1l-35.1,35v61.3l30.2,30.2Z"/>
        <rect class="cls-3" x="31.9" y="164.5" width="137.8" height="29.1"/>
        <path class="cls-1" d="M45,171.3c-6.3,0-10.3,4.8-10.3,10.8s3.6,10.6,10,10.6,10.3-4.3,10.3-10.9c0-5.6-3.3-10.5-10-10.5ZM41.6,170.5c1.3,0,2.3-1.1,2.3-2.4s-1-2.3-2.2-2.3h-.1c-1.3,0-2.4,1-2.4,2.3v.1c0,1.3,1.1,2.3,2.4,2.3h0ZM44.9,175.7c2.7,0,4.3,2.7,4.3,6.3,0,3.8-1.6,6.3-4.3,6.3s-4.4-2.4-4.4-6.3,1.7-6.3,4.4-6.3h0ZM48.2,170.5c1.3,0,2.3-1.1,2.3-2.4s-1-2.3-2.3-2.3-2.3,1-2.3,2.3h0c0,1.3,1,2.4,2.3,2.4h0ZM60.8,192.4h5.5v-7.8h.9c1.7,0,2.5.5,3,3,.3,1.6.8,3.2,1.5,4.8h5.7c-.4-.8-1.1-3.8-1.7-5.9-.5-1.8-1.3-3.1-2.6-3.7v-.1c2.1-.8,3.5-2.8,3.6-5,.1-1.8-.7-3.5-2.1-4.5-1.6-1.2-3.9-1.6-7-1.6-2.3,0-4.5.1-6.7.4l-.1,20.4h0ZM66.3,175.7c.6-.1,1.3-.1,1.9-.1,1.8,0,2.9.9,2.9,2.5s-1.2,2.6-3.3,2.6h-1.5v-5ZM95.7,179.5h-7.4v-3.4h7.9v-4.5h-13.5v20.8h13.9v-4.6h-8.4v-3.8h7.4l.1-4.5h0ZM102.7,192.3c1.8.3,3.7.4,5.5.4,4.4,0,7-.7,8.6-1.9,1.4-1.1,2.2-2.8,2.2-4.5,0-2.4-1.6-4.5-4-5.1h0c2.4-.9,3.4-2.6,3.4-4.4,0-1.9-1.1-3.5-2.8-4.3-1.6-.8-3.4-1-6.3-1-2.2,0-4.4.1-6.6.4v20.4h0ZM108.2,175.5c.6-.1,1.2-.1,1.8-.1,1.9,0,2.8.8,2.8,2s-1.1,2.1-3.5,2.1h-1.1s0-4,0-4ZM108.2,183.5h1.3c2.1,0,3.7.7,3.7,2.4s-1.6,2.6-3.4,2.6h-1.6v-5h0ZM124.9,192.4h5.5v-7.8h.9c1.7,0,2.5.5,3,3,.3,1.6.8,3.2,1.4,4.8h5.7c-.4-.8-1.1-3.8-1.7-5.9-.5-1.8-1.3-3.1-2.6-3.7v-.1c2.1-.8,3.5-2.8,3.6-5,.1-1.8-.7-3.5-2.1-4.5-1.6-1.2-3.9-1.6-7-1.6-2.3,0-4.5.1-6.7.4v20.4h0ZM130.4,175.7c.6-.1,1.3-.1,1.9-.1,1.9,0,2.9.9,2.9,2.5s-1.2,2.6-3.3,2.6h-1.5v-5ZM155.9,171.3c-6.3,0-10.4,4.8-10.4,10.8s3.5,10.6,10,10.6,10.4-4.3,10.4-10.9c0-5.6-3.4-10.5-10-10.5h0ZM155.8,175.7c2.7,0,4.3,2.7,4.3,6.3,0,3.8-1.6,6.3-4.3,6.3s-4.4-2.4-4.4-6.3,1.7-6.3,4.4-6.3h0ZM177,199.1H23v-36.5h154v36.5Z"/>
      </g>
      <rect class="cls-2" width="200" height="200"/>
    </g>
  </g>
</svg>