<?xml version="1.0" encoding="UTF-8"?>
<svg id="bild" xmlns="http://www.w3.org/2000/svg" viewBox="0 0 410.9 411.9">
  <defs>
    <style>
      .cls-1, .cls-2, .cls-3, .cls-4 {
        stroke-width: 0px;
      }

      .cls-2 {
        fill: none;
      }

      .cls-3 {
        fill: #d20a11;
      }

      .cls-4 {
        fill: #fc0;
      }
    </style>
  </defs>
  <circle class="cls-1" cx="204.9" cy="205.8" r="200"/>
  <g>
    <path class="cls-4" d="M25.7,194c-.2,2.1-1.6,3.4-3.7,3.1-2.1-.2-3.1-1.8-2.9-3.9l1.4-12c.4-3.1,2-4.5,5.4-4.1l16.7,1.9c2.7.3,4.2,2.1,3.9,4.6s-2.1,3.9-4.8,3.6l-14.9-1.7-1.1,8.5Z"/>
    <path class="cls-4" d="M40.8,217.2c2.7-.1,4.5,1.4,4.6,3.9s-1.5,4.1-4.3,4.2l-11.7.4c-7.7.3-10.7-4.9-11-11.9s2.3-12.4,10.1-12.7l11.7-.4c2.7-.1,4.5,1.4,4.6,3.9s-1.5,4.1-4.3,4.2l-11.6.4c-2.7.1-4.4,1.4-4.2,4.3.1,2.9,1.9,4.1,4.6,4l11.5-.3Z"/>
    <path class="cls-4" d="M30.1,248.5c.4,2.1-.5,3.7-2.6,4.1-2.1.4-3.5-.8-3.9-2.8l-2.3-11.9c-.6-3.1.6-4.8,3.9-5.5l16.5-3.2c2.7-.5,4.6.7,5.1,3.2s-.9,4.3-3.6,4.8l-14.8,2.8,1.7,8.5Z"/>
    <path class="cls-4" d="M45.3,251.5c3.2-1.1,5.1-.2,6.1,2.8l4.2,12.3c.8,2.3,0,3.8-1.7,4.3-1.7.6-3.2-.1-4-2.4l-3.1-9-3.4,1.2,2.5,7.2c.8,2.3,0,3.8-1.7,4.3-1.7.6-3.2-.1-4-2.4l-2.5-7.2-3.9,1.3,3.2,9.3c.8,2.3,0,3.8-1.7,4.3-1.7.6-3.2-.1-4-2.4l-4.4-12.7c-1-3-.1-4.9,3.1-6l15.3-4.9Z"/>
    <path class="cls-4" d="M40.6,286.8l-1.9.4c-1.5.3-2.7-.9-3.3-2-.8-1.6-.5-4,1.2-4.8,1-.5,3-.8,4.8-1l15.9-2.1c2.3-.3,3.8.1,4.7,2l1.2,2.3c.9,1.8.4,3.3-1.1,5l-10.9,11.8c-1.2,1.3-2.6,2.8-3.6,3.3-1.7.9-3.8-.2-4.6-1.8-.6-1.1-.8-2.8.3-3.9l1.4-1.4-4.1-7.8ZM55.4,284h0l-9.6,1.8,2.6,5,7-6.8ZM71.1,275.9c1.1,2.1.3,4.6-1.8,5.7-2.1,1.1-4.6.3-5.7-1.8-1.1-2.1-.3-4.6,1.8-5.7,2.1-1.1,4.6-.3,5.7,1.8ZM65.6,278.7c.5.9,1.6,1.3,2.5.8s1.3-1.6.8-2.5-1.6-1.3-2.5-.8c-.9.4-1.2,1.5-.8,2.5Z"/>
    <path class="cls-4" d="M82.1,316.3c2.1-1.8,4.4-1.7,6,.3,1.6,1.9,1.4,4.2-.7,6l-13.5,11.4c-2.1,1.8-4.4,1.7-6-.3-1.6-1.9-1.4-4.2.7-6l4.5-3.9-5.2-6.1-4.5,3.9c-2.1,1.8-4.4,1.7-6-.3-1.6-1.9-1.4-4.2.7-6l13.6-11.3c2.1-1.8,4.4-1.7,6,.3,1.6,1.9,1.4,4.2-.7,6l-3.7,3.1,5.2,6.1,3.6-3.2Z"/>
    <path class="cls-4" d="M102.1,329.3c5.2,4.4,7.3,11.9,1.5,18.8-6,7.1-13.5,6.2-18.7,1.7-5.2-4.4-7.5-11.7-1.5-18.8,5.7-6.8,13.5-6,18.7-1.7ZM98,334.2c-2.6-2.2-5.7-1.1-8.4,2.1-2.7,3.2-3.3,6.4-.6,8.6,2.6,2.2,5.7,1.1,8.4-2.1,2.6-3.2,3.2-6.4.6-8.6Z"/>
    <path class="cls-4" d="M124.3,345c5.2,3.1,7.3,8.5,5.4,11.6-1,1.7-3.1,2.2-5.1,1-1.3-.8-1.6-1.3-1.6-3.4s-.8-3-2.3-4c-2.2-1.3-5.2-.2-7.6,3.6-2.1,3.6-2.2,6.8.7,8.6,1.3.8,2.1.8,4.7-.3,1.2-.5,2.4-.5,3.4.1,1.8,1.1,2.5,3.2,1.4,5-2.3,3.8-8.9,3-12.8.7-5.9-3.5-9.2-10.3-4.4-18.3,4.5-7.6,12.3-8.1,18.2-4.6Z"/>
    <path class="cls-4" d="M147.4,358.9c2.1-1,3.1-1.3,4.4-.8,2,.8,2.6,3.1,2.1,4.6-.4,1.1-1.2,1.5-2.6,2.1l-5.1,2.5,2.1,11.3c.1.9.2,1.7-.2,2.5-.8,2-3.3,2.7-5.3,1.9-1.2-.5-2.1-1.3-2.4-3l-1.9-10.1-3.1,1.5-1.3,3.3c-1,2.5-3.1,3.5-5.4,2.5-2.3-1-3.2-3.1-2.1-5.6l6.7-16.4c1-2.5,3.1-3.5,5.4-2.5,2.3,1,3.2,3.1,2.1,5.6l-1.9,4.7,8.5-4.1Z"/>
    <path class="cls-4" d="M156.7,365.4c.8-3.3,2.6-4.4,5.7-3.6l12.6,3c2.4.6,3.2,2,2.8,3.7s-1.8,2.6-4.1,2.1l-9.2-2.2-.8,3.5,7.4,1.8c2.4.6,3.2,2,2.8,3.7s-1.8,2.6-4.1,2.1l-7.4-1.8-1,4,9.6,2.3c2.4.6,3.2,2,2.8,3.7s-1.8,2.6-4.1,2.1l-13-3.1c-3.1-.7-4.2-2.5-3.4-5.8l3.4-15.5Z"/>
    <path class="cls-4" d="M193,369c1-1.6,2.4-2.3,4-2.1,2.2.2,3.7,2.2,3.5,4.2-.1.8-.5,1.6-1.3,2.7l-6.8,9.6-.5,5.2c-.3,2.7-2,4.2-4.5,4s-3.9-2-3.7-4.8l.5-5.2-4.9-10.7c-.6-1.2-.8-2-.8-2.9.2-2,2-3.7,4.2-3.5,1.6.2,2.9,1.1,3.6,2.8l2.7,7.1,4-6.4Z"/>
    <path class="cls-4" d="M218.9,377.4c2-.1,3,1.4,3.1,3s-.9,3.1-2.8,3.2l-7.4.3.2,5c.1,2.7-1.4,4.5-3.9,4.6s-4.2-1.5-4.3-4.2l-.7-16.7c-.1-3.4,1.3-4.9,4.4-5.1l11.7-.5c3.1-.1,3.9,1.4,4,3s-.7,3.2-3.7,3.4l-8.2.3.2,4,7.4-.3Z"/>
    <path class="cls-4" d="M236.1,363.8c6.7-1.3,13.8,1.8,15.6,10.6,1.8,9.1-3.6,14.4-10.4,15.7-6.7,1.3-13.8-1.5-15.6-10.6-1.7-8.8,3.7-14.4,10.4-15.7ZM230.3,356.6c1.7-.3,3.5.8,3.8,2.5s-.8,3.5-2.5,3.8-3.5-.8-3.8-2.5c-.4-1.7.8-3.5,2.5-3.8ZM237.3,370c-3.3.7-4.4,3.8-3.6,7.8.8,4.1,3,6.6,6.3,5.9s4.4-3.8,3.6-7.8c-.8-4.1-2.9-6.5-6.3-5.9ZM238.7,355c1.7-.3,3.5.8,3.8,2.5s-.8,3.5-2.5,3.8-3.5-.8-3.8-2.5c-.4-1.8.7-3.5,2.5-3.8Z"/>
    <path class="cls-4" d="M252.4,365.8c-1.2-3.2-.3-5.1,3-6.3l8.5-3.2c5.9-2.2,9.7-.1,11,3.6,1.2,3.1,0,5.9-2.7,7.5v.1c2.5-.7,4.5-.5,5.7,1.9l1,1.9c.6,1.1,1.2,2.2,1.6,3.2.7,1.8-.7,3.6-2.3,4.2-2.2.8-4.3.6-5.5-1.7l-1.6-3c-1-1.8-2.5-1.9-4.3-1.2l-3,1.1,1.9,5c1,2.6.2,4.5-2.2,5.4-2.4.9-4.3,0-5.2-2.6l-5.9-15.9ZM265.9,367.4c2.2-.8,2.9-1.9,2.3-3.5s-1.8-2-4-1.2l-3.8,1.4,1.7,4.7,3.8-1.4Z"/>
    <path class="cls-4" d="M277.3,356c-1.7-3-1.1-5,1.7-6.5l11.3-6.4c2.1-1.2,3.7-.7,4.6.9.9,1.5.5,3.1-1.6,4.3l-8.3,4.7,1.8,3.1,6.6-3.7c2.1-1.2,3.7-.7,4.6.9.9,1.5.5,3.1-1.6,4.3l-6.6,3.7,2,3.6,8.6-4.8c2.1-1.2,3.7-.7,4.6.9.9,1.5.5,3.1-1.6,4.3l-11.7,6.6c-2.8,1.6-4.8,1-6.4-2l-8-13.9Z"/>
    <path class="cls-4" d="M310,332.9c-1.5-1.9-1.4-4.1.6-5.7,1.9-1.5,4.2-1.1,5.7.7l11.7,14.7c1.7,2.2.8,4.3-1.2,5.9-1.7,1.3-3,1.6-5.8.5l-12.2-4.5h-.1l6.3,7.9c1.7,2.1,1.5,4.2-.5,5.8-2,1.6-4.1,1.3-5.8-.9l-11.3-14.2c-1.7-2.2-1.5-4.4,1-6.3,1.5-1.2,3.1-1.5,5-.8l13.3,5.2h.1l-6.8-8.3Z"/>
    <path class="cls-4" d="M319.5,324.9c-2-1.9-2.1-4.2-.3-6,1.8-1.8,4.1-1.7,6,.2l12.6,12.4c2,1.9,2.1,4.2.3,6-1.8,1.8-4.1,1.8-6-.2l-12.6-12.4Z"/>
    <path class="cls-4" d="M338.1,302.7c-1.9-1.4-2.3-3.7-.8-5.6,1.5-2,3.8-2.1,5.7-.7l15,11.4c2.2,1.7,1.9,4,.3,6-1.3,1.7-2.5,2.3-5.5,2l-13-1.3v.1l8,6.1c2.2,1.7,2.5,3.7,1,5.7s-3.6,2.2-5.8.6l-14.4-11c-2.2-1.7-2.5-3.9-.6-6.4,1.2-1.6,2.7-2.3,4.7-2l14.1,1.7v-.1l-8.7-6.5Z"/>
    <path class="cls-4" d="M363.7,286.2c-.6,1.1-2,1.7-3.4,1-1.5-.8-2-2.1-1.2-3.7l2.4-4.7c1.1-2.1,3.3-2.6,5.2-1.6l6.5,3.4c1.4.8,2.7,2.1,1.7,4.1-.8,1.5-2.3,1.8-3.5,1.2l-.6-.3v.1c1.3,2.1.8,5.5-.5,8-2.6,5.1-8.5,9.6-17.6,4.8-8.6-4.5-8.6-12.5-5.9-17.6,3.8-7.3,8.5-7.4,10.3-6.5,1.4.8,2.6,2.9,1.4,5.1-1.2,2.3-4.2.9-5.8,4-1.3,2.4-.5,5.3,4,7.7,3.8,2,6.8,2.2,8.7-1.4,1.2-2.2.9-4-.6-5.4l-1.1,1.8Z"/>
    <path class="cls-4" d="M369.7,253.9l-1,3.7c-.5,1.7-1.6,2.3-3.1,1.9-1.7-.5-2.1-1.2-1.8-4.1.2-2.2-.5-3.5-1.5-4.7-1.2-1.5-1.8-2.4-1.5-3.8.5-1.7,1.5-2.6,3.2-2.1l18.9,5.2c2.4.7,3.1,2.4,2.5,4.5-.6,2.1-2.1,3.2-4.5,2.6l-11.2-3.2Z"/>
    <path class="cls-4" d="M371,242c-4.7-.7-7.9-4.7-7-11.1,1-7.1,6.1-10.3,14-9.2,7.5,1.1,12.5,5.1,11.3,13.3-.3,2.3-2.1,7.9-5.7,7.3-1.8-.3-2.8-1.7-2.5-3.4.3-2.3,2.9-2.9,3.2-4.9.5-3.2-2.3-4.3-5.4-4.8,1.1,1.7,1.4,3.5,1.1,5.4-.7,5-4,8.1-9,7.4ZM369.3,231.4c-.3,2,1.1,3.4,2.7,3.6,1.9.3,3.3-.7,3.6-2.7.3-2-1.1-3.4-2.7-3.6-1.6-.3-3.3.6-3.6,2.7Z"/>
    <path class="cls-4" d="M371.9,216.2c0,2.1-1.2,3.1-2.9,3.1-1.8,0-2.9-1.1-2.8-3.2l.2-13.9c0-2.2.9-3.5,3.2-3.5,1.3,0,2.5.8,5.1,3.3,1.5,1.5,6.9,4.5,11.9,5.2,4.5.6,5,2.5,4.9,4.3,0,1.6-1.5,3.1-3.3,3.1-4.6-.1-13.9-5.7-16.1-8.4l-.2,10Z"/>
    <path class="cls-4" d="M371.6,193.2c.3,2.1-.7,3.3-2.5,3.5s-3-.7-3.2-2.8l-1.7-13.7c-.3-2.2.4-3.6,2.7-3.9,1.3-.2,2.6.4,5.5,2.5,1.7,1.3,7.4,3.5,12.5,3.5,4.5,0,5.3,1.8,5.5,3.6.2,1.6-1,3.3-2.8,3.5-4.6.6-14.5-3.7-17.1-6l1.1,9.8Z"/>
  </g>
  <rect class="cls-2" x="314.4" y="186.4" width="15.6" height="7.5"/>
  <path class="cls-3" d="M342.3,172.9h-43.4c-5.1,0-5.9,2.3-5.9,5v43.1h21.4v-13.5h15.1c0,6.1-.5,13.5-.5,13.5h16.4c.5-5,.8-10.1.8-15.2,0-11.3-1.4-22.3-3.9-32.9ZM329,194h-14.6v-7.5h13.6c1,4.4,1,7.5,1,7.5Z"/>
  <path class="cls-3" d="M64.5,221h49.3v-13.5h-33.6s-.3-24.5,7.1-45.7h-16.6c-4.5,13.9-7,28.7-7,44,0,5.2.3,10.2.8,15.2Z"/>
  <polygon class="cls-3" points="199.9 207.5 199.9 172.9 178.5 172.9 178.5 221 226.9 221 226.9 207.5 199.9 207.5"/>
  <polygon class="cls-3" points="286.9 186.4 286.9 172.9 233.8 172.9 233.8 221 286.9 221 286.9 207.5 255.2 207.5 255.2 200.2 280.1 200.2 280.1 193.8 255.2 193.8 255.2 186.4 286.9 186.4"/>
  <path class="cls-2" d="M149.8,207.5v-.1s-.1,0,0,.1h0Z"/>
  <path class="cls-3" d="M149.8,172.9v27.5c-.1,1.7-2.3,3.1-4.9,3.1s-4.8-1.4-4.9-3.1v-27.5h-21.4v34.6c0,7.8.1,13.5,26.3,13.5s26.3-5.8,26.3-13.5v-34.6h-21.4Z"/>
  <path class="cls-3" d="M325.6,152.4h-8.6c-3.6,0-6.5,2.9-6.5,6.5v4.3c0,3.6,2.9,6.5,6.5,6.5h8.6c3.6,0,6.5-2.9,6.5-6.5v-4.3c0-3.6-2.9-6.5-6.5-6.5ZM325.3,161.8c0,1.3-1.1,2.4-2.4,2.4h-3.2c-1.3,0-2.4-1.1-2.4-2.4v-1.6c0-1.3,1.1-2.4,2.4-2.4h3.2c1.3,0,2.4,1.1,2.4,2.4v1.6Z"/>
  <path class="cls-4" d="M122.9,119.4s-18.5,30-18.6,30.2c-1.5,2-4,5.5-4,7.9,0,.8,0,3,9.1,12.1,1,1,2.6,1,3.5,0,.5-.5.7-1.1.7-1.8,0-.6-.2-1.3-.7-1.8-3.2-3.2-6.8-7.3-7.6-8.7.2-.8,1.6-3,2.9-4.7l.1-.1,18.8-30.4c.3-.4.4-.9.4-1.3,0-.8-.4-1.7-1.2-2.1-1.1-.9-2.6-.5-3.4.7Z"/>
  <path class="cls-4" d="M291.6,114.3c-1.2.7-1.6,2.2-1,3.4,3.8,6.8,13.7,25.8,13.7,32.3,0,5.9-8.9,13.1-12.4,15.4-1.1.8-1.5,2.3-.7,3.5.8,1.1,2.3,1.5,3.5.7,1.5-1,14.6-10,14.6-19.6,0-8.9-12.9-32.1-14.3-34.7-.7-1.3-2.2-1.7-3.4-1Z"/>
  <path class="cls-4" d="M226,85.3c-8.8-3.5-25.4-4.3-34.8,5.1-5.4,5.4-8.2,12.6-8.2,20.5,0,3.2.5,6.5,1.4,9.8,2.3,7.9,6.4,12.7,9.3,13.3,2,.5,4.4-1.5,5.2-2.3l11-10.4c-1.2-1.3-2.2-2.7-2.8-3.8-1.2-2.5.2-6.3,3.2-8.9l4.3-3.6c1.6-1.3,3.2-1.4,4.7-1.2,1.5.2,2.6,2.3,2.9,3.9.1.3.2.9.3,1.5l12.7-12.1s1.6-1.5,1.6-3.3c0-1.6-2.9-5.3-10.8-8.5ZM195.7,111.4c-2.2,1.2-3.6-1.9-3.6-5.3s1.1-5.7,2.3-6.3c.1,6,3.5,10.4,1.3,11.6ZM207.3,102.4c-4.8,5.9-7.4-6-7.4-6,0,0,10.2,2.5,7.4,6ZM215.1,95.8c-1.7,1.7-5-2.8-10.7-4.6.9-.9,3.4-1.3,6.7-.4,3.2,1,5.7,3.2,4,5Z"/>
  <path class="cls-4" d="M214.6,123.1c1.9,1.4,4.5,1.6,5.6.5s2-4.7,1.4-8l-1.4-7.3c-.2-1.3-.8-2.1-1.6-2.4s-1.7,0-2.7.8l-4.3,3.6c-2.5,2-3.4,5-2.7,6.4,1,1.8,3.6,4.7,5.7,6.4Z"/>
  <path class="cls-4" d="M272.6,133.8c-.8-3.3-4.6-8.6-5.1-9.2-.8-1.1-2.4-1.4-3.5-.6s-1.4,2.4-.6,3.5c1.4,1.9,3.8,5.7,4.3,7.5.5,1.9.5,3.4-.1,4.1-.5.7-1.8,1-3.7,1h-35.9c0,2.8-1.2,8-6.9,9.6l-.2-.9c4-1.6,5.4-4.5,5.4-8.7v-7.6s8.1,1.9,9.9,0c4.1-4.1.4-17.6.4-17.6l3.6-1.2s.6-10-5.5-13.2l-2.9,2.7v3.2h-3.3l-5.6,5.3.6,3.5c.7,3.7-.1,8-1.9,9.8-1.9,1.9-5.5,1.8-8.3-.3-.7-.5-1.4-1.2-2.1-1.9l-10.9,10.4c-.1.1-3,3.2-6.3,3l-5.2,3.6h-36.8c-2.6,0-2.9-.6-3-2.3-.1-.9,1-2.3,1.8-3,1-.9,1.1-2.5.2-3.5-.9-1-2.5-1.1-3.5-.2-.4.3-3.7,3.4-3.5,7.1.3,4.6,3,6.9,8,6.9h36.2c.9,2.4,2.8,5.6,6.9,8.9,8.3,6.7,20.2,11,20.2,11,0,0,8.8-4.5,11.7-9.6,1.6-2.7,3.1-6.7,4.2-9.9h32.8c3.5,0,6.1-1,7.6-2.9,1.6-2.1,1.9-4.9,1-8.5Z"/>
  <path class="cls-4" d="M247.1,65.2c-.4,2.3-2.3,3.9-4.4,3.6h0c-2-.3-3.4-2.5-3-4.8l2.1-12.7c.4-2.3,2.3-3.9,4.4-3.6h0c2,.3,3.4,2.5,3,4.8l-2.1,12.7Z"/>
  <path class="cls-4" d="M256.4,45.9c-2-.3-4,1.3-4.4,3.6l-.4,2.4h0l-2.1,12.7c-.4,2.3,1,4.5,3,4.8s4-1.3,4.4-3.6l.4-2.4h0l2.1-12.7c.4-2.3-.9-4.5-3-4.8Z"/>
  <path class="cls-4" d="M266.9,64.8c-.4,2.3-2.3,3.9-4.4,3.6h0c-2-.3-3.4-2.5-3-4.8l2.1-12.7c.4-2.3,2.3-3.9,4.4-3.6h0c2,.3,3.4,2.5,3,4.8l-2.1,12.7Z"/>
  <path class="cls-4" d="M276.9,64.2c-.4,2.3-2.3,3.9-4.4,3.6h0c-2-.3-3.4-2.5-3-4.8l1.7-10.4c.4-2.3,2.3-3.9,4.4-3.6h0c2,.3,3.4,2.5,3,4.8l-1.7,10.4Z"/>
  <path class="cls-4" d="M168.6,77.2c.1,2.3,1.9,4.2,3.9,4.1h0c2.1-.1,3.6-2.1,3.5-4.4l-.6-12.8c-.1-2.3-1.9-4.2-3.9-4.1h0c-2.1.1-3.6,2.1-3.5,4.4l.6,12.8Z"/>
  <path class="cls-4" d="M162,60c2.1-.1,3.8,1.7,3.9,4.1l.1,2.4h0l.6,12.8c.1,2.3-1.5,4.3-3.5,4.4-2.1.1-3.8-1.7-3.9-4.1l-.1-2.4h0l-.6-12.8c-.1-2.3,1.5-4.3,3.5-4.4Z"/>
  <path class="cls-4" d="M149.5,80.5c.1,2.3,1.9,4.2,3.9,4.1h0c2.1-.1,3.6-2.1,3.5-4.4l-.6-12.8c-.1-2.3-1.9-4.2-3.9-4.1h0c-2.1.1-3.6,2.1-3.5,4.4l.6,12.8Z"/>
  <path class="cls-4" d="M140.1,83.8c.1,2.3,1.9,4.2,3.9,4.1h0c2.1-.1,3.6-2.1,3.5-4.4l-.4-10.5c-.1-2.3-1.9-4.2-3.9-4.1h0c-2.1.1-3.6,2.1-3.5,4.4l.4,10.5Z"/>
  <path class="cls-4" d="M295.4,108.1c-.8-1.7-13.9-29.4-15.3-33.4s-.4-10.2-.4-10.2l-1.7.3c-.5,3-3,4.7-5.7,4.2-1.2-.2-2.3-.9-3.1-1.9-.6-.8-.9-1.8-1-2.8l-.1.7c-.5,3-3.1,5.1-5.8,4.6-1.2-.2-2.3-.9-3.1-1.9-.5-.8-.9-1.7-1-2.6l-.2.9c-.5,3-3.1,5.1-5.8,4.6-1.2-.2-2.3-.9-3.1-1.9-.6-.8-.9-1.8-1-2.9-.6,2.8-3.1,4.7-5.7,4.2-1.2-.2-2.3-.9-3.1-1.9-.9-1.2-1.2-2.8-1-4.3l.4-2.3s-3-4.8-8.1-3.5c-5.6,1.5,1.2,10.8,4.3,16.4,3.2,5.7,11.2,12.8,11.2,12.8,0,0,8,2.3,11.7,0-2.1,3.9-10.2,2.4-10.2,2.4,0,0,13,31.4,13.6,32.7s1.8.9,4.2,0c2.5-.9,27.4-10.1,28.5-10.6,2.6-1.2,2.2-2.2,1.5-3.6Z"/>
  <path class="cls-4" d="M319.4,57.2l-1.3-8.2-38.4,6c-.1,1.9-1.5,8.9-1.5,8.9l41.2-6.7Z"/>
  <path class="cls-2" d="M148.8,83.4l.2-.1c-.1-.2-.2-.3-.3-.5l.1.6Z"/>
  <path class="cls-4" d="M185.3,66.8c-4.7-1.8-7.8,4.1-7.8,4.1l-.5.2.3,5.7c.1,1.6-.5,3.1-1.5,4.2-.9,1-2,1.5-3.3,1.6-2,.1-3.8-1.2-4.7-3.1,0,1.5-.5,2.9-1.4,3.9s-2,1.5-3.3,1.6c-1.2.1-2.4-.4-3.4-1.3-.8-.7-1.3-1.6-1.6-2.7-.1,1.2-.6,2.4-1.4,3.2-.9,1-2,1.5-3.3,1.6-1.8.1-3.5-.9-4.4-2.5l-.2.1h0c.1,1.6-.5,3.1-1.5,4.2-.9,1-2,1.5-3.3,1.6s-2.6-.5-3.5-1.4c-2.9,4.7-14.5,23.2-15,24-.8,1.5-1,3.2.7,4.2.7.4,23.7,12.5,25,13.1,1.2.6,3.3.6,4.2-1.1.6-1.1,14.8-28.8,14.8-28.8,0,0-5.9,1.4-8.7-3.1,5.2,1.7,10.3,0,10.3,0l15.5-22.7c.2,0,2.7-4.8-2-6.6Z"/>
  <path class="cls-4" d="M188.4,73.9h0l-3.5,5.1,47.3-7.7c-1.7-3-3.5-5.9-4-8.3l-39.3,6.1c.7,2.3-.5,4.7-.5,4.8Z"/>
  <path class="cls-4" d="M138.7,77l-12.8,1.9s-26-24-29.4-27.4c-3.3-3.3-8.2-4.1-10.9-2-2.7,2.1-6.3,5.9-6.3,5.9l38.7,34.4,21.6-3.5c-.7-.5-.9-9.3-.9-9.3Z"/>
  <path class="cls-3" d="M344.3,229h-15.8c-2.5,10.7-6.1,21.6-6.1,21.6l-5.8-21.6h-16.3l11.5,43c-3.1,5.8-7,10.1-7,10.1v23.6c20.3-20.3,34.5-46.9,39.5-76.7Z"/>
  <path class="cls-3" d="M269,228.6h-16.3l-9.3,34.8v-34.8h-16.4v116.7c5.6-.9,11-2.1,16.3-3.6v-50.1l8.5,47.4c5.2-1.8,10.3-4,15.2-6.4l-10.4-57.9,12.4-46.1Z"/>
  <path class="cls-3" d="M286.5,301.4v-27.1h12v-13.2h-12v-19.3h12v-13.2h-28.3v102.5c10.3-5.3,19.8-11.9,28.3-19.5v-21.9c-3,3.5-6.9,7.2-12,11.7Z"/>
  <path class="cls-3" d="M105.3,229v13h-20.7c-2.3-7.1-3.3-13.4-3.3-13.4l-15.7.4c4.1,25,14.8,47.7,30.2,66.5v-27.7s-4-6.4-5.7-12.6h15.1v50.7c5.1,5.1,10.5,9.7,16.3,14v-90.9h-16.2Z"/>
  <path class="cls-3" d="M170,334.7v-99c0-3.9-3.2-7.1-7.1-7.1h-25.7c-3.9,0-7.1,3.2-7.1,7.1v84.3c0,4.1.5,5.7,3.3,7.7s20.5,10.4,31.7,13.7c2.9-1,4.9-3.6,4.9-6.7ZM154.3,313.2c0,2.3-1.9,4.2-4.2,4.2s-4.2-1.9-4.2-4.2v-64.9c0-2.3,1.9-4.2,4.2-4.2s4.2,1.9,4.2,4.2v64.9Z"/>
  <path class="cls-3" d="M211.4,228.6h-25.7c-3.9,0-7.1,3.2-7.1,7.1v105c0,1.6.5,3,1.4,4.2,8.1,1.4,16.4,2.2,24.9,2.2,3.4,0,6.9-.1,10.2-.4,2-1.3,3.3-3.5,3.3-6v-41.5h0c0-1.3-1-2.3-2.3-2.3h-11c-1.3,0-2.3,1-2.3,2.3h0v26.1c0,2.3-1.9,4.2-4.2,4.2s-4.2-1.9-4.2-4.2v-76.9c0-2.3,1.9-4.2,4.2-4.2s4.2,1.9,4.2,4.2v26.1h0c.2,1.1,1.1,2,2.3,2h11c1.2,0,2.1-.9,2.3-2h0v-38.8c.1-3.9-3-7.1-7-7.1Z"/>
</svg>